<?xml version="1.0" encoding="UTF-8"?>
<svg width="18px" height="20px" viewBox="0 0 18 20" version="1.1" xmlns="http://www.w3.org/2000/svg" xmlns:xlink="http://www.w3.org/1999/xlink">
    <title>account thick</title>
    <g id="Icons" stroke="none" stroke-width="1" fill="none" fill-rule="evenodd">
        <g id="Icons-[All-Platforms]" transform="translate(-76.000000, -182.000000)" >
            <g id="Icons_basic_account" transform="translate(73.000000, 180.000000)">
                <path d="M11.9998,12 C16.9628,12 20.9998,16.0375 20.9998,21 L19.9998,22 L3.99979995,22 L2.99979995,21 C2.99979995,16.0375 7.03729998,12 11.9998,12 Z M11.9998,14 C8.47979998,14 5.55779997,16.6125 5.07129997,20 L18.9288,20 C18.4423,16.6125 15.5203,14 11.9998,14 Z M12,1.99999995 C14.481,1.99999995 16.5,4.01849996 16.5,6.49999995 C16.5,8.98149998 14.481,10.9999999 12,10.9999999 C9.51899999,10.9999999 7.49999998,8.98149998 7.49999998,6.49999995 C7.49999998,4.01849996 9.51899999,1.99999995 12,1.99999995 Z M12,3.99999996 C10.6215,3.99999996 9.49999999,5.12149997 9.49999999,6.49999996 C9.49999999,7.87849998 10.6215,8.99999996 12,8.99999996 C13.3785,8.99999996 14.5,7.87849998 14.5,6.49999996 C14.5,5.12149997 13.3785,3.99999996 12,3.99999996 Z"></path>
            </g>
        </g>
    </g>
</svg>