<?xml version="1.0" encoding="UTF-8"?>
<svg width="4px" height="18px" viewBox="0 0 4 18" version="1.1" xmlns="http://www.w3.org/2000/svg" xmlns:xlink="http://www.w3.org/1999/xlink">
    <title>action thick</title>
    <defs>
        <path d="M12,17 C12.9166667,17 13.6666667,17.75 13.6666667,18.6666667 C13.6666667,19.5833334 12.9166667,20.3333334 12,20.3333334 C11.0833333,20.3333334 10.3333333,19.5833334 10.3333333,18.6666667 C10.3333333,17.75 11.0833333,17 12,17 Z M12,10.3333333 C12.9166667,10.3333333 13.6666667,11.0833333 13.6666667,12 C13.6666667,12.9166667 12.9166667,13.6666667 12,13.6666667 C11.0833333,13.6666667 10.3333333,12.9166667 10.3333333,12 C10.3333333,11.0833333 11.0833333,10.3333333 12,10.3333333 Z M12,3.66666663 C12.9166667,3.66666663 13.6666667,4.41666663 13.6666667,5.3333333 C13.6666667,6.24999997 12.9166667,6.99999998 12,6.99999998 C11.0833333,6.99999998 10.3333333,6.24999997 10.3333333,5.3333333 C10.3333333,4.41666663 11.0833333,3.66666663 12,3.66666663 Z" id="path-1"></path>
    </defs>
    <g id="Icons" stroke="none" stroke-width="1" fill="none" fill-rule="evenodd">
        <g id="Icons-[All-Platforms]" transform="translate(-645.000000, -1267.000000)">
            <g id="Group" transform="translate(635.000000, 1264.000000)">
                <mask id="mask-2" fill="white">
                    <use xlink:href="#path-1"></use>
                </mask>
                <use id="Combined-Shape" fill="#62656E" xlink:href="#path-1"></use>
            </g>
        </g>
    </g>
</svg>