<?xml version="1.0" encoding="UTF-8"?>
<svg width="18px" height="19px" viewBox="0 0 18 19" version="1.1" xmlns="http://www.w3.org/2000/svg" xmlns:xlink="http://www.w3.org/1999/xlink">
    <title>afternoon thick</title>
    <g id="Icons" stroke="none" stroke-width="1" fill="none" fill-rule="evenodd">
        <g id="Icons-[All-Platforms]" transform="translate(-217.000000, -182.000000)" >
            <g id="Combined-Shape" transform="translate(214.000000, 180.000000)">
                <path d="M11.9353651,16.4 L12.7527196,17.22432 L12.7527196,19.6715467 L11.9353651,20.4958667 L11.1175873,19.6715467 L11.1175873,17.22432 L11.9353651,16.4 Z M16.3559788,14.8 L18.2785185,16.7374934 L18.2785185,17.9031467 L17.1225397,17.9031467 L15.2,15.9656534 L15.2,14.8 L16.3559788,14.8 Z M8.67894178,14.8 L8.67894178,15.9656534 L6.75640209,17.9031467 L5.59999997,17.9031467 L5.59999997,16.7374934 L7.52253966,14.8 L8.67894178,14.8 Z M11.9442963,7.72949331 C13.9675767,7.72949331 15.6141376,9.39434665 15.6141376,11.4402133 C15.6141376,13.48608 13.9675767,15.1509334 11.9447196,15.1509334 C9.92143914,15.1509334 8.27487829,13.48608 8.27487829,11.4402133 C8.27487829,9.39434665 9.92101586,7.72949331 11.9442963,7.72949331 Z M11.9442963,9.37770665 C10.8230265,9.37770665 9.91001057,10.3031467 9.91001057,11.4402133 C9.91001057,12.57728 10.8230265,13.50272 11.9447196,13.50272 C13.0659894,13.50272 13.9790053,12.57728 13.9790053,11.4402133 C13.9790053,10.3031467 13.0659894,9.37770665 11.9442963,9.37770665 Z M7.09833736,10.8 L7.99999998,11.5995859 L7.09833736,12.4 L4.10119588,12.4 L3.19999996,11.5995859 L4.10119588,10.8 L7.09833736,10.8 Z M20.37545,10.6160637 L20.37545,12.2642771 L16.0218839,12.2642771 L16.0218839,10.6160637 L20.37545,10.6160637 Z M6.80186965,5.19999997 L8.79999998,7.19840503 L8.79999998,8.39999998 L7.59813031,8.39999998 L5.59999997,6.40203489 L5.59999997,5.19999997 L6.80186965,5.19999997 Z M18.4,5.19999997 L18.4,6.40203489 L16.401595,8.39999998 L15.2,8.39999998 L15.2,7.19840503 L17.1984051,5.19999997 L18.4,5.19999997 Z M11.9997929,2.67913974 L12.8,3.58033566 L12.8,5.89880405 L11.9997929,6.79999997 L11.2,5.89880405 L11.2,3.58033566 L11.9997929,2.67913974 Z"></path>
            </g>
        </g>
    </g>
</svg>