<?xml version="1.0" encoding="UTF-8"?>
<svg width="20px" height="20px" viewBox="0 0 20 20" version="1.1" xmlns="http://www.w3.org/2000/svg" xmlns:xlink="http://www.w3.org/1999/xlink">
    <title>arrow history thick</title>
    <g id="Icons" stroke="none" stroke-width="1" fill="none" fill-rule="evenodd">
        <g id="Icons-[All-Platforms]" transform="translate(-356.000000, -182.000000)" >
            <g id="Combined-Shape" transform="translate(354.000000, 180.000000)">
                <path d="M4.93383835,2.00482292 L5.93686866,3.00860283 L5.93686866,5.3537703 C6.19242422,5.10659327 6.47020199,4.88955977 6.75606058,4.68056455 L6.75606058,4.68056455 L6.75505048,4.67955977 L6.76313128,4.67353106 C6.93686867,4.54592341 7.11969695,4.43539709 7.30252523,4.32386599 C7.32171715,4.30979901 7.34292927,4.29774159 7.36313129,4.28568417 C7.5691919,4.16109087 7.770202,4.02644972 7.98535352,3.91793298 C7.99040402,3.92597125 7.99343433,3.93501431 7.99747473,3.94405738 C9.20555554,3.34822006 10.5621212,3.00860283 12.0005051,3.00860283 C17.0116162,3.00860283 21.089394,7.06491864 21.089394,12.0496555 C21.089394,17.0343924 17.0116162,21.0907081 12.0005051,21.0907081 C6.98939391,21.0907081 2.91262622,17.0364019 2.91161612,12.0526698 L2.91161612,12.0526698 L2.91161612,12.0496555 L2.90858581,12.0496555 L3.92878784,11.0458756 L4.93080805,12.0486507 L4.93181815,12.0486507 C4.93181815,15.9271197 8.10252524,19.0811388 12.0005051,19.0811388 C15.8964647,19.0811388 19.0691919,15.9271197 19.0691919,12.0496555 C19.0691919,8.17319615 15.8964647,5.01817221 12.0005051,5.01817221 C10.6035353,5.01817221 9.30555554,5.42812437 8.20757574,6.12745452 L8.20757574,6.12745452 C7.78636362,6.40176074 7.38838381,6.71223921 7.04696968,7.09003826 L7.04696968,7.09003826 L9.40252524,7.11415308 L9.40252524,7.11214351 L9.40454544,7.11415308 L9.41969696,7.11415308 L9.41969696,7.13022964 L10.4116162,8.12697605 L9.40252524,9.12372248 L3.91666662,9.07247846 L3.91666662,3.00860283 L3.91363632,3.00860283 L4.93383835,2.00482292 Z M12.0637655,7.45454543 L13.0192837,8.42110761 L13.0173573,8.42110761 L13.0173573,12.390882 L15.6363637,15.1715624 L15.6296211,16.5454546 L14.2734016,16.5415845 L11.0909091,13.1610356 L11.0909091,8.42110761 L12.0637655,7.45454543 Z"></path>
            </g>
        </g>
    </g>
</svg>