<?xml version="1.0" encoding="UTF-8"?>
<svg width="20px" height="20px" viewBox="0 0 20 20" version="1.1" xmlns="http://www.w3.org/2000/svg" xmlns:xlink="http://www.w3.org/1999/xlink">
    <title>arrow-move thick</title>
    <g id="Icons" stroke="none" stroke-width="1" fill="none" fill-rule="evenodd">
        <g id="Icons-[All-Platforms]" transform="translate(-215.000000, -1170.000000)" >
            <g id="Icons_navigation_arrow-move" transform="translate(213.000000, 1168.000000)">
                <polygon points="12.0114286 1.99999995 8.08952379 6.03809521 8.0838095 7.40476188 9.41142856 7.40095236 11.0733333 5.68952378 11.0733333 11 6.05809521 11 7.71999998 9.28857142 7.72476188 7.92095236 6.39619045 7.92666665 2.47619043 11.9638095 6.39619045 16.0019048 7.7638095 16.0076191 7.75999998 14.6790476 6.05809521 12.9266667 11.0733333 12.9266667 11.0733333 18.3095238 9.41142856 16.5990476 8.04476188 16.5952381 8.04857141 17.9219048 12.0114286 22.0000001 15.932381 17.9619048 15.9361905 16.5942857 14.6085714 16.5990476 12.9466667 18.3095238 12.9466667 12.9266667 17.9409524 12.9266667 16.2780953 14.64 16.2790476 14.6409524 16.2752381 16.0076191 17.6028572 16.0019048 21.5228572 11.9647619 21.5228572 11.9628571 17.6028572 7.92666665 16.2352381 7.92095236 16.2390476 9.24857141 17.9409524 11 12.9466667 11 12.9466667 5.68952378 14.6085714 7.40095236 15.9761905 7.40476188 15.9714286 6.07714283"></polygon>
            </g>
        </g>
    </g>
</svg>