<?xml version="1.0" encoding="UTF-8"?>
<svg width="20px" height="18px" viewBox="0 0 20 18" version="1.1" xmlns="http://www.w3.org/2000/svg" xmlns:xlink="http://www.w3.org/1999/xlink">
    <title>bank thick</title>
    <defs>
        <path d="M12.3330272,3 L11.463483,3.00351043 L2,8.0259382 L2.43839722,9.93360818 L3.36062642,9.93360818 L3.36062642,19.0366645 L3.22335541,19.0366645 L2.29049253,20.096314 L3.22335541,21 L9.64947557,21 L9.64947557,20.9994985 L10.2908792,20.9994985 L10.2908792,21 L20.7766446,21 L21.7095075,20.0958126 L20.7766446,19.0366645 L20.6398569,19.0366645 L20.6398569,9.93360818 L21.5693364,9.93360818 L22,8.02242776 L12.3330272,3 Z M11.9067137,5.03153818 L17.4599062,7.91711475 L6.47000822,7.91711475 L11.9067137,5.03153818 Z M12.9666973,19.0366645 L18.7069457,19.0366645 L18.7069457,9.93360818 L12.9666973,9.93360818 L12.9666973,19.0366645 Z M5.29353763,9.93360818 L11.0337861,9.93360818 L11.0337861,19.0366645 L10.2908792,19.0366645 L10.2908792,19.0376674 L9.64947557,19.0376674 L9.64947557,19.0366645 L5.29353763,19.0366645 L5.29353763,9.93360818 Z" id="path-1"></path>
    </defs>
    <g id="Icons" stroke="none" stroke-width="1" fill="none" fill-rule="evenodd">
        <g id="Icons-[All-Platforms]" transform="translate(-778.000000, -183.000000)">
            <g id="Group" transform="translate(776.000000, 180.000000)">
                <mask id="mask-2" fill="white">
                    <use xlink:href="#path-1"></use>
                </mask>
                <use id="Combined-Shape"  xlink:href="#path-1"></use>
            </g>
        </g>
    </g>
</svg>