<?xml version="1.0" encoding="UTF-8"?>
<svg width="19px" height="19px" viewBox="0 0 19 19" version="1.1" xmlns="http://www.w3.org/2000/svg" xmlns:xlink="http://www.w3.org/1999/xlink">
    <title>blueprint thick</title>
    <defs>
        <path d="M3,3.84770966 L3,21.1228411 L3.95634453,22 L21.2407218,22 L22,21.1041899 L22,3.90637319 L21.145553,3 L12.5,3 L3.90150688,3 L3,3.84770966 Z M4.80617193,20.1822293 L4.80617193,14.2668698 L8.46284147,14.2668698 L8.46284147,20.1822293 L4.80617193,20.1822293 Z M15.64795,9.27429848 L15.64795,5.8154519 L14.2225034,5.8154519 L14.2225034,12.966363 L15.64795,12.966363 L15.64795,10.7900146 L20.2534677,10.7900146 L20.2534677,20.2961507 L15.4147686,20.2961507 L15.4147686,16.0508206 L18.5238429,16.0508206 L18.5238429,14.8570581 L14.2225034,14.8570581 L14.2225034,16.7251219 L11.6838647,16.7251219 L11.6838647,18.1740707 L14.2225034,18.1740707 L14.2225034,20.2961507 L9.90707095,20.2961507 L9.90707095,14.2521174 L10.9843204,14.2521174 L10.9843204,12.5 L4.98048926,12.5 L4.98048926,4.78622203 L7.48659804,4.78622203 L7.48659804,7.9603633 L6.20409985,7.9603633 L6.20409985,9.27429848 L11.0620353,9.27429848 L11.0620353,7.9603633 L9.03452563,7.9603633 L9.03452563,4.78622203 L20.2534677,4.78622203 L20.2534677,9.27429848 L15.64795,9.27429848 Z" id="path-1"></path>
    </defs>
    <g id="Icons" stroke="none" stroke-width="1" fill="none" fill-rule="evenodd">
        <g id="Icons-[All-Platforms]" transform="translate(-1059.000000, -183.000000)">
            <g id="Group" transform="translate(1056.000000, 180.000000)">
                <mask id="mask-2" fill="white">
                    <use xlink:href="#path-1"></use>
                </mask>
                <use id="Combined-Shape"  xlink:href="#path-1"></use>
            </g>
        </g>
    </g>
</svg>