<?xml version="1.0" encoding="UTF-8"?>
<svg width="20px" height="20px" viewBox="0 0 20 20" version="1.1" xmlns="http://www.w3.org/2000/svg" xmlns:xlink="http://www.w3.org/1999/xlink">
    <title>calendar thick</title>
    <g id="Icons" stroke="none" stroke-width="1" fill="none" fill-rule="evenodd">
        <g id="Icons-[All-Platforms]" transform="translate(-1339.000000, -182.000000)" fill="#62656E">
            <g id="Icons_basic_calendar" transform="translate(1337.000000, 180.000000)">
                <path d="M8.00575502,1.99999995 L8.00575502,2.99949995 L16.0127612,2.99949995 L16.0127612,1.99999995 L18.0145127,1.99999995 L18.0145127,2.99949995 L20.9991242,2.99949995 L21.9999999,3.99999995 L21.9999999,20.9995 L20.9991242,21.9999999 L3.00087573,21.9999999 L1.99999995,20.9995 L1.99999995,3.99999995 L3.00087573,2.99949995 L6.00350304,2.99949995 L6.00350304,1.99999995 L8.00575502,1.99999995 Z M19.9982485,9.99949999 L4.00175149,9.99949999 L4.00175149,19.9995 L19.9982485,19.9995 L19.9982485,9.99949999 Z M7.505167,11.99965 C8.33439257,11.99965 9.00648066,12.67165 9.00648066,13.49965 C9.00648066,14.32815 8.33439257,14.99965 7.505167,14.99965 C6.67594142,14.99965 6.00385334,14.32815 6.00385334,13.49965 C6.00385334,12.67165 6.67594142,11.99965 7.505167,11.99965 Z M6.00350304,4.99949996 L4.00175149,4.99949996 L4.00175149,7.99999998 L19.9982485,7.99999998 L19.9982485,4.99949996 L18.0145127,4.99949996 L18.0145127,5.99949996 L17.0136369,6.99949996 L16.0127612,5.99949996 L16.0127612,4.99949996 L8.00575502,4.99949996 L8.00575502,5.99949996 L7.00487925,6.99949996 L6.00350304,5.99949996 L6.00350304,4.99949996 Z"></path>
            </g>
        </g>
    </g>
</svg>