<?xml version="1.0" encoding="UTF-8"?>
<svg width="20px" height="20px" viewBox="0 0 20 20" version="1.1" xmlns="http://www.w3.org/2000/svg" xmlns:xlink="http://www.w3.org/1999/xlink">
    <title>call pending thick</title>
    <defs>
        <path d="M9.34944999,2.49999995 L11.87945,5.02949997 L11.87895,9.19949999 L10.05995,11.0225 C10.34945,11.4705 10.79095,12.0885 11.32495,12.623 C11.86395,13.1615 12.48745,13.606 12.93645,13.895 L14.75845,12.1355 L19.45845,12.1385 L21.41045,14.63 L21.41045,18.989 L18.37745,21.3965 L18.08295,21.425 C18.03895,21.4285 17.81845,21.448001 17.45695,21.448001 C15.79495,21.4485 11.15195,21.0435 7.02844998,16.9195 C2.99518766,12.887041 2.51964489,8.35773433 2.50073306,6.60529497 L2.50048866,6.40481172 C2.5031821,6.09454593 2.51962213,5.90549997 2.52344995,5.86549997 L2.55244995,5.56999997 L4.99944996,2.49999995 L9.34944999,2.49999995 Z M8.52144998,4.49999996 L5.96244997,4.49999996 L4.50044996,6.33399997 L4.49899592,6.40980003 L4.49899592,6.40980003 L4.49849051,6.58606919 C4.50943955,7.99627952 4.88547124,11.9485213 8.44244998,15.5055 C12.23995,19.3025 16.48345,19.4725 17.61545,19.4475 L19.41045,18.023 L19.41045,15.3205 L18.48395,14.1375 L15.56595,14.136 L13.25595,16.367 L12.61545,16.0305 C12.55395,15.998 11.09945,15.226 9.91094999,14.037 C8.72194998,12.8485 7.94994998,11.394 7.91794998,11.3325 L7.57494998,10.681 L9.87894999,8.37249998 L9.87944999,5.85749997 L8.52144998,4.49999996 Z M17.5561,2.63269995 C19.6536,2.63269995 21.3601,4.33919996 21.3601,6.43719997 C21.3601,8.53519998 19.6536,10.2417 17.5561,10.2417 C15.4581,10.2417 13.7516,8.53519998 13.7516,6.43719997 C13.7516,4.33919996 15.4581,2.63269995 17.5561,2.63269995 Z M17.5561,4.13269996 C16.2851,4.13269996 15.2516,5.16669997 15.2516,6.43719997 C15.2516,7.70819998 16.2851,8.74169998 17.5561,8.74169998 C18.8266,8.74169998 19.8601,7.70819998 19.8601,6.43719997 C19.8601,5.16669997 18.8266,4.13269996 17.5561,4.13269996 Z M17.5561,4.76804996 L18.0561,5.26804996 L18.0561,6.23004997 L18.7146,6.88904997 L18.7146,7.59604998 L18.0071,7.59604998 L18.0076,7.59554998 L17.0561,6.64404997 L17.0561,5.26804996 L17.5561,4.76804996 Z" id="path-1"></path>
    </defs>
    <g id="Icons" stroke="none" stroke-width="1" fill="none" fill-rule="evenodd">
        <g id="Icons-[All-Platforms]" transform="translate(-216.000000, -278.000000)">
            <g id="Group" transform="translate(214.000000, 276.000000)">
                <mask id="mask-2" fill="white">
                    <use xlink:href="#path-1"></use>
                </mask>
                <use id="Combined-Shape" fill="#62656E" xlink:href="#path-1"></use>
            </g>
        </g>
    </g>
</svg>