<?xml version="1.0" encoding="UTF-8"?>
<svg width="20px" height="20px" viewBox="0 0 20 20" version="1.1" xmlns="http://www.w3.org/2000/svg" xmlns:xlink="http://www.w3.org/1999/xlink">
    <title>call</title>
    <defs>
        <path d="M6.09368418,2.00021048 L3.57263154,3.51284206 C2.96526311,3.87705259 2.51052627,4.45178944 2.28947364,5.13178944 C1.57999995,7.3233684 1.83052626,11.0307368 7.04842103,16.2496842 C10.4010526,19.6012632 13.5021053,21.3012632 16.2673684,21.3012632 C16.9284211,21.3012632 17.5673684,21.2023158 18.1663158,21.0086316 C18.8463158,20.7886316 19.4210527,20.3338948 19.7852632,19.7265264 L21.2884211,17.2212632 L20.9536843,15.7317895 L15.3305263,11.9812632 L12.6894737,13.7044211 C12.2810526,13.4054737 11.7652632,12.967579 11.0473684,12.2496842 C10.4189474,11.6212632 9.9136842,10.9823158 9.5536842,10.4770526 L10.568421,9.1065263 L11.3621053,8.03599998 L10.6231579,6.92863155 L9.40315788,5.09810523 L7.56315787,2.33494732 L6.09368418,2.00021048 Z M6.40842102,4.02021049 L7.82631577,6.14863155 L9.04631577,7.97915787 L9.04631577,7.97915787 L7.25157892,10.4012631 C7.25157892,10.4012631 8.12947366,12.0117895 9.70842104,13.5896842 C11.2863158,15.167579 12.08,15.6002105 12.7168421,15.947579 L15.3189474,14.2517895 L15.3189474,14.2507369 L15.3189474,14.2507369 L19.2768421,16.8907369 L18.16,18.7517895 C18.0294737,18.9696842 17.8242106,19.127579 17.5831579,19.2065264 C17.2126316,19.3254737 16.7747369,19.4065264 16.2673684,19.4065264 C14.5189474,19.4065264 11.9368421,18.4581053 8.38842103,14.9096842 C3.80947364,10.3307368 3.55999996,7.35810524 4.09263154,5.71599997 C4.17052628,5.4738947 4.32947365,5.26757891 4.54736838,5.1370526 L6.40842102,4.02021049 L6.40842102,4.02021049 Z" id="path-1"></path>
    </defs>
    <g id="Icons" stroke="none" stroke-width="1" fill="none" fill-rule="evenodd">
        <g id="Icons-[All-Platforms]" transform="translate(-1200.000000, -1438.000000)">
            <g id="Group" transform="translate(1198.000000, 1436.000000)">
                <mask id="mask-2" fill="white">
                    <use xlink:href="#path-1"></use>
                </mask>
                <use id="Combined-Shape" fill="#62656E" xlink:href="#path-1"></use>
            </g>
        </g>
    </g>
</svg>