<?xml version="1.0" encoding="UTF-8"?>
<svg width="20px" height="20px" viewBox="0 0 20 20" version="1.1" xmlns="http://www.w3.org/2000/svg" xmlns:xlink="http://www.w3.org/1999/xlink">
    <title>call thick</title>
    <g id="Icons" stroke="none" stroke-width="1" fill="none" fill-rule="evenodd">
        <g id="Icons-[All-Platforms]" transform="translate(-75.000000, -278.000000)" fill="#62656E">
            <g id="Icons_basic_call" transform="translate(73.000000, 276.000000)">
                <path d="M18.3875856,19.9782723 C10.6208194,19.6345435 4.36545647,13.3796824 4.02222943,5.61241435 L7.53679402,4.2063878 L9.68597736,8.50475448 L8.02152694,9.3367288 L8.02152694,9.95694607 C8.02152694,13.2773164 10.7231854,15.978473 14.0430539,15.978473 L14.6632712,15.978473 L14.9407632,15.4239908 L14.9407632,15.4239908 L15.4957473,14.3145244 L19.7936122,16.463206 L18.3875856,19.9782723 Z M21.5172743,15.0807637 L15.4957473,12.0700003 L14.1489324,12.5191058 L13.4449156,13.9266377 C11.7092104,13.6667085 10.3337933,12.2907896 10.0733623,10.5550844 L11.481396,9.85106756 L11.9299997,8.50475448 L8.91923625,2.48322749 L7.64919586,1.99999995 L2.6312567,4.00717561 L1.99999995,4.93900691 C1.99999995,14.3466392 9.65386255,21.9999999 19.0609931,21.9999999 L19.9928243,21.3692451 L21.9999999,16.3513059 L21.5172743,15.0807637 Z"></path>
            </g>
        </g>
    </g>
</svg>