<?xml version="1.0" encoding="UTF-8"?>
<svg width="20px" height="20px" viewBox="0 0 20 20" version="1.1" xmlns="http://www.w3.org/2000/svg" xmlns:xlink="http://www.w3.org/1999/xlink">
    <title>call request thick</title>
    <defs>
        <path d="M19.651579,7.0262105 L18.1478948,7.0262105 L18.1489474,2.00568416 L16.57,2.00568416 L16.5689474,7.0262105 L15.0642105,7.0262105 L14.681579,7.68884208 L17.3578948,10.7277895 L20.0347369,7.68884208 L19.651579,7.0262105 Z M4.10578943,6.03568418 C4.07684207,7.21673682 4.25578943,11.6904211 8.25526314,15.6898948 C12.2536842,19.6888421 16.7252632,19.8677895 17.9110527,19.8388421 L19.8005264,18.3393685 L19.8005264,15.4951579 L18.8252632,14.2504211 L15.7536842,14.2483158 L13.3221053,16.5967369 L12.6484211,16.2425263 C12.5836842,16.2077895 11.0526316,15.3956842 9.80105262,14.1441053 C8.54947367,12.8925263 7.73684208,11.3614737 7.70315787,11.2967368 L7.34210524,10.6114737 L9.76736841,8.18094735 L9.76789473,5.53410523 L8.33842103,4.10515786 L5.64526313,4.10515786 L4.10578943,6.03568418 Z M17.7442106,21.9446316 C15.9942105,21.9446316 11.1073684,21.5188422 6.76684208,17.1783158 C1.48157889,11.8941053 2.00015816,5.79936839 2.02473679,5.54252628 L2.05473679,5.23147365 L4.63157891,1.99989469 L9.20999999,1.99989469 L11.8731579,4.66252628 L11.8726316,9.05199999 L9.95789473,10.970421 C10.2626316,11.4425263 10.7273684,12.0930526 11.2894737,12.6556842 C11.8568421,13.2225263 12.5131579,13.6898947 12.9857895,13.9946316 L14.9036842,12.142 L19.8510527,12.1462105 L21.9057895,14.7683158 L21.9057895,19.3562106 L18.7131579,21.8904211 L18.4031579,21.9204211 C18.3568421,21.9246316 18.1247369,21.9446316 17.7442106,21.9446316 L17.7442106,21.9446316 Z" id="path-1"></path>
    </defs>
    <g id="Icons" stroke="none" stroke-width="1" fill="none" fill-rule="evenodd">
        <g id="Icons-[All-Platforms]" transform="translate(-353.000000, -278.000000)">
            <g id="Group" transform="translate(351.000000, 276.000000)">
                <mask id="mask-2" fill="white">
                    <use xlink:href="#path-1"></use>
                </mask>
                <use id="Combined-Shape"  xlink:href="#path-1"></use>
            </g>
        </g>
    </g>
</svg>