<?xml version="1.0" encoding="UTF-8"?>
<svg width="20px" height="18px" viewBox="0 0 20 18" version="1.1" xmlns="http://www.w3.org/2000/svg" xmlns:xlink="http://www.w3.org/1999/xlink">
    <title>camera thick</title>
    <g id="Icons" stroke="none" stroke-width="1" fill="none" fill-rule="evenodd">
        <g id="Icons-[All-Platforms]" transform="translate(-497.000000, -279.000000)" fill="#62656E">
            <g id="Icons_basic_camera" transform="translate(495.000000, 276.000000)">
                <path d="M15.7203,2.99999995 L16.7208,5.99999995 L20.9997999,5.99999995 L21.9997999,6.99999995 L21.9997999,20 L20.9997999,21 L2.99979995,21 L1.99979995,20 L1.99979995,6.99999995 L2.99979995,5.99999995 L7.27929998,5.99999995 L8.27929998,2.99999995 L15.7203,2.99999995 Z M14.2793,4.99999996 L9.72079999,4.99999996 L8.72079998,7.99999996 L3.99979996,7.99999996 L3.99979996,19 L19.9998,19 L19.9998,7.99999996 L15.2793,7.99999996 L14.2793,4.99999996 Z M12,7.99999998 C14.757,7.99999998 17,10.243 17,13 C17,15.757 14.757,18 12,18 C9.24299999,18 6.99999997,15.757 6.99999997,13 C6.99999997,10.243 9.24299999,7.99999998 12,7.99999998 Z M12,9.99999999 C10.3455,9.99999999 8.99999999,11.3455 8.99999999,13 C8.99999999,14.6545 10.3455,16 12,16 C13.6545,16 15,14.6545 15,13 C15,11.3455 13.6545,9.99999999 12,9.99999999 Z"></path>
            </g>
        </g>
    </g>
</svg>