<?xml version="1.0" encoding="UTF-8"?>
<svg width="20px" height="20px" viewBox="0 0 20 20" version="1.1" xmlns="http://www.w3.org/2000/svg" xmlns:xlink="http://www.w3.org/1999/xlink">
    <title>camera add thick</title>
    <g id="Icons" stroke="none" stroke-width="1" fill="none" fill-rule="evenodd">
        <g id="Icons-[All-Platforms]" transform="translate(-637.000000, -278.000000)" fill="#62656E">
            <g id="Icons_basic_camera-add" transform="translate(635.000000, 276.000000)">
                <path d="M20.1818182,15.6335 L20.1818182,17.4630455 L22.0000001,17.4630455 L22.0000001,19.2821364 L20.1818182,19.2821364 L20.1818182,21.0907728 L18.3636364,21.0907728 L18.3636364,19.2821364 L16.5454546,19.2821364 L16.5454546,17.4630455 L18.3636364,17.4630455 L18.3636364,15.6335 L20.1818182,15.6335 Z M14.4729546,2.90927268 L15.3820455,5.63790906 L19.2725,5.63790906 L20.1815909,6.54790906 L20.1815909,12.9147273 L19.2725,13.8138182 L18.3638637,12.9147273 L18.3638637,7.45699998 L14.0725,7.45699998 L13.1634091,4.72790905 L9.01840908,4.72790905 L8.10931816,7.45699998 L3.8179545,7.45699998 L3.8179545,17.4629091 L13.8184091,17.4629091 L14.7270455,18.362 L13.8184091,19.2824546 L2.90886359,19.2824546 L2.00022722,18.3724546 L2.00022722,6.54790906 L2.90886359,5.63790906 L6.7997727,5.63790906 L7.70886361,2.90927268 L14.4729546,2.90927268 Z M11.0909091,7.4571818 C13.5954546,7.4571818 15.6363637,9.49490908 15.6363637,12.0053636 C15.6363637,14.5112727 13.5954546,16.5535455 11.0909091,16.5535455 C8.58636362,16.5535455 6.54545452,14.5112727 6.54545452,12.0053636 C6.54545452,9.49490908 8.58636362,7.4571818 11.0909091,7.4571818 Z M11.0909091,9.27627271 C9.58636362,9.27627271 8.36363635,10.4999091 8.36363635,12.0053636 C8.36363635,13.5108182 9.58636362,14.734 11.0909091,14.734 C12.5954545,14.734 13.8181818,13.5108182 13.8181818,12.0053636 C13.8181818,10.4999091 12.5954545,9.27627271 11.0909091,9.27627271 Z"></path>
            </g>
        </g>
    </g>
</svg>