<?xml version="1.0" encoding="UTF-8"?>
<svg width="20px" height="13px" viewBox="0 0 20 13" version="1.1" xmlns="http://www.w3.org/2000/svg" xmlns:xlink="http://www.w3.org/1999/xlink">
    <title>card thick</title>
    <defs>
        <path d="M21.0768376,6 L22,6.91632606 L22,18.0841752 L21.0768376,19 L2.92265737,19 L2,18.0841752 L2,6.91632606 L2.92265737,6 L21.0768376,6 Z M20.0026766,11.9902059 L4.02762417,11.9902059 L4.02762417,16.9969153 L20.0026766,16.9969153 L20.0026766,11.9902059 Z M16.2470015,14.4935606 L16.2470015,14.4940618 L16.8100901,14.4940618 L16.8100901,14.4935606 L18.0387849,14.4935606 L18.8574098,15.2489782 L18.0387849,16.0043958 L16.8100901,16.0043958 L16.8100901,16.0033932 L16.2470015,16.0033932 L16.2470015,16.0043958 L15.0183067,16.0043958 L14.1996818,15.2489782 L15.0183067,14.4935606 L16.2470015,14.4935606 Z M20.0026766,7.99757075 L4.03267429,7.99757075 L4.03267429,10.021709 L20.0026766,9.96707026 L20.0026766,7.99757075 Z" id="path-1"></path>
    </defs>
    <g id="Icons" stroke="none" stroke-width="1" fill="none" fill-rule="evenodd">
        <g id="Icons-[All-Platforms]" transform="translate(-779.000000, -282.000000)">
            <g id="Group" transform="translate(777.000000, 276.000000)">
                <mask id="mask-2" fill="white">
                    <use xlink:href="#path-1"></use>
                </mask>
                <use id="Combined-Shape"  xlink:href="#path-1"></use>
            </g>
        </g>
    </g>
</svg>