<?xml version="1.0" encoding="UTF-8"?>
<svg width="20px" height="20px" viewBox="0 0 20 20" version="1.1" xmlns="http://www.w3.org/2000/svg" xmlns:xlink="http://www.w3.org/1999/xlink">
    <title>chevronleftandroid thick copy 2</title>
    <g id="Icons" stroke="none" stroke-width="1" fill="none" fill-rule="evenodd">
        <g id="Icons-[All-Platforms]" transform="translate(-1201.000000, -1266.000000)" fill="#62656E">
            <g id="thick" transform="translate(1199.000000, 1264.000000)">
                <path d="M2.99999995,1.99999995 L1.99999995,2.99999995 L1.99999995,20.9999999 L2.99999995,21.9999999 L20.9999999,21.9999999 L21.9999999,20.9999999 L21.9999999,15.9999999 L20.9999999,14.9995 L19.9999999,15.9999999 L19.9999999,19.9999999 L3.99999995,19.9999999 L3.99999995,3.99999995 L19.9999999,3.99999995 L19.9999999,7.99999995 L20.9999999,8.99949998 L21.9999999,7.99999995 L21.9999999,2.99999995 L20.9999999,1.99999995 L2.99999995,1.99999995 Z M11.586,6.99999997 L7.29299998,11.293 L7.29299998,12.707 L11.586,17 L13,17 L13,15.586 L10.414,13 L18.0005,13 L19,12 L18.0005,11 L10.414,11 L13,8.41399998 L13,6.99999997 L11.586,6.99999997 Z"></path>
            </g>
        </g>
    </g>
</svg>