<?xml version="1.0" encoding="UTF-8"?>
<svg width="20px" height="20px" viewBox="0 0 20 20" version="1.1" xmlns="http://www.w3.org/2000/svg" xmlns:xlink="http://www.w3.org/1999/xlink">
    <title>condition thick</title>
    <g id="Icons" stroke="none" stroke-width="1" fill="none" fill-rule="evenodd">
        <g id="Icons-[All-Platforms]" transform="translate(-918.000000, -182.000000)" fill="#62656E">
            <g id="Icons_basic_bathroom" transform="translate(916.000000, 180.000000)">
                <path d="M11.1755383,2.90909086 L8.71740429,8.65686828 L6.61722485,8.65686828 L3.02915666,8.65686828 L2.45454541,10.2461818 L7.38875596,14.3668906 L6.78050236,16.5000585 L5.75508371,20.0957903 L7.11513156,21.0909091 L12.0004485,17.8277825 L13.5210826,18.8435767 L16.885317,21.0909091 L18.2458134,20.0957903 L17.2203948,16.5000585 L16.6116926,14.3668906 L21.5454546,10.2461818 L20.9717405,8.65686828 L17.3827751,8.65686828 L15.2834928,8.65686828 L12.8244617,2.90909086 L11.1755383,2.90909086 Z M12.0004485,5.5452118 L12.9056519,7.66264841 L13.6901914,9.49647168 L13.8669258,9.90998084 L14.1001795,10.4551837 L14.6913876,10.4551837 L17.3827751,10.4551837 L18.4934211,10.4551837 L17.2576257,11.4871587 L14.5653409,13.7344912 L14.725927,14.2976726 L15.8495814,18.2381454 L12.4974581,15.9993527 L12.0004485,15.667197 L11.5025419,15.9993527 L10.0267643,16.9850328 L9.25971889,17.497874 L8.15041864,18.2381454 L9.27407295,14.2976726 L9.43465908,13.7344912 L6.7432715,11.4871587 L5.50657891,10.4551837 L6.61722485,10.4551837 L9.30861242,10.4551837 L9.90026913,10.4551837 L10.1335227,9.90998084 L10.3102572,9.49647168 L11.0947966,7.66264841 L11.0943481,7.66264841 L12.0004485,5.5452118 Z"></path>
            </g>
        </g>
    </g>
</svg>