<?xml version="1.0" encoding="UTF-8"?>
<svg width="16px" height="18px" viewBox="0 0 16 18" version="1.1" xmlns="http://www.w3.org/2000/svg" xmlns:xlink="http://www.w3.org/1999/xlink">
    <title>copy thick</title>
    <defs>
        <path d="M14.4876695,3.24999996 L15.3333334,4.08333329 L18.5150145,4.08333329 L19.5,5.20225942 L19.5,20.016495 L18.5150145,20.75 L5.44405517,20.75 L4.49999996,20.016495 L4.49999996,5.20225942 L5.44405517,4.08333329 L8.68999996,4.08299996 L9.5110735,3.24999996 L14.4876695,3.24999996 Z M17.6603899,5.73228126 L15.333,5.73199996 L15.3333334,5.74662228 L14.5,6.58333331 L9.49999999,6.58333331 L8.66666665,5.74999996 L8.66599996,5.73199996 L6.39712806,5.73228126 L6.39712806,19.129862 L17.6603899,19.129862 L17.6603899,5.73228126 Z M15.3333334,15.3333334 L15.3333334,17 L8.66666665,17 L8.66666665,15.3333334 L15.3333334,15.3333334 Z M15.3333334,12 L15.3333334,13.6666667 L8.66666665,13.6666667 L8.66666665,12 L15.3333334,12 Z M15.3333334,8.66666665 L15.3333334,10.3333333 L8.66666665,10.3333333 L8.66666665,8.66666665 L15.3333334,8.66666665 Z" id="path-1"></path>
    </defs>
    <g id="Icons" stroke="none" stroke-width="1" fill="none" fill-rule="evenodd">
        <g id="Icons-[All-Platforms]" transform="translate(-1062.000000, -279.000000)">
            <g id="Group" transform="translate(1058.000000, 276.000000)">
                <mask id="mask-2" fill="white">
                    <use xlink:href="#path-1"></use>
                </mask>
                <use id="Combined-Shape" fill="#62656E" xlink:href="#path-1"></use>
            </g>
        </g>
    </g>
</svg>