<?xml version="1.0" encoding="UTF-8"?>
<svg width="18px" height="20px" viewBox="0 0 18 20" version="1.1" xmlns="http://www.w3.org/2000/svg" xmlns:xlink="http://www.w3.org/1999/xlink">
    <title>delete thick</title>
    <g id="Icons" stroke="none" stroke-width="1" fill="none" fill-rule="evenodd">
        <g id="Icons-[All-Platforms]" transform="translate(-1201.000000, -278.000000)" >
            <g id="Icons_basic_delete" transform="translate(1198.000000, 276.000000)">
                <path d="M9.07490789,1.99999995 L8.53016781,2.95980348 L9.07490789,3.96823573 L15.0434712,3.96823573 L15.511093,2.95980348 L15.0434712,1.99999995 L9.07490789,1.99999995 Z M4.41097008,5.24388044 L3.42857139,6.22627913 L4.41097008,7.20867783 L5.34424884,7.20867783 L5.34424884,20.7652886 L6.32713873,21.7481785 L17.7229636,21.7481785 L18.7053623,20.7652886 L18.7053623,7.20867783 L19.5895211,7.20867783 L20.5714286,6.22627913 L19.5895211,5.24388044 L4.41097008,5.24388044 Z M7.30904623,19.7833811 L16.7400737,19.7833811 L16.7400737,7.20867783 L7.30904623,7.20867783 L7.30904623,19.7833811 Z M13.0069587,9.22259516 L13.0069587,17.8185837 L13.9677446,18.5244372 L14.971756,17.8185837 L14.971756,9.22259516 L13.9888662,8.5108473 L13.0069587,9.22259516 Z M9.17560375,9.22259516 L9.17560375,17.8185837 L10.1059353,18.5465412 L11.1404011,17.8185837 L11.1404011,9.22259516 L10.1580024,8.5108473 L9.17560375,9.22259516 Z"></path>
            </g>
        </g>
    </g>
</svg>