<?xml version="1.0" encoding="UTF-8"?>
<svg width="20px" height="18px" viewBox="0 0 20 18" version="1.1" xmlns="http://www.w3.org/2000/svg" xmlns:xlink="http://www.w3.org/1999/xlink">
    <title>delivery thick</title>
    <g id="Icons" stroke="none" stroke-width="1" fill="none" fill-rule="evenodd">
        <g id="Icons-[All-Platforms]" transform="translate(-1341.000000, -279.000000)" fill="#62656E">
            <g id="Icons_basic_delivery" transform="translate(1339.000000, 276.000000)">
                <path d="M20.1818182,15.6354546 L19.87,15.6354546 C19.3581819,14.5631818 18.2659091,13.8181818 17,13.8181818 C15.735,13.8181818 14.6431818,14.5622727 14.1309091,15.6336364 L9.86999999,15.6359091 C9.3581818,14.5631818 8.26590907,13.8181818 6.99999997,13.8181818 C5.73363633,13.8181818 4.6413636,14.5636364 4.12954542,15.6368182 L3.81818178,15.6372727 L3.81818178,5.6363636 L13.8181818,5.6363636 L13.8181818,11.0909091 L14.7272727,12 L18.8181818,12 L20.1818182,12 L20.1818182,12.4545455 L20.1818182,15.6354546 Z M17,18.3636364 C16.2481818,18.3636364 15.6363637,17.7518182 15.6363637,17 C15.6363637,16.2481818 16.2481818,15.6363637 17,15.6363637 C17.7518182,15.6363637 18.3636364,16.2481818 18.3636364,17 C18.3636364,17.7518182 17.7518182,18.3636364 17,18.3636364 L17,18.3636364 Z M6.99999997,18.3636364 C6.24818179,18.3636364 5.6363636,17.7518182 5.6363636,17 C5.6363636,16.2481818 6.24818179,15.6363637 6.99999997,15.6363637 C7.75181816,15.6363637 8.36363635,16.2481818 8.36363635,17 C8.36363635,17.7518182 7.75181816,18.3636364 6.99999997,18.3636364 L6.99999997,18.3636364 Z M17.9090909,7.45454543 L19.9545455,10.1818182 L18.8181819,10.1818182 L15.6363637,10.1818182 L15.6363637,7.45454543 L17.9090909,7.45454543 Z M18.8181819,5.6363636 L15.6363637,5.6363636 L15.6363637,4.72727269 L14.7272727,3.81818178 L2.90909086,3.81818178 L1.99999995,4.72727269 L1.99999995,16.5472728 L2.90999995,17.4563637 L3.85454541,17.4554546 C4.07681814,18.9940909 5.40045451,20.1818182 6.99999995,20.1818182 C8.59999998,20.1818182 9.9240909,18.9936364 10.1454545,17.4540909 L13.8540909,17.4518182 C14.0745455,18.9922728 15.3995455,20.1818182 16.9999999,20.1818182 C18.6,20.1818182 19.9240909,18.9936364 20.1454546,17.4536364 L21.0913637,17.4531818 L21.9999999,16.5440909 L21.9999999,12.4545455 L21.9999999,11.0909091 L21.9999999,9.87863635 L18.8181819,5.6363636 Z"></path>
            </g>
        </g>
    </g>
</svg>