<?xml version="1.0" encoding="UTF-8"?>
<svg width="20px" height="20px" viewBox="0 0 20 20" version="1.1" xmlns="http://www.w3.org/2000/svg" xmlns:xlink="http://www.w3.org/1999/xlink">
    <title>edit thick</title>
    <g id="Icons" stroke="none" stroke-width="1" fill="none" fill-rule="evenodd">
        <g id="Icons-[All-Platforms]" transform="translate(-499.000000, -374.000000)" >
            <g id="Icons_basic_edit" transform="translate(497.000000, 372.000000)">
                <path d="M19.2729255,1.99999995 L17.4720272,3.81251064 L20.1982297,6.55648605 L22.0000001,4.74397535 L22.0000001,3.95094851 L20.0604369,1.99999995 L19.2729255,1.99999995 Z M4.54480439,4.17313276 L1.99999995,6.73423344 L1.99999995,19.4388994 L4.54480439,22.0000001 L17.1694066,22.0000001 L19.714211,19.4388994 L19.714211,13.0032473 L18.6118694,12.155529 L17.5103998,13.0032473 L17.5103998,18.5185439 L16.2545677,19.7824304 L5.45877117,19.7824304 L4.20293896,18.5185439 L4.20293896,7.65458894 L5.45877117,6.39070242 L10.8562334,6.39070242 L11.5731043,5.39258243 L10.8562334,4.17313276 L4.54480439,4.17313276 Z M7.24920418,14.1013502 L7.24920418,16.844471 L9.97540661,16.844471 L19.3723456,7.3871133 L16.645271,4.64399245 L7.24920418,14.1013502 Z"></path>
            </g>
        </g>
    </g>
</svg>