<?xml version="1.0" encoding="UTF-8"?>
<svg width="20px" height="20px" viewBox="0 0 20 20" version="1.1" xmlns="http://www.w3.org/2000/svg" xmlns:xlink="http://www.w3.org/1999/xlink">
    <title>evening thick</title>
    <defs>
        <path d="M7.16339998,12.0071 C7.00839998,11.4301 6.92939997,10.8391 6.92784705,10.2466 C6.92289997,8.41509998 7.62289998,6.70359997 8.90089998,5.42559997 C8.98639998,5.33909997 9.07589999,5.25459997 9.16739999,5.17309997 C8.92689998,7.78709998 9.86039999,10.3991 11.7289,12.2676 C13.5984,14.1366 16.2079,15.0666 18.8244,14.8301 C18.7424,14.9211 18.6584,15.0101 18.5719,15.0966 C17.5379,16.1306 16.2269,16.7831 14.7694,16.9921 C14.3054,16.0256 13.4149,15.3186 12.3774,15.0946 C12.1529,13.1906 10.5264,11.7271 8.58839998,11.7271 C8.09739998,11.7271 7.61889998,11.8211 7.16339998,12.0071 L7.16339998,12.0071 Z M11.6474,19.9116 L5.23039997,19.9011 C4.57489996,19.9011 4.04239996,19.3681 4.04239996,18.7126 C4.04239996,18.0576 4.57489996,17.5246 5.23039997,17.5246 C5.36339997,17.5246 5.50439997,17.5546 5.65989997,17.6161 L5.81939997,17.6781 L7.03739998,16.4106 L6.96789997,16.2536 C6.86689997,16.0246 6.81589997,15.7856 6.81589997,15.5421 C6.81589997,14.5651 7.61139998,13.7696 8.58839998,13.7696 C9.56589999,13.7696 10.3609,14.5651 10.3609,15.5421 C10.3609,15.6611 10.3489,15.7806 10.3244,15.8986 L10.2989,16.0281 L11.3334,17.1321 L11.4639,17.1146 C11.5399,17.1036 11.6134,17.0871 11.7149,17.0601 C12.4664,17.0966 13.0724,17.7281 13.0724,18.4856 C13.0724,19.2711 12.4334,19.9111 11.6474,19.9116 L11.6474,19.9116 Z M20.7599,12.2531 L20.6029,12.3166 C18.0384,13.3561 15.1214,12.7716 13.1734,10.8241 C11.2254,8.87609998 10.6394,5.95909997 11.6804,3.39359996 L11.7444,3.23709996 L10.5074,1.99959995 L10.3509,2.06359995 C9.25989999,2.50609995 8.28639998,3.15109996 7.45639998,3.98109996 C5.79239997,5.64559997 4.87939996,7.87259998 4.88589996,10.2526 C4.88939996,11.3251 5.08139997,12.3736 5.45739997,13.3721 C5.01489997,14.0071 4.77889996,14.7446 4.77389996,15.5151 C3.19939996,15.7386 1.99989995,17.0986 1.99989995,18.7126 C1.99989995,20.4946 3.44839996,21.9431 5.22839997,21.9431 L11.6464,21.9536 C13.3519,21.9536 14.8194,20.6751 15.0739,19.0076 C16.9664,18.7351 18.6719,17.8846 20.0159,16.5401 C20.8464,15.7096 21.4919,14.7361 21.9339,13.6461 L21.9969,13.4896 L20.7599,12.2531 Z" id="path-1"></path>
    </defs>
    <g id="Icons" stroke="none" stroke-width="1" fill="none" fill-rule="evenodd">
        <g id="Icons-[All-Platforms]" transform="translate(-635.000000, -374.000000)">
            <g id="Group" transform="translate(633.000000, 372.000000)">
                <mask id="mask-2" fill="white">
                    <use xlink:href="#path-1"></use>
                </mask>
                <use id="Combined-Shape" fill="#62656E" xlink:href="#path-1"></use>
            </g>
        </g>
    </g>
</svg>