<?xml version="1.0" encoding="UTF-8"?>
<svg width="20px" height="20px" viewBox="0 0 20 20" version="1.1" xmlns="http://www.w3.org/2000/svg" xmlns:xlink="http://www.w3.org/1999/xlink">
    <title>facebook</title>
    <defs>
        <path d="M12,1.99979995 C17.523,1.99979995 22,6.47679997 22,11.9997999 C22,17.5228 17.523,21.9997999 12,21.9997999 C6.47699997,21.9997999 1.99999995,17.5228 1.99999995,11.9997999 C1.99999995,6.47679997 6.47699997,1.99979995 12,1.99979995 Z M12,3.52979996 C7.32199998,3.52979996 3.52899996,7.32179998 3.52899996,11.9998 C3.52899996,16.6788 7.32199998,20.4708 12,20.4708 C16.678,20.4708 20.471,16.6788 20.471,11.9998 C20.471,7.32179998 16.678,3.52979996 12,3.52979996 Z M14.456,7.05779998 L14.456,8.40779998 L13.019,8.40779998 C12.658,8.40779998 12.344,8.75579998 12.344,9.14879999 L12.344,9.14879999 L12.344,10.6288 L14.455,10.6288 L14.455,11.8908 L12.344,11.8908 L12.344,16.9418 L10.771,16.9418 L10.771,11.8908 L8.92899998,11.8908 L8.92899998,10.6288 L10.771,10.6288 L10.771,8.88679998 C10.771,7.88479998 11.58,7.05779998 12.568,7.05779998 L12.568,7.05779998 L14.456,7.05779998 Z" id="path-1"></path>
    </defs>
    <g id="Icons" stroke="none" stroke-width="1" fill="none" fill-rule="evenodd">
        <g id="Icons-[All-Platforms]" transform="translate(-216.000000, -1640.000000)">
            <g id="Group" transform="translate(214.000000, 1638.000000)">
                <mask id="mask-2" fill="white">
                    <use xlink:href="#path-1"></use>
                </mask>
                <use id="Combined-Shape" fill="#62656E" xlink:href="#path-1"></use>
            </g>
        </g>
    </g>
</svg>