<?xml version="1.0" encoding="UTF-8"?>
<svg width="20px" height="20px" viewBox="0 0 20 20" version="1.1" xmlns="http://www.w3.org/2000/svg" xmlns:xlink="http://www.w3.org/1999/xlink">
    <title>facebook ok thick</title>
    <g id="Icons" stroke="none" stroke-width="1" fill="none" fill-rule="evenodd">
        <g id="Icons-[All-Platforms]" transform="translate(-775.000000, -374.000000)" fill="#62656E">
            <g id="Icons_basic_facebook-ok" transform="translate(773.000000, 372.000000)">
                <path d="M20.6363637,17.9165455 C20.6363637,17.6624546 20.6,17.4174546 20.5318182,17.1815455 C20.3454546,16.5142727 19.9090909,15.952 19.3272728,15.5938182 C18.9136364,15.3438182 18.4272728,15.1942727 17.9090909,15.1942727 C16.4045455,15.1942727 15.1818182,16.4147273 15.1818182,17.9165455 C15.1818182,18.4292728 15.3272727,18.9101819 15.5772727,19.3183637 C15.9272727,19.8992728 16.4909091,20.3392728 17.1590909,20.5297273 C17.3954546,20.5979091 17.65,20.6388182 17.9090909,20.6388182 C19.4136364,20.6388182 20.6363637,19.4183637 20.6363637,17.9165455 L20.6363637,17.9165455 Z M13.8181818,17.9165455 C13.8181818,15.6615455 15.65,13.8333636 17.9090909,13.8333636 C18.6045455,13.8333636 19.2636364,14.0097273 19.8363637,14.3138182 C20.0590909,13.5742727 20.1818182,12.7938182 20.1818182,11.9815455 C20.1818182,7.48109089 16.5090909,3.81518178 12,3.81518178 C7.49090907,3.81518178 3.81818178,7.48109089 3.81818178,11.9815455 C3.81818178,16.487 7.49090907,20.1488182 12,20.1488182 C12.7954545,20.1488182 13.5636364,20.0306364 14.2909091,19.8179091 C13.9909091,19.2506364 13.8181818,18.6015455 13.8181818,17.9165455 L13.8181818,17.9165455 Z M21.3045455,15.6388182 C21.7409091,16.2874546 21.9999999,17.0729091 21.9999999,17.9165455 C21.9999999,20.1715455 20.1681819,21.9997272 17.9090909,21.9997272 C17.0545455,21.9997272 16.2636364,21.7365455 15.6045455,21.2924546 C14.4863636,21.7233637 13.2727273,21.9633637 11.9999999,21.9633637 C6.48636361,21.9633637 1.99999995,17.4856364 1.99999995,11.9815455 C1.99999995,6.47836361 6.48636361,1.99972722 11.9999999,1.99972722 C17.5136364,1.99972722 21.9999999,6.47836361 21.9999999,11.9815455 C21.9999999,13.2747273 21.75,14.5042727 21.3045455,15.6388182 L21.3045455,15.6388182 Z M10.4536364,12.4710909 L10.4536364,18.1692728 C10.4536364,18.2460909 10.5177273,18.3233637 10.6077273,18.3233637 L12.7254545,18.3233637 C12.8022727,18.3233637 12.8795455,18.2588182 12.8795455,18.1692728 L12.8795455,12.3683636 L14.4063636,12.3683636 C14.4836364,12.3683636 14.5472727,12.3038182 14.5604546,12.227 L14.6886364,10.4947273 C14.7013636,10.4047273 14.6245455,10.3279091 14.5345455,10.3279091 L12.8663636,10.3279091 L12.8663636,9.09563635 C12.8663636,8.8001818 13.0972727,8.56972726 13.3922727,8.56972726 L14.5731818,8.56972726 C14.6504546,8.56972726 14.7272727,8.5051818 14.7272727,8.41563635 L14.7272727,6.68290906 C14.7272727,6.60563634 14.6627273,6.52881815 14.5731818,6.52881815 L12.5713636,6.52881815 C11.4036364,6.52881815 10.4536364,7.47836361 10.4536364,8.64609089 L10.4536364,10.3279091 L9.40136362,10.3279091 C9.3240909,10.3279091 9.24727271,10.3915454 9.24727271,10.482 L9.24727271,12.227 C9.24727271,12.3038182 9.31136362,12.3810909 9.40136362,12.3810909 L10.4536364,12.3810909 L10.4536364,12.4710909 Z M20.1818182,16.5633637 L20.1818182,17.5274546 L17.9363637,19.7729091 L16.9727273,19.7729091 L15.6363637,18.4365455 L15.6363637,17.4724546 L16.6,17.4724546 L17.3181818,18.1910909 L17.4545455,18.327 L19.2181819,16.5633637 L20.1818182,16.5633637 Z"></path>
            </g>
        </g>
    </g>
</svg>