<?xml version="1.0" encoding="UTF-8"?>
<svg width="20px" height="18px" viewBox="0 0 20 18" version="1.1" xmlns="http://www.w3.org/2000/svg" xmlns:xlink="http://www.w3.org/1999/xlink">
    <title>filter thick</title>
    <g id="Icons" stroke="none" stroke-width="1" fill="none" fill-rule="evenodd">
        <g id="Icons-[All-Platforms]" transform="translate(-916.000000, -375.000000)" fill="#62656E">
            <g id="Icons_basic_filter" transform="translate(914.000000, 372.000000)">
                <path d="M7.99999995,15 C9.30299999,15 10.412,15.837 10.825,17 L10.825,17 L20.9999999,17 L21.9999999,18 L20.9999999,19 L10.825,19 C10.412,20.163 9.30299999,21 7.99999995,21 C6.69699997,21 5.58799997,20.163 5.17499997,19 L5.17499997,19 L2.99999995,19 L1.99999995,18 L2.99999995,17 L5.17499997,17 C5.58799997,15.837 6.69699997,15 7.99999995,15 Z M7.99999997,17 C7.44849998,17 6.99999997,17.4485 6.99999997,18 C6.99999997,18.5515 7.44849998,19 7.99999997,19 C8.55149998,19 8.99999997,18.5515 8.99999997,18 C8.99999997,17.4485 8.55149998,17 7.99999997,17 Z M15.9999999,8.99999999 C17.303,8.99999999 18.412,9.83699999 18.825,11 L18.825,11 L20.9999999,11 L21.9999999,12 L20.9999999,13 L18.825,13 C18.412,14.163 17.303,15 15.9999999,15 C14.697,15 13.588,14.163 13.175,13 L13.175,13 L2.99999995,13 L1.99999995,12 L2.99999995,11 L13.175,11 C13.588,9.83699999 14.697,8.99999999 15.9999999,8.99999999 Z M16,11 C15.4485,11 15,11.4485 15,12 C15,12.5515 15.4485,13 16,13 C16.5515,13 17,12.5515 17,12 C17,11.4485 16.5515,11 16,11 Z M7.99999995,2.99999995 C9.30299999,2.99999995 10.412,3.83699996 10.825,4.99999995 L10.825,4.99999995 L20.9999999,4.99999995 L21.9999999,5.99999995 L20.9999999,6.99999995 L10.825,6.99999995 C10.412,8.16299998 9.30299999,8.99999995 7.99999995,8.99999995 C6.69699997,8.99999995 5.58799997,8.16299998 5.17499997,6.99999995 L5.17499997,6.99999995 L2.99999995,6.99999995 L1.99999995,5.99999995 L2.99999995,4.99999995 L5.17499997,4.99999995 C5.58799997,3.83699996 6.69699997,2.99999995 7.99999995,2.99999995 Z M7.99999997,4.99999996 C7.44849998,4.99999996 6.99999997,5.44849997 6.99999997,5.99999996 C6.99999997,6.55149997 7.44849998,6.99999996 7.99999997,6.99999996 C8.55149998,6.99999996 8.99999997,6.55149997 8.99999997,5.99999996 C8.99999997,5.44849997 8.55149998,4.99999996 7.99999997,4.99999996 Z"></path>
            </g>
        </g>
    </g>
</svg>