<?xml version="1.0" encoding="UTF-8"?>
<svg width="20px" height="20px" viewBox="0 0 20 20" version="1.1" xmlns="http://www.w3.org/2000/svg" xmlns:xlink="http://www.w3.org/1999/xlink">
    <title>gallery thick</title>
    <defs>
        <path d="M13.9026,6.90724997 C13.9026,6.15074997 14.5156,5.53774997 15.2721,5.53774997 C16.0281,5.53774997 16.6411,6.15074997 16.6411,6.90724997 C16.6411,7.66324998 16.0281,8.27624998 15.2721,8.27624998 C14.5156,8.27624998 13.9026,7.66324998 13.9026,6.90724997 L13.9026,6.90724997 Z M4.00009996,20.00025 L4.00009996,14.46075 L8.83009998,11.35525 L12.2626,15.97675 L20.0001,9.98124999 L20.0001,20.00025 L4.00009996,20.00025 Z M20.0001,3.96774996 L20.0001,7.45124998 L12.6511,13.14575 L9.32159999,8.66174998 L4.00009996,12.08325 L4.00009996,3.96774996 L20.0001,3.96774996 Z M20.5631,2.00024995 L3.43659996,2.00024995 L2.00009995,3.43674996 L2.00009995,20.56325 L3.43659996,22.0002499 L20.5636,22.0002499 L22.0001,20.56325 L22.0001,3.43674996 L20.5631,2.00024995 Z" id="path-1"></path>
    </defs>
    <g id="Icons" stroke="none" stroke-width="1" fill="none" fill-rule="evenodd">
        <g id="Icons-[All-Platforms]" transform="translate(-1339.000000, -374.000000)">
            <g id="Group" transform="translate(1337.000000, 372.000000)">
                <mask id="mask-2" fill="white">
                    <use xlink:href="#path-1"></use>
                </mask>
                <use id="Combined-Shape" fill="#62656E" xlink:href="#path-1"></use>
            </g>
        </g>
    </g>
</svg>