<?xml version="1.0" encoding="UTF-8"?>
<svg width="20px" height="20px" viewBox="0 0 20 20" version="1.1" xmlns="http://www.w3.org/2000/svg" xmlns:xlink="http://www.w3.org/1999/xlink">
    <title>good offer thick</title>
    <g id="Icons" stroke="none" stroke-width="1" fill="none" fill-rule="evenodd">
        <g id="Icons-[All-Platforms]" transform="translate(-77.000000, -478.000000)" fill="#62656E">
            <g id="Icons_basic_good-offer" transform="translate(75.000000, 476.000000)">
                <path d="M9.22271564,1.99999995 L7.63369665,2.94942512 L7.63369665,7.12927077 L6.19755077,10.7364387 L3.07657107,10.7364387 L1.99999995,11.8154045 L1.99999995,20.9204945 L3.07657107,21.9999999 L16.9228907,21.9999999 L17.9241017,21.3182923 L21.9999999,11.0154909 L20.9987889,9.53818749 L13.2049522,9.53818749 L13.2049522,4.80563499 L12.640829,3.85674957 L9.22271564,1.99999995 Z M7.91683486,12.2229179 L9.70986407,7.73703242 L9.7868389,7.3370756 L9.7868389,4.76191501 L11.05181,5.44902031 L11.05181,10.6176931 L12.1283811,11.6971987 L19.4129996,11.6971987 L16.1918989,19.8409889 L7.91683486,19.8409889 L7.91683486,12.2229179 Z M4.15260392,19.8409889 L5.76315433,19.8409889 L5.76315433,12.8954499 L4.15260392,12.8954499 L4.15260392,19.8409889 Z"></path>
            </g>
        </g>
    </g>
</svg>