<?xml version="1.0" encoding="UTF-8"?>
<svg width="20px" height="20px" viewBox="0 0 20 20" version="1.1" xmlns="http://www.w3.org/2000/svg" xmlns:xlink="http://www.w3.org/1999/xlink">
    <title>google ok thick</title>
    <g id="Icons" stroke="none" stroke-width="1" fill="none" fill-rule="evenodd">
        <g id="Icons-[All-Platforms]" transform="translate(-215.000000, -478.000000)" fill="#62656E">
            <g id="Icons_basic_google-ok" transform="translate(213.000000, 476.000000)">
                <path d="M20.6363637,17.9184091 C20.6363637,17.6634091 20.6,17.4179546 20.5318182,17.1820455 C20.3454546,16.5134091 19.9090909,15.9502273 19.3272728,15.5956818 C18.9136364,15.3456818 18.4272728,15.1956818 17.9090909,15.1956818 C16.4045455,15.1956818 15.1818182,16.4134091 15.1818182,17.9184091 C15.1818182,18.4270455 15.3272727,18.9093182 15.5772727,19.3179546 C15.9272727,19.8997728 16.4909091,20.3406819 17.1590909,20.5320455 C17.3954546,20.5997728 17.65,20.6406819 17.9090909,20.6406819 C19.4136364,20.6406819 20.6363637,19.4184091 20.6363637,17.9184091 L20.6363637,17.9184091 Z M13.8181818,17.9184091 C13.8181818,15.6634091 15.65,13.8320455 17.9090909,13.8320455 C18.6045455,13.8320455 19.2636364,14.0088636 19.8363637,14.3134091 C20.0590909,13.5725 20.1818182,12.7952273 20.1818182,11.9815909 C20.1818182,7.48159089 16.5090909,3.8138636 12,3.8138636 C7.49090907,3.8138636 3.81818178,7.48159089 3.81818178,11.9815909 C3.81818178,16.4865909 7.49090907,20.1497728 12,20.1497728 C12.7954545,20.1497728 13.5636364,20.0315909 14.2909091,19.8184091 C13.9909091,19.2502273 13.8181818,18.6002273 13.8181818,17.9184091 L13.8181818,17.9184091 Z M21.3045455,15.6406818 C21.7409091,16.2861364 21.9999999,17.0729546 21.9999999,17.9184091 C21.9999999,20.1729546 20.1681819,21.9997727 17.9090909,21.9997727 C17.0545455,21.9997727 16.2636364,21.7361364 15.6045455,21.2911364 C14.4863636,21.7225 13.2727273,21.9634091 11.9999999,21.9634091 C6.48636361,21.9634091 1.99999995,17.4865909 1.99999995,11.9815909 C1.99999995,6.47704543 6.48636361,1.99977268 11.9999999,1.99977268 C17.5136364,1.99977268 21.9999999,6.47704543 21.9999999,11.9815909 C21.9999999,13.2725 21.75,14.5043182 21.3045455,15.6406818 L21.3045455,15.6406818 Z M17.4545455,18.3134091 L17.3181818,18.1815909 L16.6,17.4638637 L15.6363637,17.4638637 L15.6363637,18.4225 L16.9727273,19.7593182 L17.9363637,19.7593182 L20.1818182,17.5179546 L20.1818182,16.5547728 L19.2181819,16.5547728 L17.4545455,18.3134091 Z M15.6363637,11.7406818 C15.6363637,14.1225 14.0409091,15.8134091 11.6272727,15.8134091 C9.32272726,15.8134091 7.45454543,13.9502273 7.45454543,11.6502273 C7.45454543,9.3456818 9.32272726,7.48159089 11.6272727,7.48159089 C12.7545455,7.48159089 13.7,7.89522725 14.4227273,8.56840907 L13.2454546,9.74113635 L13.2454546,9.7365909 C12.8045455,9.32295453 12.25,9.10886362 11.6272727,9.10886362 C10.25,9.10886362 9.13181817,10.2684091 9.13181817,11.6452273 C9.13181817,13.0184091 10.25,14.1815909 11.6272727,14.1815909 C12.8772727,14.1815909 13.7272727,13.4729546 13.9045455,12.4911364 L11.6272727,12.4911364 L11.6272727,10.8679545 L15.5545455,10.8679545 C15.6090909,11.1456818 15.6363637,11.4361364 15.6363637,11.7406818 L15.6363637,11.7406818 Z"></path>
            </g>
        </g>
    </g>
</svg>