<?xml version="1.0" encoding="UTF-8"?>
<svg width="20px" height="20px" viewBox="0 0 20 20" version="1.1" xmlns="http://www.w3.org/2000/svg" xmlns:xlink="http://www.w3.org/1999/xlink">
    <title>google</title>
    <defs>
        <path d="M11.9994999,1.99969995 C17.5225,1.99969995 21.9994999,6.47669997 21.9994999,11.9997 C21.9994999,17.5227 17.5225,21.9997 11.9994999,21.9997 C6.47749997,21.9997 1.99949995,17.5227 1.99949995,11.9997 C1.99949995,6.47669997 6.47749997,1.99969995 11.9994999,1.99969995 Z M11.9995,3.52969996 C7.32149998,3.52969996 3.52849996,7.32169998 3.52849996,11.9997 C3.52849996,16.6787 7.32149998,20.4707 11.9995,20.4707 C16.6785,20.4707 20.4705,16.6787 20.4705,11.9997 C20.4705,7.32169998 16.6785,3.52969996 11.9995,3.52969996 Z M12.0884,7.63109998 C13.1914,7.58009998 14.2264,8.05109998 15.0694,8.70909998 C14.7084,9.11009999 14.3364,9.49709999 13.9364,9.85809999 C12.9234,9.17109999 11.4814,8.97409998 10.4684,9.76909999 C9.01839999,10.7511 8.95039998,13.0731 10.3464,14.1321 C11.7024,15.3401 14.2674,14.7401 14.6444,12.8931 C13.7934,12.8801 12.9414,12.8931 12.0924,12.8661 C12.0884,12.3671 12.0874,11.8711 12.0884,11.3741 C13.5084,11.3691 14.9304,11.3671 16.3534,11.3781 C16.4384,12.5481 16.2794,13.7911 15.5484,14.7591 C14.4394,16.2891 12.2114,16.7361 10.4724,16.0791 C8.72839998,15.4301 7.49039998,13.6231 7.63839998,11.7801 C7.67739998,9.52709999 9.79139999,7.55409998 12.0884,7.63109998 Z" id="path-1"></path>
    </defs>
    <g id="Icons" stroke="none" stroke-width="1" fill="none" fill-rule="evenodd">
        <g id="Icons-[All-Platforms]" transform="translate(-357.000000, -1640.000000)">
            <g id="Group" transform="translate(355.000000, 1638.000000)">
                <mask id="mask-2" fill="white">
                    <use xlink:href="#path-1"></use>
                </mask>
                <use id="Combined-Shape"  xlink:href="#path-1"></use>
            </g>
        </g>
    </g>
</svg>