<?xml version="1.0" encoding="UTF-8"?>
<svg width="14px" height="20px" viewBox="0 0 14 20" version="1.1" xmlns="http://www.w3.org/2000/svg" xmlns:xlink="http://www.w3.org/1999/xlink">
    <title>great offer thick</title>
    <g id="Icons" stroke="none" stroke-width="1" fill="none" fill-rule="evenodd">
        <g id="Icons-[All-Platforms]" transform="translate(-358.000000, -478.000000)" >
            <g id="Icons_basic_great-offer" transform="translate(353.000000, 476.000000)">
                <path d="M10.2025377,20.5569292 L16.7817242,20.5569292 L16.7817242,18.8853721 L10.2025377,18.8853721 L10.2025377,20.5569292 Z M9.18085192,12.5570253 L10.3364137,11.9552648 C10.5961803,12.080331 10.9813676,12.264563 11.3383704,12.4319592 L11.3576298,13.6109481 L10.522431,13.9370821 C10.2180391,13.7523691 9.83660976,13.4772235 9.61207377,13.3088652 L9.18085192,12.5570253 Z M7.57762732,13.5431238 L7.96281459,13.28289 L8.54059551,14.2911155 L8.65380298,14.3776997 C8.75150902,14.4532205 9.62381728,15.1199192 10.1767019,15.3830392 L10.446333,15.5119534 L12.7832924,14.5980086 L12.731621,11.4939631 L12.3238861,11.3063639 C11.6737652,11.0066862 10.6257739,10.5001684 10.6248345,10.4996873 L10.312457,10.3481649 L8.46543701,11.3102121 L8.42503932,11.2404637 L8.31746873,11.3135793 L7.98348318,10.9253932 L9.98880571,9.24277261 L12.1524308,10.1850979 L15.060125,11.4516331 L15.0587158,10.4400404 L15.0587158,10.3601905 C15.0587158,10.2923661 15.0587158,8.02626387 15.0544881,6.97667033 L15.0544881,6.9434797 L15.0540184,6.73086726 L14.9426899,6.58511711 L13.7481396,4.27668474 L13.8881223,3.78748372 L14.4339608,3.78748372 L16.3368799,7.00601277 L16.3368799,16.8843138 L10.399359,16.8843138 C9.98880571,16.6178268 8.7848606,15.7649719 8.40577996,15.4729906 L7.57762732,13.5431238 Z M10.2753475,3.44307081 L10.7587105,3.44307081 L13.6457361,7.22872671 L13.6480848,9.26826686 L12.5719092,8.79974985 L12.5719092,7.18687765 L12.5719092,7.18014332 L12.4432002,7.0026456 L10.1170449,3.67973443 L10.2753475,3.44307081 Z M11.1626874,8.18596371 L10.4242552,7.86463993 L10.3298374,7.8232719 L9.27057237,6.31333875 L9.27902769,5.77026309 L9.72809969,5.68175474 L11.1626874,7.65779978 L11.1626874,8.18596371 Z M17.7461016,17.7049401 L17.7461016,6.60291497 L15.2287619,2.34441286 L12.8330849,2.34441286 L12.5263443,3.41613349 L11.445941,1.99999995 L9.53315735,1.99999995 L8.39591541,3.69849436 L8.8727021,4.38010483 L7.88812584,4.5729953 L7.85430452,6.76790608 L8.91403927,8.27976331 L5.9603105,10.757035 L7.13043429,12.1164077 L5.80952378,13.0096686 L7.18257549,16.2084756 L7.18868212,16.2055895 C7.38268498,16.5148877 8.3414255,17.2301698 9.13528708,17.7448651 L8.79331594,18.0921641 L8.79331594,21.2784646 L9.49792681,21.9999999 L17.4858654,21.9999999 L18.1904762,21.2784646 L18.1904762,18.1638367 L17.7461016,17.7049401 Z"></path>
            </g>
        </g>
    </g>
</svg>