<?xml version="1.0" encoding="UTF-8"?>
<svg width="20px" height="20px" viewBox="0 0 20 20" version="1.1" xmlns="http://www.w3.org/2000/svg" xmlns:xlink="http://www.w3.org/1999/xlink">
    <title>grid thick</title>
    <g id="Icons" stroke="none" stroke-width="1" fill="none" fill-rule="evenodd">
        <g id="Icons-[All-Platforms]" transform="translate(-496.000000, -478.000000)" >
            <g id="Icons_basic_grid" transform="translate(494.000000, 476.000000)">
                <path d="M9.99989995,13 L10.9998999,14 L10.9998999,21 L9.99989995,22 L2.99989995,22 L1.99989995,21 L1.99989995,14 L2.99989995,13 L9.99989995,13 Z M17.5,13 C19.981,13 22,15.0185 22,17.5 C22,19.9815 19.981,22 17.5,22 C15.019,22 13,19.9815 13,17.5 C13,15.0185 15.019,13 17.5,13 Z M9.00039999,15 L3.99989996,15 L3.99989996,20.0005 L9.00039999,20.0005 L9.00039999,15 Z M17.5,15 C16.1215,15 15,16.1215 15,17.5 C15,18.8785 16.1215,20 17.5,20 C18.8785,20 20,18.8785 20,17.5 C20,16.1215 18.8785,15 17.5,15 Z M9.99989995,2.00019995 L10.9998999,3.00019995 L10.9998999,9.99969999 L9.99989995,11.0002 L2.99989995,11.0002 L1.99989995,9.99969999 L1.99989995,3.00019995 L2.99989995,2.00019995 L9.99989995,2.00019995 Z M20.99965,2.00019995 L21.99965,3.00019995 L21.99965,9.99969999 L20.99965,11.0002 L14.00015,11.0002 L12.99965,9.99969999 L12.99965,3.00019995 L14.00015,2.00019995 L20.99965,2.00019995 Z M9.00039999,4.00019996 L3.99989996,4.00019996 L3.99989996,9.00019996 L9.00039999,9.00019996 L9.00039999,4.00019996 Z M20.00015,4.00019996 L15.00015,4.00019996 L15.00015,9.00019996 L20.00015,9.00019996 L20.00015,4.00019996 Z"></path>
            </g>
        </g>
    </g>
</svg>