<?xml version="1.0" encoding="UTF-8"?>
<svg width="19px" height="16px" viewBox="0 0 19 16" version="1.1" xmlns="http://www.w3.org/2000/svg" xmlns:xlink="http://www.w3.org/1999/xlink">
    <title>hide thick</title>
    <defs>
        <path d="M15.892748,15.3767195 C16.5183171,14.5369634 16.8939269,13.5000122 16.8939269,12.3745244 C16.8939269,11.2977764 16.5514065,10.3010691 15.9741301,9.48143495 C17.768561,10.2420447 18.7196585,11.3026951 19.0371383,11.7109472 L19.0465285,12.8587927 C18.732626,13.2974513 17.7184797,14.5468008 15.892748,15.3767195 L15.892748,15.3767195 Z M4.65888614,12.8225732 L4.65888614,11.7753374 C5.03807313,11.3568008 6.08262599,10.321191 7.67896746,9.55432113 C7.133439,10.3596463 6.81372355,11.3304187 6.81372355,12.3745244 C6.81372355,13.4266788 7.13880485,14.4037114 7.6923821,15.2126138 C5.92299184,14.3786708 4.96339834,13.2344024 4.65888614,12.8225732 L4.65888614,12.8225732 Z M8.60234145,12.3745244 C8.60234145,10.581435 10.0609593,9.12326421 11.8540487,9.12326421 C12.3530732,9.12326421 12.824374,9.23952438 13.2473821,9.4416382 L8.99986178,13.9306219 C8.74677234,13.4678171 8.60234145,12.937939 8.60234145,12.3745244 L8.60234145,12.3745244 Z M15.1053089,12.3745244 C15.1053089,14.1676138 13.6466911,15.6262317 11.8540487,15.6262317 C11.2736422,15.6262317 10.7299024,15.4715163 10.2572602,15.2036708 L14.590187,10.6252561 C14.914374,11.1309878 15.1053089,11.7306219 15.1053089,12.3745244 L15.1053089,12.3745244 Z M20.8217317,11.1976138 L20.718439,11.0039959 C20.7045773,10.9776138 19.6394553,9.23460568 17.0607154,8.01521543 L18.8609594,6.11257314 L18.7800245,4.91956501 L17.5637643,4.88021541 L15.2372195,7.33867071 C14.2668943,7.06948372 13.1566098,6.88570322 11.8813252,6.85574387 C6.19888615,6.71712599 3.04018695,10.9239553 3.01291052,10.9668821 L2.87026825,11.1877764 L2.87026825,13.2750935 L2.94226012,13.4432236 C2.95433329,13.4713943 4.00291053,15.2841585 6.47165038,16.6014756 L5.12571542,18.023874 L5.26299183,19.1466789 L6.42291054,19.2562317 L8.23165039,17.3441992 C9.26904877,17.6818009 10.4660813,17.9156626 11.8594147,17.9456219 C11.950187,17.9474106 12.0387236,17.9483049 12.1277073,17.9483049 C18.1361219,17.9483049 20.7282765,13.551435 20.7497399,13.5058252 L20.8391708,13.3193618 L20.8217317,11.1976138 Z" id="path-1"></path>
    </defs>
    <g id="Icons" stroke="none" stroke-width="1" fill="none" fill-rule="evenodd">
        <g id="Icons-[All-Platforms]" transform="translate(-636.000000, -480.000000)">
            <g id="Group" transform="translate(634.000000, 476.000000)">
                <mask id="mask-2" fill="white">
                    <use xlink:href="#path-1"></use>
                </mask>
                <use id="Combined-Shape"  xlink:href="#path-1"></use>
            </g>
        </g>
    </g>
</svg>