<?xml version="1.0" encoding="UTF-8"?>
<svg width="19px" height="20px" viewBox="0 0 19 20" version="1.1" xmlns="http://www.w3.org/2000/svg" xmlns:xlink="http://www.w3.org/1999/xlink">
    <title>hot thick</title>
    <g id="Icons" stroke="none" stroke-width="1" fill="none" fill-rule="evenodd">
        <g id="Icons-[All-Platforms]" transform="translate(-918.000000, -478.000000)" fill="#62656E">
            <g id="Icons_basic_hot" transform="translate(916.000000, 476.000000)">
                <path d="M7.10295236,7.5050476 C7.08295236,7.5250476 7.06247617,7.54552379 7.04199998,7.56647617 C6.16104759,8.46552379 5.51914282,9.64457142 5.1853333,10.9779048 C4.61866663,13.2379048 4.79866663,15.346 5.67914283,16.7621905 C5.9605714,17.2145715 6.3058095,17.6402857 6.70533331,18.0279048 C7.17009521,18.4788572 7.69771426,18.8698096 8.27390474,19.1907619 C8.37295236,19.246 8.47342855,19.2988572 8.57533332,19.3493334 C8.58723808,19.2293334 8.60438094,19.1069524 8.62819046,18.9840953 C8.74533332,18.3798096 8.97199998,17.8021905 9.30199999,17.266 C9.51961904,16.9126667 9.78342856,16.5793334 10.0858095,16.2740953 C10.2315238,16.1279048 10.3881905,15.9855238 10.5515238,15.8521905 C10.9300952,15.5340953 11.4734286,15.0764762 12.0962857,15.4955238 C12.4672381,15.7431429 12.8039048,16.0193334 13.0934286,16.3150476 C13.6434286,16.876 14.0681905,17.5636191 14.3205714,18.3036191 C14.4100953,18.5655238 14.4753333,18.8369524 14.5167619,19.1150477 C14.5424762,19.0974286 14.5681905,19.0798096 14.5934286,19.0617143 C15.5648572,18.3821905 16.3458095,17.7121905 16.9800953,17.0126667 C17.7472381,16.1669524 18.0867619,15.488381 18.1915238,14.5931429 C18.3081905,13.5907619 18.2067619,12.5612381 17.8977143,11.6150476 C17.6172381,10.756 17.152,9.93409523 16.5529524,9.23695237 C16.3496191,9.00076189 16.1305714,8.78552379 15.8991429,8.55742855 C15.4272381,8.09361903 14.9396191,7.61361903 14.5491429,6.92314283 C14.1448572,6.20838092 13.8472381,5.40695235 13.662,4.53647615 C13.5539048,4.61171425 13.4505714,4.69076187 13.3539048,4.77647615 C12.362,5.6545714 11.7077143,6.84552378 11.5110476,8.13171427 C11.442,8.58552379 11.4715238,9.05457141 11.5024762,9.55123808 C11.5215238,9.86076189 11.542,10.1807619 11.5400952,10.5179048 C11.5381905,10.8650476 11.3481905,11.183619 11.0434286,11.3493333 C10.739619,11.5155238 10.3686667,11.5026667 10.0758095,11.3164762 L9.98866666,11.2621905 C9.87057142,11.1902857 9.72438094,11.0998095 9.58342856,10.9831429 C8.90723808,10.4255238 7.97247617,9.49361904 7.37199998,8.23219046 C7.25390474,7.98457141 7.16914283,7.74123807 7.10295236,7.5050476 L7.10295236,7.5050476 Z M13.6867619,21.710762 C13.4781905,21.710762 13.274381,21.6521905 13.0981905,21.5374286 C13.0891429,21.5312381 13.0810476,21.5255239 13.072,21.5193334 C12.834381,21.3521905 12.672,21.0869524 12.6267619,20.7917143 C12.5900952,20.5464762 12.622,20.3379048 12.6448571,20.1864762 C12.6491429,20.1555239 12.6548571,20.1250477 12.6572381,20.0969524 C12.6662857,19.9545715 12.6677143,19.8145715 12.6610476,19.6755238 C12.6477143,19.4117143 12.5991429,19.1574286 12.5181905,18.9188572 C12.3567619,18.4469524 12.0858095,18.0079048 11.7339048,17.6488572 C11.6810476,17.5955238 11.6258095,17.5421905 11.5686667,17.4902857 C11.5239048,17.5312381 11.4800952,17.5731429 11.4377143,17.6164762 C11.2381905,17.8169524 11.0648571,18.0355238 10.9239048,18.2650477 C10.7143809,18.6050477 10.5715238,18.968381 10.4986667,19.3450477 C10.4372381,19.6621905 10.4505714,20.0026667 10.4662857,20.3969524 L10.4772381,20.6940953 C10.4848571,20.9669524 10.3753333,21.2298096 10.1762857,21.4164762 C9.97723809,21.6031429 9.70676189,21.6940953 9.43580951,21.6693334 C9.09152379,21.6369524 8.7762857,21.5098096 8.52295236,21.408381 L8.45247617,21.3798096 C8.07390474,21.2293334 7.70199998,21.0521905 7.34723807,20.8545715 C6.6258095,20.4531429 5.96342854,19.9617143 5.37914282,19.3950477 C4.86866663,18.8998096 4.4248571,18.3521905 4.06152377,17.7674286 C2.48580948,15.2331429 2.93104757,12.1355238 3.33723805,10.5150476 C3.75342853,8.85409522 4.56438092,7.37361902 5.68199997,6.23266664 C6.04485711,5.86314283 6.42438092,5.54076187 6.81104759,5.27599997 C6.99819045,5.14647616 7.21247617,5.03599997 7.41247617,4.9640952 C7.66819045,4.87361901 7.9510476,4.89457139 8.18914284,5.02457139 C8.42771427,5.15457139 8.59961903,5.37980949 8.66057141,5.6445714 C8.71199998,5.86361902 8.75152379,6.0793333 8.79009522,6.29314283 C8.86533332,6.71266664 8.93057141,7.07504759 9.09199999,7.41314283 C9.22247618,7.68790474 9.38819046,7.96314284 9.58342856,8.23314284 C9.59342856,8.10599998 9.60819046,7.97599998 9.62819046,7.84457141 C9.89199999,6.11838092 10.7667619,4.52266663 12.0915238,3.35028567 C12.5024762,2.98599995 12.9224762,2.74171424 13.3281905,2.50504757 C13.5172381,2.39552376 13.7072381,2.28504757 13.8939048,2.16076186 L13.894381,2.16076186 C14.3315238,1.86742852 14.9224762,1.98695233 15.2148572,2.42457138 C15.3672381,2.653619 15.4077143,2.92504757 15.3486667,3.173619 C15.3591429,3.26504758 15.3858095,3.44076186 15.4534286,3.77266663 L15.4729524,3.87076186 C15.612,4.65885711 15.8586667,5.3693333 16.2072381,5.98552378 C16.4658095,6.44314283 16.8224762,6.79361902 17.2348572,7.1998095 C17.484381,7.4450476 17.742,7.69838093 17.9967619,7.9950476 C18.7586667,8.88076189 19.3505715,9.92790475 19.7086667,11.023619 C20.1024762,12.2293333 20.232,13.5402857 20.0834286,14.8140953 C19.8929524,16.4450476 19.1210477,17.4874286 18.3910477,18.2926667 C17.6600953,19.098381 16.7748572,19.8607619 15.6848572,20.6226667 C15.4529524,20.7850477 15.2158095,20.9402858 14.9786667,21.0950477 L14.5448572,21.3821905 C14.4596191,21.4426667 14.3429524,21.5250477 14.194381,21.5950477 C14.0296191,21.6721905 13.8567619,21.710762 13.6867619,21.710762 L13.6867619,21.710762 Z"></path>
            </g>
        </g>
    </g>
</svg>