<svg xmlns="http://www.w3.org/2000/svg" xmlns:xlink="http://www.w3.org/1999/xlink" width="24" height="24" viewBox="0 0 24 24">
    <defs>
        <filter id="gp1nn4z4za">
            <feColorMatrix in="SourceGraphic" values="0 0 0 0 0.560784 0 0 0 0 0.568627 0 0 0 0 0.592157 0 0 0 1.000000 0"/>
        </filter>
        <path id="7zbizg7r6b" d="M10 3H5c-1.1 0-2 .9-2 2v14c0 1.1.9 2 2 2h5v2h2V1h-2v2zm0 15H5l5-6v6zm9-15h-5v2h5v13l-5-6v9h5c1.1 0 2-.9 2-2V5c0-1.1-.9-2-2-2z"/>
    </defs>
    <g fill="none" fill-rule="evenodd">
        <g>
            <g filter="url(#gp1nn4z4za)" transform="translate(-1238 -721) translate(432 563)">
                <g transform="translate(806 158)">
                    <mask id="as2p28q84c" fill="#fff">
                        <use xlink:href="#7zbizg7r6b"/>
                    </mask>
                    <g fill="#000" mask="url(#as2p28q84c)">
                        <path d="M0 0H50V50H0z" transform="translate(-13 -13)"/>
                    </g>
                </g>
            </g>
        </g>
    </g>
</svg>
