<?xml version="1.0" encoding="UTF-8"?>
<svg width="18px" height="22px" viewBox="0 0 18 22" version="1.1" xmlns="http://www.w3.org/2000/svg" xmlns:xlink="http://www.w3.org/1999/xlink">
    <title>ic_compare</title>
    <defs>
        <filter color-interpolation-filters="auto" id="filter-1">
            <feColorMatrix in="SourceGraphic" type="matrix" values="0 0 0 0 0.560784 0 0 0 0 0.568627 0 0 0 0 0.592157 0 0 0 1.000000 0"></feColorMatrix>
        </filter>
        <path d="M10,3 L5,3 C3.9,3 3,3.9 3,5 L3,19 C3,20.1 3.9,21 5,21 L10,21 L10,23 L12,23 L12,1 L10,1 L10,3 L10,3 Z M10,18 L5,18 L10,12 L10,18 L10,18 Z M19,3 L14,3 L14,5 L19,5 L19,18 L14,12 L14,21 L19,21 C20.1,21 21,20.1 21,19 L21,5 C21,3.9 20.1,3 19,3 L19,3 Z" id="path-2"></path>
        <rect id="path-4" x="0" y="0" width="50" height="50"></rect>
    </defs>
    <g id="Symbols" stroke="none" stroke-width="1" fill="none" fill-rule="evenodd">
        <g id="Listing-list-card/desktop/rent[constr-1]" transform="translate(-809.000000, -159.000000)">
            <g id="ic_compare" transform="translate(806.000000, 158.000000)" filter="url(#filter-1)">
                <g>
                    <mask id="mask-3" fill="white">
                        <use xlink:href="#path-2"></use>
                    </mask>
                    <g id="Mask"></g>
                    <g id="Group" mask="url(#mask-3)">
                        <g transform="translate(-13.000000, -13.000000)" id="🎨-Color">
                            <mask id="mask-5" fill="white">
                                <use xlink:href="#path-4"></use>
                            </mask>
                            <use id="Black" fill="#000000" xlink:href="#path-4"></use>
                        </g>
                    </g>
                </g>
            </g>
        </g>
    </g>
</svg>