<?xml version="1.0" encoding="UTF-8"?>
<svg width="20px" height="20px" viewBox="0 0 20 20" version="1.1" xmlns="http://www.w3.org/2000/svg" xmlns:xlink="http://www.w3.org/1999/xlink">
    <title>instagram</title>
    <defs>
        <path d="M11.9994999,1.99969995 C17.5225,1.99969995 21.9994999,6.47669997 21.9994999,11.9997 C21.9994999,17.5227 17.5225,21.9997 11.9994999,21.9997 C6.47749997,21.9997 1.99949995,17.5227 1.99949995,11.9997 C1.99949995,6.47669997 6.47749997,1.99969995 11.9994999,1.99969995 Z M11.9995,3.52969996 C7.32149998,3.52969996 3.52849996,7.32169998 3.52849996,11.9997 C3.52849996,16.6787 7.32149998,20.4707 11.9995,20.4707 C16.6785,20.4707 20.4705,16.6787 20.4705,11.9997 C20.4705,7.32169998 16.6785,3.52969996 11.9995,3.52969996 Z M14.5247,6.82609997 C16.1837,6.82609997 17.5337,8.17709998 17.5337,9.83709999 L17.5337,9.83709999 L17.5337,14.1641 C17.5337,15.8231 16.1837,17.1741 14.5247,17.1741 L14.5247,17.1741 L9.47569999,17.1741 C7.81569998,17.1741 6.46669997,15.8231 6.46669997,14.1641 L6.46669997,14.1641 L6.46669997,9.83709999 C6.46669997,8.17709998 7.81569998,6.82609997 9.47569999,6.82609997 L9.47569999,6.82609997 Z M14.5247,7.87009998 L9.47569999,7.87009998 C8.39069998,7.87009998 7.50969998,8.75209998 7.50969998,9.83709999 L7.50969998,9.83709999 L7.50969998,14.1641 C7.50969998,15.2491 8.39069998,16.1311 9.47569999,16.1311 L9.47569999,16.1311 L14.5247,16.1311 C15.6087,16.1311 16.4907,15.2491 16.4907,14.1641 L16.4907,14.1641 L16.4907,9.83709999 C16.4907,8.75209998 15.6087,7.87009998 14.5247,7.87009998 L14.5247,7.87009998 Z M12.0005,9.49799999 C13.4925,9.49799999 14.7065,10.651 14.7065,12.068 C14.7065,13.472 13.5185,14.57 12.0005,14.57 C10.5085,14.57 9.29349999,13.417 9.29349999,12 C9.29349999,10.597 10.4815,9.49799999 12.0005,9.49799999 Z M12.0005,10.427 C11.0205,10.427 10.2235,11.163 10.2235,12.068 C10.2235,12.942 11.0535,13.709 12.0005,13.709 C12.9475,13.709 13.7765,12.942 13.7765,12.068 C13.7765,11.163 12.9795,10.427 12.0005,10.427 Z M14.7857,8.41059998 C15.3317,8.41059998 15.7937,8.87259998 15.7937,9.41859999 C15.7937,9.96459999 15.3317,10.4266 14.7857,10.4266 C14.2397,10.4266 13.7777,9.96459999 13.7777,9.41859999 C13.7777,8.87259998 14.2397,8.41059998 14.7857,8.41059998 Z M14.7857,9.06859999 C14.5827,9.06859999 14.4337,9.21559999 14.4337,9.41859999 C14.4337,9.62259999 14.5827,9.76959999 14.7857,9.76959999 C14.9887,9.76959999 15.1367,9.62259999 15.1367,9.41859999 C15.1367,9.21559999 14.9887,9.06859999 14.7857,9.06859999 Z" id="path-1"></path>
    </defs>
    <g id="Icons" stroke="none" stroke-width="1" fill="none" fill-rule="evenodd">
        <g id="Icons-[All-Platforms]" transform="translate(-1199.000000, -1640.000000)">
            <g id="Group" transform="translate(1197.000000, 1638.000000)">
                <mask id="mask-2" fill="white">
                    <use xlink:href="#path-1"></use>
                </mask>
                <use id="Combined-Shape"  xlink:href="#path-1"></use>
            </g>
        </g>
    </g>
</svg>