<?xml version="1.0" encoding="UTF-8"?>
<svg width="18px" height="17px" viewBox="0 0 18 17" version="1.1" xmlns="http://www.w3.org/2000/svg" xmlns:xlink="http://www.w3.org/1999/xlink">
    <title>jobs thick</title>
    <defs>
        <path d="M8.63819057,3.66666663 L7.00308338,5.10225992 L7.00308338,6.41134325 L5.61102039,6.41134325 L3.66666662,8.36340551 L3.66666662,17.6077013 L5.55978159,19.6645083 L18.3735626,19.6645083 L20.3333334,17.6380818 L20.3333334,8.19472556 L18.2180324,6.41134325 L17.0626655,6.41134325 L17.0626655,6.36645261 L16.9855806,6.36645261 L16.9855806,5.08185508 L15.299688,3.66666663 L8.63819057,3.66666663 Z M8.81639278,5.92344104 L9.32197916,5.48042947 L14.6390249,5.48042947 L15.1718178,5.92797544 L15.1718178,6.41134325 L8.81639278,6.41134325 L8.81639278,5.92344104 Z M5.48042947,9.11248956 L6.36373197,8.22510609 L7.90951135,8.22510609 L8.81639278,8.22510609 L15.2489027,8.22510609 L16.1557841,8.22510609 L17.5555556,8.22510609 L18.5195705,9.03767184 L18.5195705,10.6002285 L5.48042947,10.6002285 L5.48042947,9.11248956 Z M15.6470236,13.648257 L15.6470236,12.4139913 L18.5195705,12.4139913 L18.5195705,16.9048682 L17.6045272,17.850292 L6.35557004,17.850292 L5.48042947,16.8998803 L5.48042947,12.4139913 L8.00201326,12.4139913 L8.00201326,13.648257 L8.61642542,13.9860703 L9.23083758,13.648257 L9.23083758,12.4139913 L14.4181993,12.4139913 L14.4181993,13.648257 L15.0326114,13.9860703 L15.6470236,13.648257 Z" id="path-1"></path>
    </defs>
    <g id="Icons" stroke="none" stroke-width="1" fill="none" fill-rule="evenodd">
        <g id="Icons-[All-Platforms]" transform="translate(-1060.000000, -479.000000)">
            <g id="Group" transform="translate(1057.000000, 476.000000)">
                <mask id="mask-2" fill="white">
                    <use xlink:href="#path-1"></use>
                </mask>
                <use id="Combined-Shape" fill="#62656E" xlink:href="#path-1"></use>
            </g>
        </g>
    </g>
</svg>