<?xml version="1.0" encoding="UTF-8"?>
<svg width="20px" height="20px" viewBox="0 0 20 20" version="1.1" xmlns="http://www.w3.org/2000/svg" xmlns:xlink="http://www.w3.org/1999/xlink">
    <title>like thick</title>
    <g id="Icons" stroke="none" stroke-width="1" fill="none" fill-rule="evenodd">
        <g id="Icons-[All-Platforms]" transform="translate(-1197.000000, -470.000000)" >
            <g id="Icons_basic_like" transform="translate(1195.000000, 468.000000)">
                <path d="M19.4718182,10.5154545 L12,19.6540909 L4.55090905,10.5440909 C4.0713636,9.90727272 3.81818178,9.1531818 3.81818178,8.36363635 C3.81818178,6.35818179 5.44954542,4.72727269 7.45454543,4.72727269 C9.14499999,4.72727269 10.5659091,5.88863633 10.9713636,7.45454543 L13.0286364,7.45454543 C13.4340909,5.88863633 14.8545455,4.72727269 16.5454546,4.72727269 C18.5504546,4.72727269 20.1818182,6.35818179 20.1818182,8.36363635 C20.1818182,9.1531818 19.9286364,9.90727272 19.4718182,10.5154545 M16.5454546,2.90909086 C14.6504546,2.90909086 12.9781818,3.87999996 11.9999999,5.3513636 C11.0218182,3.87999996 9.34954544,2.90909086 7.45454543,2.90909086 C4.44681814,2.90909086 1.99999995,5.35545451 1.99999995,8.36363635 C1.99999995,9.55090908 2.37954541,10.6827273 3.1204545,11.6659091 L10.8259091,21.0909091 L13.1740909,21.0909091 L20.9018182,11.6372727 C21.6204546,10.6827273 21.9999999,9.55090908 21.9999999,8.36363635 C21.9999999,5.35545451 19.5531819,2.90909086 16.5454546,2.90909086"></path>
            </g>
        </g>
    </g>
</svg>