<?xml version="1.0" encoding="UTF-8"?>
<svg width="20px" height="20px" viewBox="0 0 20 20" version="1.1" xmlns="http://www.w3.org/2000/svg" xmlns:xlink="http://www.w3.org/1999/xlink">
    <title>list item thick</title>
    <g id="Icons" stroke="none" stroke-width="1" fill="none" fill-rule="evenodd">
        <g id="Icons-[All-Platforms]" transform="translate(-1338.000000, -470.000000)" >
            <g id="Icons_basic_list-item" transform="translate(1336.000000, 468.000000)">
                <path d="M11.9999999,1.99999995 C17.514,1.99999995 21.9999999,6.48599997 21.9999999,11.9999999 C21.9999999,17.514 17.514,21.9999999 11.9999999,21.9999999 C6.48599997,21.9999999 1.99999995,17.514 1.99999995,11.9999999 C1.99999995,6.48599997 6.48599997,1.99999995 11.9999999,1.99999995 Z M12,3.99999996 C7.58899998,3.99999996 3.99999996,7.58899998 3.99999996,12 C3.99999996,16.411 7.58899998,20 12,20 C16.411,20 20,16.411 20,12 C20,7.58899998 16.411,3.99999996 12,3.99999996 Z M12,6.99999997 L13,7.99999997 L13,11 L16,11 L17,12 L16,13 L13,13 L13,16 L12,17 L11,16 L11,13 L7.99999997,13 L6.99999997,12 L7.99999997,11 L11,11 L11,7.99999997 L12,6.99999997 Z"></path>
            </g>
        </g>
    </g>
</svg>