<?xml version="1.0" encoding="UTF-8"?>
<svg width="18px" height="20px" viewBox="0 0 18 20" version="1.1" xmlns="http://www.w3.org/2000/svg" xmlns:xlink="http://www.w3.org/1999/xlink">
    <title>location pin thick</title>
    <g id="Icons" stroke="none" stroke-width="1" fill="none" fill-rule="evenodd">
        <g id="Icons-[All-Platforms]" transform="translate(-78.000000, -582.000000)" fill="#62656E">
            <g id="Icons_basic_location-pin" transform="translate(75.000000, 580.000000)">
                <path d="M12,2 C16.963,2 21,6.0375 21,11 C21,15.701 15.9655,20.1955 13.672,22 L13.672,22 L10.3285,22 C8.035,20.1955 3,15.701 3,11 C3,6.0375 7.0375,2 12,2 Z M12,4 C8.1405,4 5,7.14 5,11 C5,14.7505 9.6145,18.981 11.995,20.764 C13.7485,19.4345 19,15.108 19,11 C19,7.14 15.86,4 12,4 Z M12.00015,6.99985 C14.20565,6.99985 16.00015,8.79435 16.00015,10.99985 C16.00015,13.20535 14.20565,14.99985 12.00015,14.99985 C9.79465,14.99985 8.00015,13.20535 8.00015,10.99985 C8.00015,8.79435 9.79465,6.99985 12.00015,6.99985 Z M12.00015,8.99985 C10.89715,8.99985 10.00015,9.89685 10.00015,10.99985 C10.00015,12.10285 10.89715,12.99985 12.00015,12.99985 C13.10315,12.99985 14.00015,12.10285 14.00015,10.99985 C14.00015,9.89685 13.10315,8.99985 12.00015,8.99985 Z"></path>
            </g>
        </g>
    </g>
</svg>