<?xml version="1.0" encoding="UTF-8"?>
<svg width="20px" height="20px" viewBox="0 0 20 20" version="1.1" xmlns="http://www.w3.org/2000/svg" xmlns:xlink="http://www.w3.org/1999/xlink">
    <title>make offer thick</title>
    <defs>
        <path d="M9.59677272,19.8564546 L8.37313635,18.2446364 L7.84949998,17.9423637 L5.84131815,17.6882728 L5.58768179,15.6800909 L5.28540906,15.1569091 L3.67359087,13.9332727 L4.45768178,12.0673636 L4.45768178,11.4628182 L3.67359087,9.59736362 L5.28540906,8.37281816 L5.58768179,7.84963634 L5.84131815,5.84145451 L7.84904543,5.58781815 L8.37313635,5.28554542 L9.59677272,3.67327269 L11.4622273,4.45781814 L12.0672273,4.45781814 L13.9326818,3.67327269 L15.1563182,5.28554542 L15.6804091,5.58781815 L17.6885909,5.84145451 L17.9417728,7.8491818 L18.2440455,8.37281816 L19.8563182,9.59736362 L19.0722273,11.4628182 L19.0722273,12.0673636 L19.8563182,13.9332727 L18.2440455,15.1569091 L17.9417728,15.6805455 L17.6885909,17.6882728 L15.6799546,17.9423637 L15.1563182,18.2446364 L13.9326818,19.8564546 L12.0672273,19.0719091 L11.4622273,19.0719091 L9.59677272,19.8564546 Z M14.8099546,21.2823637 L16.2008637,19.4491819 L18.4849546,19.161 L19.1608637,18.4841819 L19.4495,16.2019091 L21.2822273,14.8100909 L21.5299546,13.8864546 L20.6381364,11.7650909 L21.5299546,9.64372726 L21.2822273,8.72009089 L19.4495,7.3282727 L19.1608637,5.04554542 L18.4845,4.36918178 L16.2008637,4.08054541 L14.8099546,2.24781813 L13.8863182,2.00009086 L11.7649545,2.89190905 L9.6435909,2.00009086 L8.71949998,2.24781813 L7.32813634,4.08054541 L5.04540906,4.36918178 L4.36904542,5.04509087 L4.08040905,7.3282727 L2.24768177,8.72009089 L1.9999545,9.64372726 L2.89177268,11.7650909 L1.9999545,13.8864546 L2.24768177,14.8100909 L4.08040905,16.2019091 L4.36904542,18.4846364 L5.04495451,19.161 L7.32813634,19.4491819 L8.71949998,21.2823637 L9.6435909,21.530091 L11.7649545,20.6382728 L13.8863182,21.530091 L14.8099546,21.2823637 Z M14.7458637,10.0796364 L15.4263182,10.7600909 L14.7458637,11.4405455 L14.7458637,11.4432727 L13.4008636,11.4432727 C13.0749546,12.8746364 11.8976818,13.5464546 10.8804091,13.7119091 L13.0572273,15.8814546 L13.0572273,16.8473637 L12.0949545,16.8473637 L8.79131817,13.5555455 L8.66086362,12.7619091 L9.27222726,12.3905455 L10.3754091,12.3905455 C10.4335909,12.3905455 11.5522273,12.3773636 11.9708636,11.4432727 L8.91631817,11.4432727 L8.91631817,11.4405455 L8.23586362,10.7600909 L8.91631817,10.0796364 L12.0595,10.0796364 C11.8885909,9.37554544 11.4195,9.15327271 11.2063182,9.09145453 L8.91631817,9.09145453 L8.91631817,9.0891818 L8.23586362,8.40827271 L8.91631817,7.72781816 L11.3513182,7.72781816 L11.3513182,7.72645452 L11.3581364,7.72781816 L14.7458637,7.72781816 L15.4263182,8.40827271 L14.7458637,9.0891818 L14.7458637,9.09145453 L13.1476818,9.09145453 C13.2904091,9.36918181 13.3954091,9.69827272 13.4495,10.0796364 L14.7458637,10.0796364 Z" id="path-1"></path>
    </defs>
    <g id="Icons" stroke="none" stroke-width="1" fill="none" fill-rule="evenodd">
        <g id="Icons-[All-Platforms]" transform="translate(-218.000000, -582.000000)">
            <g id="Group" transform="translate(216.000000, 580.000000)">
                <mask id="mask-2" fill="white">
                    <use xlink:href="#path-1"></use>
                </mask>
                <use id="Combined-Shape"  xlink:href="#path-1"></use>
            </g>
        </g>
    </g>
</svg>