<?xml version="1.0" encoding="UTF-8"?>
<svg width="20px" height="20px" viewBox="0 0 20 20" version="1.1" xmlns="http://www.w3.org/2000/svg" xmlns:xlink="http://www.w3.org/1999/xlink">
    <title>message thick</title>
    <g id="Icons" stroke="none" stroke-width="1" fill="none" fill-rule="evenodd">
        <g id="Icons-[All-Platforms]" transform="translate(-358.000000, -582.000000)" fill="#62656E">
            <g id="Icons_basic_message" transform="translate(356.000000, 580.000000)">
                <path d="M11,4.01060591 C7.13999998,4.01060591 3.99999996,7.16725726 3.99999996,11.0477268 L3.99999996,19.4741763 L6.55249997,18.190907 L6.99999996,18.0848476 L13,18.0848476 C16.86,18.0848476 20,14.9281962 20,11.0477268 C20,7.16725726 16.86,4.01060591 13,4.01060591 L11,4.01060591 Z M3.44749996,21.9999999 L1.99999995,21.1007565 L1.99999995,11.0477268 C1.99999995,6.05891072 6.03749997,1.99999995 10.9999999,1.99999995 L12.9999999,1.99999995 C17.9625,1.99999995 21.9999999,6.05891072 21.9999999,11.0477268 C21.9999999,16.0365428 17.9625,20.0954535 12.9999999,20.0954535 L7.23599998,20.0954535 L3.44749996,21.9999999 Z"></path>
            </g>
        </g>
    </g>
</svg>