<?xml version="1.0" encoding="UTF-8"?>
<svg width="20px" height="20px" viewBox="0 0 20 20" version="1.1" xmlns="http://www.w3.org/2000/svg" xmlns:xlink="http://www.w3.org/1999/xlink">
    <title>messenger</title>
    <defs>
        <path d="M11.9999999,1.99969995 C17.523,1.99969995 21.9999999,6.47669997 21.9999999,11.9997 C21.9999999,17.5227 17.523,21.9997 11.9999999,21.9997 C6.47699997,21.9997 1.99999995,17.5227 1.99999995,11.9997 C1.99999995,6.47669997 6.47699997,1.99969995 11.9999999,1.99969995 Z M12,3.52969996 C7.32199998,3.52969996 3.52899996,7.32169998 3.52899996,11.9997 C3.52899996,16.6787 7.32199998,20.4707 12,20.4707 C16.678,20.4707 20.471,16.6787 20.471,11.9997 C20.471,7.32169998 16.678,3.52969996 12,3.52969996 Z M11.9999,6.68469997 C14.9229,6.68469997 17.3149,8.88569998 17.3149,11.6017 C17.3149,14.3187 14.9229,16.5187 11.9999,16.5187 C11.4729,16.5187 10.9699,16.4437 10.4899,16.3147 L10.4899,16.3147 L8.65589998,17.3157 L8.62389998,15.4007 C7.43989998,14.4967 6.68489997,13.1337 6.68489997,11.6017 C6.68489997,8.88569998 9.07589999,6.68469997 11.9999,6.68469997 Z M15.3549,10.2887 L12.7749,11.6007 L11.4049,10.2887 L8.54589998,13.2827 L11.2239,11.8837 L12.5479,13.2827 L15.3549,10.2887 Z" id="path-1"></path>
    </defs>
    <g id="Icons" stroke="none" stroke-width="1" fill="none" fill-rule="evenodd">
        <g id="Icons-[All-Platforms]" transform="translate(-1339.000000, -1640.000000)">
            <g id="Group" transform="translate(1337.000000, 1638.000000)">
                <mask id="mask-2" fill="white">
                    <use xlink:href="#path-1"></use>
                </mask>
                <use id="Combined-Shape"  xlink:href="#path-1"></use>
            </g>
        </g>
    </g>
</svg>