<?xml version="1.0" encoding="UTF-8"?>
<svg width="16px" height="20px" viewBox="0 0 16 20" version="1.1" xmlns="http://www.w3.org/2000/svg" xmlns:xlink="http://www.w3.org/1999/xlink">
    <title>mic thick</title>
    <g id="Icons" stroke="none" stroke-width="1" fill="none" fill-rule="evenodd">
        <g id="Icons-[All-Platforms]" transform="translate(-80.000000, -998.000000)" fill="#62656E">
            <g id="Icons_basic_voice" transform="translate(76.000000, 996.000000)">
                <path d="M19,8.98590237 L20,9.98590237 L20,10.9999175 C19.9915,15.071448 16.926,18.4329732 12.982,18.9189769 L12.982,18.9189769 L12.982,19.999985 L16,19.999985 L16,22.0000001 L7.99999996,22.0000001 L7.99999996,19.999985 L10.982,19.999985 L10.982,18.9134769 C7.05549998,18.4119731 4.00799996,15.0589479 4.00049996,10.9999175 L4.00049996,10.9999175 L3.99999996,9.98590237 L4.99999996,8.98590237 L5.99999996,9.98590237 L5.99999996,10.9854174 C5.99999996,14.2939422 8.69149998,16.9854624 12,16.9854624 C15.3085,16.9854624 18,14.2939422 18,10.9854174 L18,10.9854174 L18,9.98590237 L19,8.98590237 Z M12,1.99999995 C14.757,1.99999995 17,4.24301678 17,7.00003748 L17,7.00003748 L17,11.0000675 C17,13.7570882 14.757,16.000105 12,16.000105 C9.24299999,16.000105 6.99999997,13.7570882 6.99999997,11.0000675 L6.99999997,11.0000675 L6.99999997,7.00003748 C6.99999997,4.24301678 9.24299999,1.99999995 12,1.99999995 Z M12,4.00001496 C10.3455,4.00001496 8.99999998,5.34552506 8.99999998,7.00003748 L8.99999998,7.00003748 L8.99999998,11.0000675 C8.99999998,12.6545799 10.3455,14.00009 12,14.00009 C13.6545,14.00009 15,12.6545799 15,11.0000675 L15,11.0000675 L15,7.00003748 C15,5.34552506 13.6545,4.00001496 12,4.00001496 Z"></path>
            </g>
        </g>
    </g>
</svg>