<?xml version="1.0" encoding="UTF-8"?>
<svg width="20px" height="18px" viewBox="0 0 20 18" version="1.1" xmlns="http://www.w3.org/2000/svg" xmlns:xlink="http://www.w3.org/1999/xlink">
    <title>millage thick</title>
    <g id="Icons" stroke="none" stroke-width="1" fill="none" fill-rule="evenodd">
        <g id="Icons-[All-Platforms]" transform="translate(-499.000000, -583.000000)" >
            <g id="Icons_basic_millage" transform="translate(497.000000, 580.000000)">
                <path d="M12.0005007,3.49999996 C17.5142246,3.49999996 22,7.98699998 22,13.502 C22,15.6835 21.7275136,18.1865 19.7071148,20.207 L19.7071148,20.207 L19.0001502,20.5 L5.00085109,20.5 L4.29238656,20.206 C2.27148773,18.178 1.99950135,15.6785 1.99999995,13.501 C2.00100127,7.98649998 6.48727667,3.49999996 12.0005007,3.49999996 Z M12.0005007,5.49999997 C7.58972148,5.49999997 4.00090115,9.08949999 3.9999003,13.501 C3.99940122,15.8425 4.4193802,17.3275 5.43532934,18.5 L5.43532934,18.5 L18.5661719,18.5 C19.5801212,17.3325 20.0001001,15.8465 20.0001001,13.502 C20.0001001,9.08999999 16.4112798,5.49999997 12.0005007,5.49999997 Z M17.0001003,8.49994998 L17.0001003,9.91444999 L15.729164,11.18495 L14.7037153,12.21045 C14.8917059,12.60245 15.0002005,13.03895 15.0002005,13.50195 C15.0002005,15.15645 13.6547678,16.50195 12.0003507,16.50195 C10.3459335,16.50195 9.00050086,15.15645 9.00050086,13.50195 C9.00050086,11.84745 10.3459335,10.50195 12.0003507,10.50195 C12.4618276,10.50195 12.8978057,10.60995 13.2892861,10.79745 L13.2892861,10.79745 L14.3152348,9.77094999 L15.5856712,8.49994998 L17.0001003,8.49994998 Z M12.0003507,12.50195 C11.4488783,12.50195 11.0004007,12.95045 11.0004007,13.50195 C11.0004007,14.05345 11.4488783,14.50195 12.0003507,14.50195 C12.5518231,14.50195 13.0003006,14.05345 13.0003006,13.50195 C13.0003006,12.95045 12.5518231,12.50195 12.0003507,12.50195 Z"></path>
            </g>
        </g>
    </g>
</svg>