<?xml version="1.0" encoding="UTF-8"?>
<svg width="20px" height="14px" viewBox="0 0 20 14" version="1.1" xmlns="http://www.w3.org/2000/svg" xmlns:xlink="http://www.w3.org/1999/xlink">
    <title>money thick</title>
    <g id="Icons" stroke="none" stroke-width="1" fill="none" fill-rule="evenodd">
        <g id="Icons-[All-Platforms]" transform="translate(-780.000000, -585.000000)" fill="#62656E">
            <g id="Icons_basic_money" transform="translate(778.000000, 580.000000)">
                <path d="M10.2253636,11.9243636 C10.2253636,10.9443636 11.0208182,10.1498182 11.9999091,10.1498182 C12.9799091,10.1498182 13.7744546,10.9443636 13.7744546,11.9243636 C13.7744546,12.9043636 12.9799091,13.6989091 11.9999091,13.6989091 C11.0208182,13.6989091 10.2253636,12.9043636 10.2253636,11.9243636 L10.2253636,11.9243636 Z M18.1108182,7.45254543 C18.0708182,7.60072725 18.0426364,7.75345452 18.0426364,7.91345453 C18.0426364,8.89436362 18.8371819,9.68890908 19.8171819,9.68890908 C19.939,9.68890908 20.0571819,9.67618181 20.1717273,9.65254544 L20.1717273,14.6925455 C20.0571819,14.6698182 19.939,14.6570909 19.8171819,14.6570909 C18.8371819,14.6570909 18.0426364,15.4507273 18.0426364,16.4316364 C18.0426364,16.4798182 18.0535455,16.5261818 18.0571818,16.5734546 L6.06899997,16.5734546 C6.07263633,16.5261818 6.08263633,16.4798182 6.08263633,16.4316364 C6.08263633,15.4507273 5.28809088,14.6570909 4.30899996,14.6570909 C4.13445451,14.6570909 3.97081814,14.6898182 3.81172723,14.7361818 L3.81172723,9.60890908 C3.97081814,9.65527272 4.13445451,9.68890908 4.30899996,9.68890908 C5.28809088,9.68890908 6.08263633,8.89436362 6.08263633,7.91345453 C6.08263633,7.75345452 6.05445452,7.60072725 6.01445452,7.45254543 L18.1108182,7.45254543 Z M20.6853637,5.63618179 L12.0026364,5.63618179 L2.98718177,5.63618179 L1.99990904,6.74345452 L1.99990904,17.438 L2.98718177,18.3634546 L20.6853637,18.3634546 L21.999909,17.438 L21.999909,6.74345452 L20.6853637,5.63618179 Z"></path>
            </g>
        </g>
    </g>
</svg>