<?xml version="1.0" encoding="UTF-8"?>
<svg width="20px" height="20px" viewBox="0 0 20 20" version="1.1" xmlns="http://www.w3.org/2000/svg" xmlns:xlink="http://www.w3.org/1999/xlink">
    <title>morning thick</title>
    <g id="Icons" stroke="none" stroke-width="1" fill="none" fill-rule="evenodd">
        <g id="Icons-[All-Platforms]" transform="translate(-1059.000000, -582.000000)" >
            <g id="Combined-Shape" transform="translate(1057.000000, 580.000000)">
                <path d="M18.3742,19.0588467 L19.3402,20.0462899 L18.3742,21.033733 L5.60819997,21.033733 L4.64269996,20.0462899 L5.60819997,19.0588467 L18.3742,19.0588467 Z M21.7566,15.4663125 L21.7566,17.4411989 L1.99999995,17.4411989 L1.99999995,15.4663125 L21.7566,15.4663125 Z M11.99345,8.63255112 C14.38295,8.63255112 16.32795,10.6273807 16.32795,13.0793693 L16.32795,13.0793693 L16.32795,13.1816421 L15.36195,14.1695966 L14.39695,13.1816421 L14.39695,13.0793693 C14.39695,11.7165852 13.31845,10.6074375 11.99345,10.6074375 C10.66895,10.6074375 9.59044999,11.7165852 9.59044999,13.0793693 L9.59044999,13.0793693 L9.59044999,13.1816421 L8.62494998,14.1695966 L7.65944998,13.1816421 L7.65944998,13.0793693 C7.65944998,10.6273807 9.60344999,8.63255112 11.99345,8.63255112 Z M1.99999995,13.3843977 L1.99999995,11.4095114 L7.14254998,11.4095114 L7.14254998,13.3843977 L1.99999995,13.3843977 Z M20.9748531,11.5454545 L22.0000001,12.4540746 L20.9748531,13.3636364 L17.5695408,13.3636364 L16.5454546,12.4540746 L17.5695408,11.5454545 L20.9748531,11.5454545 Z M6.10819997,5.5988352 L8.37869998,7.92093748 L8.37869998,9.31747158 L7.01319998,9.31747158 L4.74269996,6.99536929 L4.74269996,5.5988352 L6.10819997,5.5988352 Z M19.2727273,5.18181815 L19.2727273,6.54745472 L17.0020002,8.8181818 L15.6363637,8.8181818 L15.6363637,7.45254523 L17.9070908,5.18181815 L19.2727273,5.18181815 Z M12.0004708,2.45454541 L12.9090909,3.47863168 L12.9090909,6.88500461 L12.0004708,7.90909089 L11.0909091,6.88500461 L11.0909091,3.47863168 L12.0004708,2.45454541 Z"></path>
            </g>
        </g>
    </g>
</svg>