<?xml version="1.0" encoding="UTF-8"?>
<svg width="18px" height="19px" viewBox="0 0 18 19" version="1.1" xmlns="http://www.w3.org/2000/svg" xmlns:xlink="http://www.w3.org/1999/xlink">
    <title>notifications thick</title>
    <defs>
        <path d="M16.6129879,17.3106914 L7.43231447,17.3106914 C7.41474823,15.4569904 7.37591759,11.4167545 7.37591759,11.2087332 C7.37591759,8.69306224 9.4607533,6.64613262 12.0235758,6.64613262 C14.5863982,6.64613262 16.6703094,8.69306224 16.6703094,11.2087332 C16.6703094,11.4195281 16.6314787,15.457915 16.6129879,17.3106914 L16.6129879,17.3106914 Z M18.4768588,16.9871027 C18.4962741,15.0196834 18.5203121,11.3723766 18.5203121,11.2087332 C18.5203121,8.22432091 16.4400991,5.71697081 13.6378211,5.00507568 C13.684048,4.85252673 13.7154823,4.693506 13.7154823,4.52523988 C13.7154823,3.59053082 12.9573603,2.83333329 12.0235758,2.83333329 C11.0888667,2.83333329 10.3316692,3.59053082 10.3316692,4.52523988 C10.3316692,4.693506 10.3631035,4.85160219 10.4093304,5.00507568 C7.60705236,5.71604627 5.52683933,8.22339636 5.52683933,11.2087332 C5.52683933,11.3714521 5.55087736,15.0520423 5.56936813,17.0268579 L3.66666662,17.7979235 L3.68608195,19.1597696 L5.60080247,19.1597696 L10.3473863,19.1597696 C10.4259722,20.0214401 11.1415654,20.6991273 12.0235758,20.6991273 C12.9055861,20.6991273 13.6211793,20.0214401 13.6997652,19.1597696 L18.4435754,19.1597696 L20.2963518,19.1597696 L20.3333334,17.7997726 L18.4768588,16.9871027 Z" id="path-1"></path>
    </defs>
    <g id="Icons" stroke="none" stroke-width="1" fill="none" fill-rule="evenodd">
        <g id="Icons-[All-Platforms]" transform="translate(-1199.000000, -582.000000)">
            <g id="Group" transform="translate(1196.000000, 580.000000)">
                <mask id="mask-2" fill="white">
                    <use xlink:href="#path-1"></use>
                </mask>
                <use id="Combined-Shape" fill="#62656E" xlink:href="#path-1"></use>
            </g>
        </g>
    </g>
</svg>