<?xml version="1.0" encoding="UTF-8"?>
<svg width="20px" height="20px" viewBox="0 0 20 20" version="1.1" xmlns="http://www.w3.org/2000/svg" xmlns:xlink="http://www.w3.org/1999/xlink">
    <title>ok haired thick</title>
    <g id="Icons" stroke="none" stroke-width="1" fill="none" fill-rule="evenodd">
        <g id="Icons-[All-Platforms]" transform="translate(-1339.000000, -582.000000)" fill="#62656E">
            <g id="Icons_basic_ok-haired" transform="translate(1337.000000, 580.000000)">
                <path d="M17.4545454,10.5582273 L17.4545454,9.27277271 L16.1690909,9.27277271 L11.0909091,14.3509546 L8.73999998,12.0000455 L7.45454543,12.0000455 L7.45454543,13.2855 L10.4481818,16.2791364 L11.7336364,16.2791364 L17.4545454,10.5582273 Z M12,3.81822723 C7.48863634,3.81822723 3.81818178,7.4886818 3.81818178,12.0000455 C3.81818178,16.5114091 7.48863634,20.1818637 12,20.1818637 C16.5113637,20.1818637 20.1818182,16.5114091 20.1818182,12.0000455 C20.1818182,7.4886818 16.5113637,3.81822723 12,3.81822723 L12,3.81822723 Z M11.9999999,22.0000454 C6.48590906,22.0000454 1.99999995,17.5141364 1.99999995,12.0000454 C1.99999995,6.48595452 6.48590906,2.0000454 11.9999999,2.0000454 C17.5140909,2.0000454 21.9999999,6.48595452 21.9999999,12.0000454 C21.9999999,17.5141364 17.5140909,22.0000454 11.9999999,22.0000454 L11.9999999,22.0000454 Z"></path>
            </g>
        </g>
    </g>
</svg>