<?xml version="1.0" encoding="UTF-8"?>
<svg width="18px" height="20px" viewBox="0 0 18 20" version="1.1" xmlns="http://www.w3.org/2000/svg" xmlns:xlink="http://www.w3.org/1999/xlink">
    <title>owner thick</title>
    <g id="Icons" stroke="none" stroke-width="1" fill="none" fill-rule="evenodd">
        <g id="Icons-[All-Platforms]" transform="translate(-80.000000, -686.000000)" >
            <g id="Icons_basic_owner" transform="translate(77.000000, 684.000000)">
                <path d="M11.3119266,4.53227995 C12.4833503,4.53227995 13.4356099,5.48453955 13.4356099,6.65596327 C13.4356099,7.82653753 12.4833503,8.7796466 11.3119266,8.7796466 C10.1413523,8.7796466 9.18824328,7.82653753 9.18824328,6.65596327 C9.18824328,5.48453955 10.1413523,4.53227995 11.3119266,4.53227995 L11.3119266,4.53227995 Z M11.3119266,10.4785932 C13.4194699,10.4785932 15.1345566,8.76350661 15.1345566,6.65596327 C15.1345566,4.54841995 13.4194699,2.83333329 11.3119266,2.83333329 C9.20523274,2.83333329 7.48929661,4.54841995 7.48929661,6.65596327 C7.48929661,8.76350661 9.20523274,10.4785932 11.3119266,10.4785932 L11.3119266,10.4785932 Z M15.6314985,19.8227999 L4.51613995,19.8227999 L3.66666662,18.9733265 C3.66666662,14.7573904 7.09599046,11.3280666 11.3119266,11.3280666 C12.4136935,11.3280666 13.4593952,11.5667686 14.4065579,11.9881073 C14.4065579,11.9881073 14.4269453,11.9702684 14.4023106,11.9923547 C14.2511043,12.1248726 13.9979613,13.1510363 14.3173633,13.7057424 C14.3216106,13.7133877 14.2638464,13.5961604 14.3173633,13.6946993 C14.3547401,13.7635067 12.7246008,12.987088 11.3119266,13.0270133 C8.32262995,13.1119606 5.8396194,15.2458376 5.42592589,18.1238533 L15.6314985,18.1238533 L15.6314985,19.8227999 Z M17.5139314,14.420999 C16.7511044,14.420999 16.1335372,13.8025824 16.1335372,13.0397553 C16.1335372,12.2769283 16.7511044,11.6593612 17.5139314,11.6593612 C18.2759089,11.6593612 18.8943255,12.2769283 18.8943255,13.0397553 C18.8943255,13.8025824 18.2759089,14.420999 17.5139314,14.420999 L17.5139314,14.420999 Z M17.5139314,10.2568807 C16.4877676,10.2568807 15.5966701,10.8149847 15.1005777,11.6381243 C14.8465851,12.0611621 14.6945294,12.5462113 14.6945294,13.0762827 C14.6945294,13.5664288 14.8244988,14.0234455 15.0445124,14.4243968 C15.1506966,14.6087326 15.3069997,14.8601767 15.4896364,15.0266735 C15.7436289,15.2917092 16.0477404,15.5117228 16.3866803,15.6637784 L16.3866803,20.406388 L17.5139314,21.5336392 L18.6411825,20.406388 L18.6411825,19.0778118 L18.1433911,18.2852532 L18.6411825,17.4196399 L18.6411825,15.6637784 C19.6342168,15.2246008 20.3333334,14.2315664 20.3333334,13.0762827 C20.3333334,11.5200476 19.0701665,10.2568807 17.5139314,10.2568807 L17.5139314,10.2568807 Z"></path>
            </g>
        </g>
    </g>
</svg>