<?xml version="1.0" encoding="UTF-8"?>
<svg width="20px" height="20px" viewBox="0 0 20 20" version="1.1" xmlns="http://www.w3.org/2000/svg" xmlns:xlink="http://www.w3.org/1999/xlink">
    <title>pay thick</title>
    <g id="Icons" stroke="none" stroke-width="1" fill="none" fill-rule="evenodd">
        <g id="Icons-[All-Platforms]" transform="translate(-360.000000, -686.000000)" fill="#62656E">
            <g id="Combined-Shape" transform="translate(358.000000, 684.000000)">
                <path d="M21.0907728,2.45486359 L21.9998636,3.3993453 L21.9998636,10.6366818 L21.0907728,11.5457727 L20.1816819,10.6366818 L20.1816819,4.27304542 L3.81804541,4.27304542 L3.81804541,12.4548636 L11.0907727,12.4548636 L11.9998636,13.3639546 L11.0907727,14.2730455 L6.54531815,14.2730455 L6.54531815,17.5316818 L8.74077271,19.7275909 L16.1680455,19.7275909 L17.4544091,18.4407728 L17.4544091,12.4548636 C17.4457728,12.0453182 17.2775909,11.5457727 16.5453182,11.5457727 C15.8135,11.5457727 15.6453182,12.0453182 15.6362273,12.4635 L15.6362273,17.0003182 L14.7271364,17.0003182 C14.6862273,17.0003182 13.4503182,17.0453182 12.8135,18.3135 L11.1862273,17.5044091 C11.8907727,16.0953182 13.0225909,15.5412273 13.8180455,15.3225909 L13.8180455,12.4548636 C13.8180455,11.3589545 14.5453182,9.7275909 16.5453182,9.7275909 C18.5457728,9.7275909 19.2725909,11.3589545 19.2725909,12.4548636 L19.2725909,19.1957728 L16.9225909,21.5457728 L7.98622725,21.5457728 L4.72713633,18.2866818 L4.72713633,14.2730455 L2.79339119,14.2730455 L1.99986359,13.3639546 L1.99986359,3.3993453 L2.79339119,2.45486359 L21.0907728,2.45486359 Z M12,6.09090906 C13.0041541,6.09090906 13.8181818,6.90493679 13.8181818,7.90909089 C13.8181818,8.91324498 13.0041541,9.72727272 12,9.72727272 C10.9958459,9.72727272 10.1818182,8.91324498 10.1818182,7.90909089 C10.1818182,6.90493679 10.9958459,6.09090906 12,6.09090906 Z"></path>
            </g>
        </g>
    </g>
</svg>