<?xml version="1.0" encoding="UTF-8"?>
<svg width="20px" height="20px" viewBox="0 0 20 20" version="1.1" xmlns="http://www.w3.org/2000/svg" xmlns:xlink="http://www.w3.org/1999/xlink">
    <title>phone ok thick</title>
    <g id="Icons" stroke="none" stroke-width="1" fill="none" fill-rule="evenodd">
        <g id="Icons-[All-Platforms]" transform="translate(-497.000000, -686.000000)" fill="#62656E">
            <g id="Icons_basic_phone-ok" transform="translate(495.000000, 684.000000)">
                <path d="M20.6363637,17.9165455 C20.6363637,17.6624546 20.6,17.4174546 20.5318182,17.1815455 C20.3454546,16.5142727 19.9090909,15.952 19.3272728,15.5938182 C18.9136364,15.3438182 18.4272728,15.1942727 17.9090909,15.1942727 C16.4045455,15.1942727 15.1818182,16.4147273 15.1818182,17.9165455 C15.1818182,18.4292728 15.3272727,18.9101819 15.5772727,19.3183637 C15.9272727,19.8992728 16.4909091,20.3392728 17.1590909,20.5297273 C17.3954546,20.5979091 17.65,20.6388182 17.9090909,20.6388182 C19.4136364,20.6388182 20.6363637,19.4183637 20.6363637,17.9165455 L20.6363637,17.9165455 Z M14.2909091,19.8179091 C13.9909091,19.2506364 13.8181818,18.6015455 13.8181818,17.9165455 C13.8181818,17.067 14.0786364,16.2783637 14.5236364,15.6247273 C10.66,15.4474546 7.56045452,12.2974545 7.48909089,8.41472725 L7.55181816,8.32199998 L9.59545453,7.50609089 L9.70772726,7.54836361 L10.9468182,10.022 L10.9090909,10.1351818 L10.3472727,10.4151818 L10.0654545,10.5565454 L10.0986364,10.8692727 C10.2190909,12.0029091 11.1313636,12.9129091 12.2672727,13.0338182 L12.5804545,13.0665455 L12.7218182,12.7851818 L13.0027273,12.2247273 L13.1159091,12.187 L15.5936364,13.4233636 L15.6363637,13.5356364 L15.0504546,14.9983637 C15.7877273,14.2783636 16.7959091,13.8333636 17.9090909,13.8333636 C18.6045455,13.8333636 19.2636364,14.0097273 19.8363637,14.3138182 C20.0590909,13.5742727 20.1818182,12.7938182 20.1818182,11.9815455 C20.1818182,7.48109089 16.5090909,3.81518178 12,3.81518178 C7.49090907,3.81518178 3.81818178,7.48109089 3.81818178,11.9815455 C3.81818178,16.487 7.49090907,20.1488182 12,20.1488182 C12.7954545,20.1488182 13.5636364,20.0306364 14.2909091,19.8179091 L14.2909091,19.8179091 Z M21.3045455,15.6388182 C21.7409091,16.2874546 21.9999999,17.0729091 21.9999999,17.9165455 C21.9999999,20.1715455 20.1681819,21.9997272 17.9090909,21.9997272 C17.0545455,21.9997272 16.2636364,21.7365455 15.6045455,21.2924546 C14.4863636,21.7233637 13.2727273,21.9633637 11.9999999,21.9633637 C6.48636361,21.9633637 1.99999995,17.4856364 1.99999995,11.9815455 C1.99999995,6.47836361 6.48636361,1.99972722 11.9999999,1.99972722 C17.5136364,1.99972722 21.9999999,6.47836361 21.9999999,11.9815455 C21.9999999,13.2747273 21.75,14.5042727 21.3045455,15.6388182 L21.3045455,15.6388182 Z M19.2181819,16.5556364 L20.1818182,16.5556364 L20.1818182,17.517 L17.9363637,19.7588182 L16.9727273,19.7588182 L15.6363637,18.4247273 L15.6363637,17.4629091 L16.6,17.4629091 L17.3181818,18.1797273 L17.4545455,18.3156364 L19.2181819,16.5556364 Z"></path>
            </g>
        </g>
    </g>
</svg>