<?xml version="1.0" encoding="UTF-8"?>
<svg width="16px" height="18px" viewBox="0 0 16 18" version="1.1" xmlns="http://www.w3.org/2000/svg" xmlns:xlink="http://www.w3.org/1999/xlink">
    <title>postpaid thick</title>
    <g id="Icons" stroke="none" stroke-width="1" fill="none" fill-rule="evenodd">
        <g id="Icons-[All-Platforms]" transform="translate(-84.000000, -791.000000)" fill="#62656E">
            <g id="Icons_basic_prostpaid" transform="translate(79.000000, 788.000000)">
                <path d="M16.4401754,12.8023289 C18.514386,12.8023289 20.2017545,14.5002895 20.2017545,16.5883158 C20.2017545,18.6754211 18.514386,20.3733816 16.4401754,20.3733816 C14.3664254,20.3733816 12.679057,18.6754211 12.679057,16.5883158 C12.679057,14.5002895 14.3664254,12.8023289 16.4401754,12.8023289 Z M14.2950438,3.24999996 L14.9204386,3.49453943 L17.8337281,6.18907892 L18.129386,6.86559208 L18.129386,12.4752632 C17.6057676,12.2684868 17.0374781,12.1510527 16.4401754,12.1510527 C16.3885965,12.1510527 16.3383991,12.1575 16.2872807,12.1593421 L16.2872807,12.1593421 L16.2872807,9.1880263 L12.6030702,9.1880263 L11.6820176,8.26697366 L11.6820176,5.09210523 L7.07675436,5.09210523 L7.07675436,17.9868421 L12.0062281,17.9868421 C12.1987281,18.6813158 12.5487281,19.3076316 13.0166228,19.8289474 L13.0166228,19.8289474 L6.15570173,19.8289474 L5.23464909,18.9078948 L5.23464909,4.17105259 L6.15570173,3.24999996 L14.2950438,3.24999996 Z M16.4401754,14.1839079 C15.128136,14.1839079 14.060636,15.2624605 14.060636,16.5883158 C14.060636,17.9137105 15.128136,18.9918027 16.4401754,18.9918027 C17.7526754,18.9918027 18.8201755,17.9137105 18.8201755,16.5883158 C18.8201755,15.2624605 17.7526754,14.1839079 16.4401754,14.1839079 Z M16.2667413,15.1036711 L16.6508202,15.4845264 L16.6508202,16.5796579 L16.8304254,16.3995921 L17.0026623,16.2278158 L17.5433202,16.2296579 L17.5451623,16.7707764 L17.2085176,17.1074211 L16.4256229,17.8903158 L16.2676623,17.8898553 L16.2672018,17.8903158 L16.2662807,17.8898553 L15.8849649,17.8884737 L15.8835834,17.5094605 L15.8831229,15.4845264 L16.2667413,15.1036711 Z M10.9689847,16.1111184 L11.482932,16.5882237 L10.9689847,17.0653289 L9.73845832,17.0653289 L9.73845832,17.0648684 L9.38523464,17.0648684 L9.38523464,17.0653289 L8.61477411,17.0653289 L8.10174779,16.5882237 L8.61477411,16.1111184 L10.9689847,16.1111184 Z M13.9344518,5.09210523 L13.5241228,5.09210523 L13.5241228,7.34592103 L16.2872807,7.34592103 L16.2872807,7.26855261 L13.9344518,5.09210523 Z"></path>
            </g>
        </g>
    </g>
</svg>