<?xml version="1.0" encoding="UTF-8"?>
<svg width="20px" height="20px" viewBox="0 0 20 20" version="1.1" xmlns="http://www.w3.org/2000/svg" xmlns:xlink="http://www.w3.org/1999/xlink">
    <title>price thick</title>
    <g id="Icons" stroke="none" stroke-width="1" fill="none" fill-rule="evenodd">
        <g id="Icons-[All-Platforms]" transform="translate(-921.000000, -686.000000)" fill="#62656E">
            <g id="Icons_basic_price" transform="translate(919.000000, 684.000000)">
                <path d="M16.7684592,2.45454541 L17.6017688,2.7064762 L21.2930624,6.39776982 L21.5454546,7.23200218 L20.6226312,11.8461192 L20.370239,12.3172205 L11.1420049,21.5454546 L9.83713264,21.5454546 L2.45454541,14.1628674 L2.45454541,12.8579951 L11.6827795,3.62976101 L12.1543422,3.37736881 L16.7684592,2.45454541 Z M16.6461851,4.36109856 L12.7901675,5.13211752 L4.41231526,13.5104312 L10.4895688,19.5876848 L18.867421,11.2098325 L19.6389014,7.35381486 L16.6461851,4.36109856 Z M15.1036858,6.12770554 C16.6304971,6.12770554 17.872156,7.36936444 17.872156,8.89617576 C17.872156,10.4229871 16.6304971,11.664646 15.1036858,11.664646 C13.5768745,11.664646 12.3352156,10.4229871 12.3352156,8.89617576 C12.3352156,7.36936444 13.5768745,6.12770554 15.1036858,6.12770554 Z M15.1036858,7.97335235 C14.5947487,7.97335235 14.1808624,8.38723865 14.1808624,8.89617576 C14.1808624,9.40511287 14.5947487,9.81899916 15.1036858,9.81899916 C15.6126229,9.81899916 16.0265092,9.40511287 16.0265092,8.89617576 C16.0265092,8.38723865 15.6126229,7.97335235 15.1036858,7.97335235 Z"></path>
            </g>
        </g>
    </g>
</svg>