<?xml version="1.0" encoding="UTF-8"?>
<svg width="16px" height="20px" viewBox="0 0 16 20" version="1.1" xmlns="http://www.w3.org/2000/svg" xmlns:xlink="http://www.w3.org/1999/xlink">
    <title>proforma thick</title>
    <g id="Icons" stroke="none" stroke-width="1" fill="none" fill-rule="evenodd">
        <g id="Icons-[All-Platforms]" transform="translate(-1062.000000, -686.000000)" >
            <g id="Icons_basic_proforma" transform="translate(1058.000000, 684.000000)">
                <path d="M15.1521111,1.99999995 L15.9065556,2.29555551 L19.421,5.54555553 L19.7776667,6.36166664 L19.7776667,20.8888889 L18.6665556,21.9999999 L5.33322219,21.9999999 L4.22211107,20.8888889 L4.22211107,3.11111107 L5.33322219,1.99999995 L15.1521111,1.99999995 Z M12.0004444,4.22222218 L6.4443333,4.22222218 L6.4443333,19.7777778 L17.556,19.7777778 L17.556,9.16277777 L13.111,9.16277777 L12.0004444,8.05166665 L12.0004444,4.22222218 Z M11.5288333,16.9594444 L12.1488333,17.535 L11.5288333,18.1105556 L10.0443889,18.1105556 L10.0443889,18.11 L9.61827777,18.11 L9.61827777,18.1105556 L8.68883331,18.1105556 L8.06938887,17.535 L8.68883331,16.9594444 L11.5288333,16.9594444 Z M14.7171111,4.22222218 L14.2221111,4.22222218 L14.2221111,6.94055553 L17.556,6.94055553 L17.556,6.84722219 L14.7171111,4.22222218 Z"></path>
            </g>
        </g>
    </g>
</svg>