<?xml version="1.0" encoding="UTF-8"?>
<svg width="20px" height="20px" viewBox="0 0 20 20" version="1.1" xmlns="http://www.w3.org/2000/svg" xmlns:xlink="http://www.w3.org/1999/xlink">
    <title>property thick</title>
    <g id="Icons" stroke="none" stroke-width="1" fill="none" fill-rule="evenodd">
        <g id="Icons-[All-Platforms]" transform="translate(-1341.000000, -686.000000)" >
            <g id="Icons_basic_property" transform="translate(1339.000000, 684.000000)">
                <path d="M8.36363634,1.99999995 L14.7272727,6.20270267 L14.7272727,10.2882883 L20.5590909,10.2882883 L21.9999999,11.7162162 L21.9999999,20.5720721 L20.5590909,21.9999999 L3.44090905,21.9999999 L1.99999995,20.5720721 L1.99999995,6.20270267 L8.36363634,1.99999995 Z M8.36363634,4.16216212 L3.81818178,7.16666665 L3.81818178,19.8243243 L4.19545451,20.1981982 L6.54545452,20.1981982 L6.54545452,15.6936937 L10.1818182,15.6936937 L10.1818182,20.1981982 L12.9090909,20.1981982 L12.9090909,7.16666665 L8.36363634,4.16216212 Z M19.8045455,12.0900901 L14.7272727,12.0900901 L14.7272727,20.1981982 L19.8045455,20.1981982 L20.1818182,19.8243243 L20.1818182,12.463964 L19.8045455,12.0900901 Z M18.3589744,15 L18.3589744,17 L16.3589744,17 L16.3589744,15 L18.3589744,15 Z M8.24999998,10.125 C8.94035592,10.125 9.49999997,10.6846441 9.49999997,11.375 C9.49999997,12.0653559 8.94035592,12.625 8.24999998,12.625 C7.55964404,12.625 6.99999997,12.0653559 6.99999997,11.375 C6.99999997,10.6846441 7.55964404,10.125 8.24999998,10.125 Z"></path>
            </g>
        </g>
    </g>
</svg>