<?xml version="1.0" encoding="UTF-8"?>
<svg width="19px" height="20px" viewBox="0 0 19 20" version="1.1" xmlns="http://www.w3.org/2000/svg" xmlns:xlink="http://www.w3.org/1999/xlink">
    <title>questions thick</title>
    <defs>
        <path d="M7.92466665,9.41383332 L7.92466665,11.0805 C5.9288333,11.0805 4.5000833,12.7146667 4.5000833,14.7234167 C4.5000833,16.7321667 6.12341664,18.3663334 8.11924998,18.3663334 L8.11924998,18.3663334 L11.16925,18.3663334 L12.7284167,19.1505 L12.7284167,14.9438333 L13.0384167,14.6338333 L14.0850833,14.6338333 L14.3950833,14.9438333 L14.3950833,20.1609167 L12.8884167,21.0963334 L10.7734167,20.033 L8.11924998,20.033 C5.20466663,20.033 2.83341662,17.6509167 2.83341662,14.7234167 C2.83341662,11.7955 5.00966663,9.41383332 7.92466665,9.41383332 L7.92466665,9.41383332 Z M15.27475,2.83333329 C18.2955834,2.83333329 20.7526667,5.30166663 20.7526667,8.33583332 C20.7526667,11.37 18.2955834,13.8383333 15.27475,13.8383333 L15.27475,13.8383333 L12.4976667,13.8383333 L10.3014167,14.9425 L8.76433332,13.9870833 L8.76433332,8.33583332 C8.76433332,5.30166663 11.2214167,2.83333329 14.24225,2.83333329 L14.24225,2.83333329 Z M15.27475,4.49999996 L14.24225,4.49999996 C12.141,4.49999996 10.431,6.2208333 10.431,8.33583332 L10.431,8.33583332 L10.431,13.0120833 L12.10225,12.1716667 L15.27475,12.1716667 C17.3764167,12.1716667 19.086,10.4508333 19.086,8.33583332 C19.086,6.2208333 17.3764167,4.49999996 15.27475,4.49999996 L15.27475,4.49999996 Z M15.16625,9.48362499 L15.16625,10.8765417 L13.72125,10.8765417 L13.72125,9.48362499 L15.16625,9.48362499 Z M14.9362083,5.79837497 C15.4224584,5.79837497 15.810375,5.9179583 16.0987084,6.15629164 C16.387875,6.39545831 16.5324584,6.74879164 16.5324584,7.21754164 C16.5324584,7.47587498 16.4732917,7.70254165 16.3549584,7.89712498 C16.236625,8.09254165 16.0707917,8.24587498 15.8562084,8.35754165 C15.6412084,8.46837498 15.3962084,8.52712498 15.1199583,8.53129165 L15.1199583,8.53129165 L15.1199583,8.99795832 L13.7537083,8.99795832 L13.7537083,7.60545831 L14.3057917,7.60545831 C14.5682917,7.60545831 14.767875,7.57545831 14.9037083,7.51670831 C15.039125,7.45712498 15.1070417,7.36004164 15.1070417,7.22420831 C15.1070417,7.14962498 15.0862083,7.09045831 15.0449583,7.04670831 C15.002875,7.00295831 14.9495417,6.98087497 14.8837083,6.98087497 C14.800375,6.98087497 14.7374583,7.00795831 14.696625,7.06295831 C14.6549583,7.11754164 14.634125,7.18879164 14.634125,7.27670831 L14.634125,7.27670831 L13.2612083,7.27670831 C13.247875,7.00962498 13.3012083,6.76295831 13.4220417,6.53754164 C13.5424583,6.3117083 13.730375,6.13254164 13.9874583,5.99879164 C14.2432917,5.86504164 14.5599583,5.79837497 14.9362083,5.79837497 Z" id="path-1"></path>
    </defs>
    <g id="Icons" stroke="none" stroke-width="1" fill="none" fill-rule="evenodd">
        <g id="Icons-[All-Platforms]" transform="translate(-221.000000, -790.000000)">
            <g id="Group" transform="translate(219.000000, 788.000000)">
                <mask id="mask-2" fill="white">
                    <use xlink:href="#path-1"></use>
                </mask>
                <use id="Combined-Shape"  xlink:href="#path-1"></use>
            </g>
        </g>
    </g>
</svg>