<?xml version="1.0" encoding="UTF-8"?>
<svg width="20px" height="20px" viewBox="0 0 20 20" version="1.1" xmlns="http://www.w3.org/2000/svg" xmlns:xlink="http://www.w3.org/1999/xlink">
    <title>receivepayment thick</title>
    <g id="Icons" stroke="none" stroke-width="1" fill="none" fill-rule="evenodd">
        <g id="Icons-[All-Platforms]" transform="translate(-362.000000, -790.000000)" fill="#62656E">
            <g id="Icons_basic_receivebasic" transform="translate(360.000000, 788.000000)">
                <path d="M10.0982727,4.2000873 L17.8419091,4.23480024 L17.8237273,7.88389211 L10.0791818,7.85002583 L10.0982727,4.2000873 Z M18.7881818,11.0505588 L20.0545455,11.1106714 L21.9990909,12.9208242 L21.9999999,14.1671034 L16.5518182,19.2419657 L15.8827273,19.5001961 L8.11999998,19.5001961 L6.26909088,21.2256831 L5.60636361,21.4839135 L2.95272723,21.5 L1.99999995,20.6194767 L1.99999995,16.313379 L2.24090904,15.725799 L6.11363633,11.6957115 L6.81818179,11.4027681 L14.9190909,11.4027681 L15.8654545,12.2815981 L15.8672727,13.262027 L18.7881818,11.0505588 Z M19.32,12.9191309 L15.4709091,15.8925904 L9.8390909,15.8925904 L9.8390909,14.1306971 L13.9772727,14.1306971 L13.9754545,13.1646614 L7.24090907,13.1646614 L3.89181814,16.6503485 L3.89181814,19.7321801 L5.20636361,19.7245602 L7.05909089,17.9973798 L7.72727271,17.7383028 L15.4909091,17.7383028 L19.9927273,13.5448104 L19.32,12.9191309 Z M9.19645454,2.49999995 L18.7619091,2.54317946 L19.6673636,3.39491645 L19.6400909,8.73986238 L18.7246364,9.5831328 L9.1600909,9.5416466 L8.25463634,8.68906295 L8.28190907,3.34411703 L9.19645454,2.49999995 Z M13.9680909,4.63327933 C13.1326364,4.62908842 12.4526364,5.2564613 12.4480618,6.03453912 C12.4444545,6.81261694 13.1180909,7.44676308 13.9535455,7.45019208 C14.789,7.45438299 15.4699091,6.82701011 15.4735909,6.04893229 C15.4780909,5.27085447 14.8035455,4.63670834 13.9680909,4.63327933 Z"></path>
            </g>
        </g>
    </g>
</svg>