<?xml version="1.0" encoding="UTF-8"?>
<svg width="14px" height="14px" viewBox="0 0 14 14" version="1.1" xmlns="http://www.w3.org/2000/svg" xmlns:xlink="http://www.w3.org/1999/xlink">
    <title>refresh thick</title>
    <defs>
        <path d="M16.7083334,7.29166664 C15.5,6.0833333 13.8416666,5.3333333 12,5.3333333 C8.31666665,5.3333333 5.34166663,8.31666665 5.34166663,12 C5.34166663,15.6833334 8.31666665,18.6666667 12,18.6666667 C15.1083333,18.6666667 17.7,16.5416667 18.4416667,13.6666667 C18.0361111,13.1111111 17.8333334,12.8333333 17.8333334,12.8333333 C17.8333334,12.8333333 17.4583334,13.1111111 16.7083334,13.6666667 C16.025,15.6083334 14.175,17 12,17 C9.24166665,17 6.99999997,14.7583333 6.99999997,12 C6.99999997,9.24166665 9.24166665,6.99999997 12,6.99999997 C13.3833333,6.99999997 14.6166667,7.57499998 15.5166667,8.48333332 L14.5,9.49999999 L18.6666667,10.3333333 L17.8333334,6.16666664" id="path-1"></path>
    </defs>
    <g id="Icons" stroke="none" stroke-width="1" fill="none" fill-rule="evenodd">
        <g id="Icons-[All-Platforms]" transform="translate(-505.000000, -793.000000)">
            <g id="Group" transform="translate(500.000000, 788.000000)">
                <mask id="mask-2" fill="white">
                    <use xlink:href="#path-1"></use>
                </mask>
                <use id="Combined-Shape" fill="#62656E" xlink:href="#path-1"></use>
            </g>
        </g>
    </g>
</svg>