<?xml version="1.0" encoding="UTF-8"?>
<svg width="24px" height="24px" viewBox="0 0 24 24" version="1.1" xmlns="http://www.w3.org/2000/svg" xmlns:xlink="http://www.w3.org/1999/xlink">
    <title>report_black_24dp</title>
    <defs>
        <filter color-interpolation-filters="auto" id="filter-1">
            <feColorMatrix in="SourceGraphic" type="matrix" values="0 0 0 0 0.560784 0 0 0 0 0.568627 0 0 0 0 0.592157 0 0 0 1.000000 0"></feColorMatrix>
        </filter>
    </defs>
    <g id="Desktop" stroke="none" stroke-width="1" fill="none" fill-rule="evenodd">
        <g id="report_black_24dp" transform="translate(-208.000000, -320.000000)" filter="url(#filter-1)">
            <g transform="translate(208.000000, 320.000000)">
                <polygon id="Path" points="0 0 24 0 24 24 0 24"></polygon>
                <path d="M15.73,3 L8.27,3 L3,8.27 L3,15.73 L8.27,21 L15.73,21 L21,15.73 L21,8.27 L15.73,3 Z M19,14.9 L14.9,19 L9.1,19 L5,14.9 L5,9.1 L9.1,5 L14.9,5 L19,9.1 L19,14.9 Z" id="Shape" fill="#000000" fill-rule="nonzero"></path>
                <circle id="Oval" fill="#000000" fill-rule="nonzero" cx="12" cy="16" r="1"></circle>
                <polygon id="Path" fill="#000000" fill-rule="nonzero" points="11 7 13 7 13 14 11 14"></polygon>
            </g>
        </g>
    </g>
</svg>