<?xml version="1.0" encoding="UTF-8"?>
<svg width="20px" height="20px" viewBox="0 0 20 20" version="1.1" xmlns="http://www.w3.org/2000/svg" xmlns:xlink="http://www.w3.org/1999/xlink">
    <title>schedule meetup thick</title>
    <g id="Icons" stroke="none" stroke-width="1" fill="none" fill-rule="evenodd">
        <g id="Icons-[All-Platforms]" transform="translate(-636.000000, -790.000000)" fill="#62656E">
            <g id="Combined-Shape" transform="translate(634.000000, 788.000000)">
                <path d="M8.18772253,1.99999995 L8.18772253,3.1358092 L15.7758154,3.1358092 L15.7758154,1.99999995 L18.0552628,1.99999995 L18.0552628,3.1358092 L20.8605612,3.1358092 L21.9999999,4.23215016 L21.9999999,20.903659 L20.8605612,22 L3.13943879,22 L1.99999995,20.903659 L1.99999995,4.23215016 L3.13943879,3.1358092 L5.90884486,3.1358092 L5.90884486,1.99999995 L8.18772253,1.99999995 Z M19.7211223,10.4412772 L4.27830789,10.4412772 L4.27830789,19.8078662 L19.7211223,19.8078662 L19.7211223,10.4412772 Z M17,12 L17,13.5919582 L11.871404,19 L10.3617059,19 L7.99999998,16.5101729 L7.99999998,14.9182147 L9.50969807,14.9182147 L11.116555,16.6120627 L15.4897681,12 L17,12 Z M5.90884486,5.32849113 L4.27830789,5.32849113 L4.27830789,8.24859529 L19.7216921,8.24859529 L19.7216921,5.32849113 L18.0552628,5.32849113 L18.0552628,6.27079619 L18.0535536,6.27079619 L16.9152542,7.36658899 L15.7763851,6.27079619 L15.7758154,6.27079619 L15.7758154,5.32849113 L8.18772253,5.32849113 L8.18772253,6.27079619 L8.18601337,6.27079619 L7.04771398,7.36658899 L5.90941458,6.27079619 L5.90884486,6.27079619 L5.90884486,5.32849113 Z"></path>
            </g>
        </g>
    </g>
</svg>