<?xml version="1.0" encoding="UTF-8"?>
<svg width="20px" height="20px" viewBox="0 0 20 20" version="1.1" xmlns="http://www.w3.org/2000/svg" xmlns:xlink="http://www.w3.org/1999/xlink">
    <title>search thick</title>
    <g id="Icons" stroke="none" stroke-width="1" fill="none" fill-rule="evenodd">
        <g id="Icons-[All-Platforms]" transform="translate(-777.000000, -790.000000)" >
            <g id="Icons_basic_search" transform="translate(775.000000, 788.000000)">
                <path d="M10.5,17 C6.91599997,17 3.99999996,14.084 3.99999996,10.5 C3.99999996,6.91599997 6.91599997,3.99999996 10.5,3.99999996 C14.084,3.99999996 17,6.91599997 17,10.5 C17,14.084 14.084,17 10.5,17 L10.5,17 Z M20.729,19.315 L20.729,19.3155 L17.1685,15.7545 C18.3115,14.3065 18.9999999,12.484 18.9999999,10.4999999 C18.9999999,5.81299997 15.187,1.99999995 10.4999999,1.99999995 C5.81299997,1.99999995 1.99999995,5.81299997 1.99999995,10.4999999 C1.99999995,15.187 5.81299997,18.9999999 10.4999999,18.9999999 C12.4835,18.9999999 14.3065,18.3115 15.754,17.1685 L19.9505,21.3645 L20.5855,21.9999999 L21.9999999,21.9999999 L21.9999999,20.586 L20.729,19.315 Z"></path>
            </g>
        </g>
    </g>
</svg>