<?xml version="1.0" encoding="UTF-8"?>
<svg width="18px" height="17px" viewBox="0 0 18 17" version="1.1" xmlns="http://www.w3.org/2000/svg" xmlns:xlink="http://www.w3.org/1999/xlink">
    <title>services thick</title>
    <defs>
        <path d="M18.5673864,17.5934091 L18.2113258,17.9490909 L5.53784088,17.9490909 L5.18178027,17.5934091 L5.18178027,16.8464394 L5.53784088,16.4907576 L18.2113258,16.4907576 L18.5673864,16.8464394 L18.5673864,17.5934091 Z M5.83367421,12.9926515 L6.68670452,11.7506061 L6.68670452,8.73128786 C6.68670452,7.81499998 7.43215907,7.06954543 8.34844695,7.06954543 L15.3772349,7.06954543 C16.2935228,7.06954543 17.0389773,7.81499998 17.0389773,8.73128786 L17.0389773,11.7930303 L17.9499621,12.8680303 L17.9499621,13.1752273 L5.83367421,13.1752273 L5.83367421,12.9926515 Z M18.8385985,14.9756061 L12.5238258,14.9756061 L12.5238258,14.6903788 L19.4651137,14.6903788 L19.4651137,12.3127273 L18.5541288,11.2377273 L18.5541288,8.73128786 C18.5541288,6.97939392 17.1291288,5.55439391 15.3772349,5.55439391 L12.5238258,5.55439391 L12.5238258,5.18166663 L13.9242046,5.18166663 L13.9242046,3.66651511 L9.66132575,3.66651511 L9.66132575,5.18166663 L11.0086742,5.18166663 L11.0086742,5.55439391 L8.34844695,5.55439391 C6.59655301,5.55439391 5.171553,6.97939392 5.171553,8.73128786 L5.171553,11.2801515 L4.31852269,12.5218182 L4.31852269,14.6903788 L11.0086742,14.6903788 L11.0086742,14.9756061 L4.91056815,14.9756061 L3.66662875,16.2191667 L3.66662875,18.2206819 L4.91056815,19.4642425 L18.8385985,19.4642425 L20.082538,18.2206819 L20.082538,16.2191667 L18.8385985,14.9756061 Z" id="path-1"></path>
    </defs>
    <g id="Icons" stroke="none" stroke-width="1" fill="none" fill-rule="evenodd">
        <g id="Icons-[All-Platforms]" transform="translate(-1058.000000, -791.000000)">
            <g id="Group" transform="translate(1055.000000, 788.000000)">
                <mask id="mask-2" fill="white">
                    <use xlink:href="#path-1"></use>
                </mask>
                <use id="Combined-Shape"  xlink:href="#path-1"></use>
            </g>
        </g>
    </g>
</svg>