<?xml version="1.0" encoding="UTF-8"?>
<svg width="20px" height="20px" viewBox="0 0 20 20" version="1.1" xmlns="http://www.w3.org/2000/svg" xmlns:xlink="http://www.w3.org/1999/xlink">
    <title>settings thick</title>
    <defs>
        <path d="M12.6926333,2.91248745 L13.3750917,3.59494579 L13.3750917,4.87965413 C14.3760917,5.0703208 15.30605,5.4621958 16.118675,6.01586247 L16.118675,6.01586247 L17.0270917,5.1074458 L17.9918834,5.1074458 L18.9713417,6.08736247 L18.9713417,7.05215414 L18.0633834,7.96057081 C18.6175084,8.77319582 19.008925,9.70315416 19.1995917,10.7041542 L19.1995917,10.7041542 L20.4843,10.7041542 L21.1667584,11.3866125 L21.1667584,12.7716958 L20.4843,13.4541542 L19.1995917,13.4541542 C19.008925,14.4551542 18.6175084,15.3851125 18.0633834,16.1977375 L18.0633834,16.1977375 L18.9713417,17.1061542 L18.9713417,18.0714042 L17.9918834,19.0508625 L17.0270917,19.0508625 L16.118675,18.1424459 C15.30605,18.6965709 14.3760917,19.0879875 13.3750917,19.2786542 L13.3750917,19.2786542 L13.3750917,20.5633625 L12.6926333,21.2458209 L11.30755,21.2458209 L10.6250917,20.5633625 L10.6250917,19.2786542 C9.62409165,19.0879875 8.69413332,18.6965709 7.88150831,18.1424459 L7.88150831,18.1424459 L6.97309164,19.0508625 L6.00784164,19.0508625 L5.0283833,18.0714042 L5.0283833,17.1061542 L5.93679997,16.1977375 C5.38267497,15.3851125 4.9912583,14.4551542 4.80059163,13.4541542 L4.80059163,13.4541542 L3.51588329,13.4541542 L2.83342495,12.7716958 L2.83342495,11.3866125 L3.51588329,10.7041542 L4.80059163,10.7041542 C4.9912583,9.70315416 5.38267497,8.77319582 5.93679997,7.96057081 L5.93679997,7.96057081 L5.0283833,7.05215414 L5.0283833,6.08736247 L6.00784164,5.1074458 L6.97309164,5.1074458 L7.88150831,6.01586247 C8.69413332,5.4621958 9.62409165,5.0703208 10.6250917,4.87965413 L10.6250917,4.87965413 L10.6250917,3.59494579 L11.30755,2.91248745 L12.6926333,2.91248745 Z M12.0000916,6.57915414 C8.96729998,6.57915414 6.50009164,9.04636249 6.50009164,12.0791541 C6.50009164,15.1119458 8.96729998,17.5791541 12.0000916,17.5791541 C15.0328833,17.5791541 17.5000916,15.1119458 17.5000916,12.0791541 C17.5000916,9.04636249 15.0328833,6.57915414 12.0000916,6.57915414 Z M12.0000917,8.22278331 C14.1267583,8.22278331 15.8565084,9.95253332 15.8565084,12.0792 C15.8565084,14.2058667 14.1267583,15.9356167 12.0000917,15.9356167 C9.87342499,15.9356167 8.14367498,14.2058667 8.14367498,12.0792 C8.14367498,9.95253332 9.87342499,8.22278331 12.0000917,8.22278331 Z M12.0000917,10.0561167 C10.8845083,10.0561167 9.97700832,10.9636167 9.97700832,12.0792 C9.97700832,13.1947833 10.8845083,14.1022833 12.0000917,14.1022833 C13.115675,14.1022833 14.023175,13.1947833 14.023175,12.0792 C14.023175,10.9636167 13.115675,10.0561167 12.0000917,10.0561167 Z" id="path-1"></path>
    </defs>
    <g id="Icons" stroke="none" stroke-width="1" fill="none" fill-rule="evenodd">
        <g id="Icons-[All-Platforms]" transform="translate(-1198.000000, -790.000000)">
            <g id="Group" transform="translate(1196.000000, 788.000000)">
                <mask id="mask-2" fill="white">
                    <use xlink:href="#path-1"></use>
                </mask>
                <use id="Combined-Shape"  xlink:href="#path-1"></use>
            </g>
        </g>
    </g>
</svg>