<?xml version="1.0" encoding="UTF-8"?>
<svg width="20px" height="20px" viewBox="0 0 20 20" version="1.1" xmlns="http://www.w3.org/2000/svg" xmlns:xlink="http://www.w3.org/1999/xlink">
    <title>share</title>
    <defs>
        <path d="M11.9994999,1.99979995 C17.5225,1.99979995 21.9994999,6.47679997 21.9994999,11.9997999 C21.9994999,17.5228 17.5225,21.9997999 11.9994999,21.9997999 C6.47749997,21.9997999 1.99949995,17.5228 1.99949995,11.9997999 C1.99949995,6.47679997 6.47749997,1.99979995 11.9994999,1.99979995 Z M11.9995,3.52979996 C7.32149998,3.52979996 3.52849996,7.32179998 3.52849996,11.9998 C3.52849996,16.6788 7.32149998,20.4708 11.9995,20.4708 C16.6785,20.4708 20.4705,16.6788 20.4705,11.9998 C20.4705,7.32179998 16.6785,3.52979996 11.9995,3.52979996 Z M14.7105,6.36189997 C15.8945,6.36189997 16.8535,7.32089998 16.8535,8.50489998 C16.8535,9.68789999 15.8945,10.6469 14.7105,10.6469 C14.0925,10.6469 13.5395,10.3809 13.1485,9.96189999 L13.1485,9.96189999 L10.4085,11.5439 C10.4135,11.6019 10.4265,11.6589 10.4265,11.7179 C10.4265,11.8189 10.4095,11.9139 10.3965,12.0109 L10.3965,12.0109 L13.0785,13.5589 C13.4715,13.0919 14.0535,12.7899 14.7105,12.7899 C15.8945,12.7899 16.8535,13.7489 16.8535,14.9319 C16.8535,16.1149 15.8945,17.0749 14.7105,17.0749 C13.5275,17.0749 12.5675,16.1149 12.5675,14.9319 C12.5675,14.7929 12.5835,14.6569 12.6085,14.5259 L12.6085,14.5259 L9.98249999,13.0089 C9.59249999,13.5239 8.98049998,13.8609 8.28349998,13.8609 C7.10049998,13.8609 6.14149997,12.9019 6.14149997,11.7179 C6.14149997,10.5349 7.10049998,9.57589999 8.28349998,9.57589999 C9.01949999,9.57589999 9.66749999,9.94689999 10.0535,10.5119 L10.0535,10.5119 L12.6375,9.01989999 C12.5965,8.85389998 12.5675,8.68289998 12.5675,8.50489998 C12.5675,7.32089998 13.5275,6.36189997 14.7105,6.36189997 Z M14.7105,13.8609 C14.1195,13.8609 13.6395,14.3399 13.6395,14.9319 C13.6395,15.5239 14.1195,16.0039 14.7105,16.0039 C15.3025,16.0039 15.7815,15.5239 15.7815,14.9319 C15.7815,14.3399 15.3025,13.8609 14.7105,13.8609 Z M8.28349998,10.6469 C7.69149998,10.6469 7.21249998,11.1269 7.21249998,11.7179 C7.21249998,12.3099 7.69149998,12.7899 8.28349998,12.7899 C8.87549998,12.7899 9.35549999,12.3099 9.35549999,11.7179 C9.35549999,11.1269 8.87549998,10.6469 8.28349998,10.6469 Z M14.7105,7.43389998 C14.1195,7.43389998 13.6395,7.91289998 13.6395,8.50489998 C13.6395,9.09589999 14.1195,9.57589999 14.7105,9.57589999 C15.3025,9.57589999 15.7815,9.09589999 15.7815,8.50489998 C15.7815,7.91289998 15.3025,7.43389998 14.7105,7.43389998 Z" id="path-1"></path>
    </defs>
    <g id="Icons" stroke="none" stroke-width="1" fill="none" fill-rule="evenodd">
        <g id="Icons-[All-Platforms]" transform="translate(-496.000000, -1640.000000)">
            <g id="Group" transform="translate(494.000000, 1638.000000)">
                <mask id="mask-2" fill="white">
                    <use xlink:href="#path-1"></use>
                </mask>
                <use id="Combined-Shape"  xlink:href="#path-1"></use>
            </g>
        </g>
    </g>
</svg>