<?xml version="1.0" encoding="UTF-8"?>
<svg width="20px" height="20px" viewBox="0 0 20 20" version="1.1" xmlns="http://www.w3.org/2000/svg" xmlns:xlink="http://www.w3.org/1999/xlink">
    <title>size thick</title>
    <g id="Icons" stroke="none" stroke-width="1" fill="none" fill-rule="evenodd">
        <g id="Icons-[All-Platforms]" transform="translate(-216.000000, -1266.000000)" >
            <g id="Icons_navigation_size" transform="translate(214.000000, 1264.000000)">
                <polygon points="14.0003 1.99999995 12.999775 3.00072549 14.0003 4.00145101 15.000325 4.00145101 18.5844146 4.00145101 3.99954995 18.5840234 3.99954995 15.8070101 3.99954995 15.0094318 3.99954995 14.0087063 2.99952494 13.0079808 1.99999995 14.0087063 1.99999995 15.0094318 1.99999995 20.9992745 2.99952494 22.0000001 9.00017499 22.0000001 10.0002 22.0000001 11.000225 20.9992745 10.0002 19.9985489 8.20265505 19.9985489 5.41608537 19.9985489 20.00045 5.41547619 20.00045 8.99056814 20.00045 9.99079332 20.999975 10.9920192 22.0000001 9.99079332 22.0000001 3.00072549 20.999975 1.99999995"></polygon>
            </g>
        </g>
    </g>
</svg>