<?xml version="1.0" encoding="UTF-8"?>
<svg width="20px" height="20px" viewBox="0 0 20 20" version="1.1" xmlns="http://www.w3.org/2000/svg" xmlns:xlink="http://www.w3.org/1999/xlink">
    <title>sort-by thick</title>
    <g id="Icons" stroke="none" stroke-width="1" fill="none" fill-rule="evenodd">
        <g id="Icons-[All-Platforms]" transform="translate(-356.000000, -1266.000000)" fill="#62656E">
            <g id="Icons_navigation_sort-by" transform="translate(354.000000, 1264.000000)">
                <path d="M8.70748321,2.29295068 L14.00047,7.58596394 L14.00047,8.99996748 L12.5859735,8.99996748 L11.3149767,7.7294643 L11.3149767,7.7289643 L9.00048249,5.4139585 L9.00048249,20.9999975 L8.99998248,20.9999975 L7.99998498,22.0000001 L6.99998747,20.9999975 L6.99998747,5.4139585 L4.68499325,7.7289643 L4.68549325,7.7294643 L3.41399643,8.99996748 L1.99999995,8.99996748 L1.99999995,7.58596394 L3.27099678,6.31446076 L7.29298675,2.29295068 L8.70748321,2.29295068 Z M16.000015,1.99999995 L17.0000125,2.99999995 L17.0000125,18.5855415 L19.3150067,16.2710357 L19.3150067,16.2705357 L20.5860035,14.9995325 L22,14.9995325 L22,16.414036 L20.7295032,17.6850392 L16.7070132,21.7070493 L15.2930168,21.7070493 L10.00003,16.414036 L10.00003,14.9995325 L11.4140265,14.9995325 L12.6850233,16.2705357 L12.6850233,16.2710357 L15.0000175,18.5855415 L15.0000175,2.99999995 L16.000015,1.99999995 Z"></path>
            </g>
        </g>
    </g>
</svg>