<?xml version="1.0" encoding="UTF-8"?>
<svg width="20px" height="20px" viewBox="0 0 20 20" version="1.1" xmlns="http://www.w3.org/2000/svg" xmlns:xlink="http://www.w3.org/1999/xlink">
    <title>stack thick</title>
    <g id="Icons" stroke="none" stroke-width="1" fill="none" fill-rule="evenodd">
        <g id="Icons-[All-Platforms]" transform="translate(-79.000000, -894.000000)" >
            <g id="Icons_basic_stack" transform="translate(77.000000, 892.000000)">
                <path d="M20.9999999,12.99991 L21.9999999,13.99992 L21.9999999,20.99999 L20.9999999,22.0000001 L2.99999995,22.0000001 L1.99999995,20.99999 L1.99999995,13.99992 L2.99999995,12.99991 L20.9999999,12.99991 Z M20,14.99993 L3.99999996,14.99993 L3.99999996,20.00048 L20,20.00048 L20,14.99993 Z M20.9999999,1.99999995 L21.9999999,3.00000996 L21.9999999,9.99957999 L20.9999999,11.00009 L2.99999995,11.00009 L1.99999995,9.99957999 L1.99999995,3.00000996 L2.99999995,1.99999995 L20.9999999,1.99999995 Z M20,4.00001996 L3.99999996,4.00001996 L3.99999996,9.00006999 L20,9.00006999 L20,4.00001996 Z"></path>
            </g>
        </g>
    </g>
</svg>