<?xml version="1.0" encoding="UTF-8"?>
<svg width="20px" height="20px" viewBox="0 0 20 20" version="1.1" xmlns="http://www.w3.org/2000/svg" xmlns:xlink="http://www.w3.org/1999/xlink">
    <title>tag thick</title>
    <g id="Icons" stroke="none" stroke-width="1" fill="none" fill-rule="evenodd">
        <g id="Icons-[All-Platforms]" transform="translate(-220.000000, -894.000000)" >
            <g id="Icons_basic_tag" transform="translate(218.000000, 892.000000)">
                <path d="M12.9622632,2.00010521 L21.9996316,11.038 L21.9996316,15.0674737 L15.0675263,22.0001052 L11.0380526,22.0001052 L2.00015784,12.9622105 L2.00015784,4.72168417 L4.72226312,2.00010521 L12.9622632,2.00010521 Z M12.0901579,4.10536838 L5.59384207,4.10536838 L4.1048947,5.59378944 L4.1048947,12.0906316 L11.9096316,19.8948421 L14.1959474,19.8948421 L19.8948948,14.1953684 L19.8948948,11.9095789 L12.0901579,4.10536838 Z M8.27415788,5.04273681 C10.0157368,5.04273681 11.4320526,6.4590526 11.4320526,8.20063156 C11.4320526,9.94221052 10.0157368,11.3585263 8.27415788,11.3585263 C6.53257892,11.3585263 5.11626312,9.94221052 5.11626312,8.20063156 C5.11626312,6.4590526 6.53257892,5.04273681 8.27415788,5.04273681 Z M8.27415788,7.14799998 C7.69363156,7.14799998 7.22152629,7.62010524 7.22152629,8.20063156 C7.22152629,8.78115788 7.69363156,9.25326314 8.27415788,9.25326314 C8.85468419,9.25326314 9.32678946,8.78115788 9.32678946,8.20063156 C9.32678946,7.62010524 8.85468419,7.14799998 8.27415788,7.14799998 Z"></path>
            </g>
        </g>
    </g>
</svg>