<?xml version="1.0" encoding="UTF-8"?>
<svg width="20px" height="18px" viewBox="0 0 20 18" version="1.1" xmlns="http://www.w3.org/2000/svg" xmlns:xlink="http://www.w3.org/1999/xlink">
    <title>text</title>
    <g id="Icons" stroke="none" stroke-width="1" fill="none" fill-rule="evenodd">
        <g id="Icons-[All-Platforms]" transform="translate(-777.000000, -1438.000000)" >
            <g id="Combined-Shape" transform="translate(775.000000, 1436.000000)">
                <path d="M20.3332412,2.97231014 L21.259167,3.85193977 L21.259167,14.4074953 L20.3332412,15.287125 L9.22212999,15.287125 L2.74064847,19.6852731 L2.74064847,3.85193977 L3.6665744,2.97231014 L20.3332412,2.97231014 Z M19.4073153,4.73156941 L4.59250033,4.73156941 L4.59712996,16.2986991 L8.66657443,13.5278658 L19.4073153,13.5278658 L19.4073153,4.73156941 Z M7.89703701,7.07041701 C8.29703701,7.07041701 8.61462962,7.16189849 8.8498148,7.34486146 C9.08499999,7.52782442 9.21925924,7.76708368 9.25259258,8.06263924 L9.25259258,8.06263924 L8.56925924,8.06263924 C8.54333332,7.9218985 8.47388887,7.80138923 8.3609259,7.70111146 C8.24796295,7.60083368 8.09333331,7.55069479 7.89703701,7.55069479 C7.71925923,7.55069479 7.57666664,7.59379664 7.46925924,7.68000035 C7.36185183,7.76620406 7.30814812,7.89023184 7.30814812,8.05208368 C7.30814812,8.17875035 7.34518516,8.28342628 7.41925924,8.36611146 C7.49333331,8.44879665 7.58685183,8.51388924 7.69981479,8.56138924 C7.81277776,8.60888924 7.96740739,8.66430591 8.16370368,8.72763924 C8.41185184,8.80152813 8.61462962,8.87629665 8.77203702,8.9519448 C8.92944443,9.02759295 9.06277776,9.13754665 9.17203702,9.28180591 C9.28129629,9.42606518 9.33592591,9.61606518 9.33592591,9.85180591 C9.33592591,10.0347689 9.28962962,10.2045374 9.19703702,10.3611115 C9.10444443,10.5176855 8.96370368,10.6434726 8.77481479,10.7384726 C8.58592591,10.8334726 8.35444443,10.8809726 8.08037035,10.8809726 C7.81370368,10.8809726 7.57481479,10.8361115 7.36370368,10.7463892 C7.15259257,10.656667 6.98407405,10.53088 6.85814812,10.3690281 C6.7322222,10.2071763 6.65999997,10.0206948 6.64148145,9.80958369 L6.64148145,9.80958369 L7.31925924,9.80958369 C7.33777775,9.97143555 7.4109259,10.110417 7.53870368,10.2265281 C7.66648146,10.3426392 7.83777776,10.4006948 8.05259257,10.4006948 C8.24518517,10.4006948 8.39425924,10.3514355 8.49981479,10.252917 C8.60537035,10.1543985 8.65814813,10.0277318 8.65814813,9.87291702 C8.65814813,9.73921332 8.61925924,9.62925962 8.54148146,9.54305591 C8.46370368,9.45685221 8.36740739,9.38912073 8.25259257,9.33986146 C8.13777776,9.29060221 7.98037035,9.23430591 7.78037035,9.17097257 C7.5359259,9.09708369 7.33685183,9.0231948 7.18314812,8.94930591 C7.02944442,8.87541702 6.89888886,8.76810221 6.79148146,8.62736146 C6.68407405,8.48662073 6.63037034,8.3018985 6.63037034,8.07319479 C6.63037034,7.87263923 6.6822222,7.69671331 6.7859259,7.54541701 C6.8896296,7.39412072 7.03777775,7.27712998 7.23037035,7.19444479 C7.42296294,7.11175961 7.64518517,7.07041701 7.89703701,7.07041701 Z M16.4912963,7.07041701 C16.8912963,7.07041701 17.2088889,7.16189849 17.4440741,7.34486146 C17.6792593,7.52782442 17.8135186,7.76708368 17.8468519,8.06263924 L17.8468519,8.06263924 L17.1635185,8.06263924 C17.1375926,7.9218985 17.0681482,7.80138923 16.9551852,7.70111146 C16.8422222,7.60083368 16.6875926,7.55069479 16.4912963,7.55069479 C16.3135185,7.55069479 16.1709259,7.59379664 16.0635185,7.68000035 C15.9561111,7.76620406 15.9024074,7.89023184 15.9024074,8.05208368 C15.9024074,8.17875035 15.9394445,8.28342628 16.0135185,8.36611146 C16.0875926,8.44879665 16.1811111,8.51388924 16.2940741,8.56138924 C16.4070371,8.60888924 16.5616667,8.66430591 16.757963,8.72763924 C17.0061111,8.80152813 17.2088889,8.87629665 17.3662963,8.9519448 C17.5237037,9.02759295 17.657037,9.13754665 17.7662964,9.28180591 C17.8755556,9.42606518 17.9301853,9.61606518 17.9301853,9.85180591 C17.9301853,10.0347689 17.8838889,10.2045374 17.7912964,10.3611115 C17.6987037,10.5176855 17.557963,10.6434726 17.3690741,10.7384726 C17.1801852,10.8334726 16.9487037,10.8809726 16.6746297,10.8809726 C16.407963,10.8809726 16.1690741,10.8361115 15.957963,10.7463892 C15.7468519,10.656667 15.5783334,10.53088 15.4524074,10.3690281 C15.3264815,10.2071763 15.2542593,10.0206948 15.2357408,9.80958369 L15.2357408,9.80958369 L15.9135185,9.80958369 C15.9320371,9.97143555 16.0051852,10.110417 16.132963,10.2265281 C16.2607408,10.3426392 16.4320371,10.4006948 16.6468519,10.4006948 C16.8394445,10.4006948 16.9885185,10.3514355 17.0940741,10.252917 C17.1996297,10.1543985 17.2524074,10.0277318 17.2524074,9.87291702 C17.2524074,9.73921332 17.2135185,9.62925962 17.1357408,9.54305591 C17.057963,9.45685221 16.9616667,9.38912073 16.8468519,9.33986146 C16.7320371,9.29060221 16.5746297,9.23430591 16.3746297,9.17097257 C16.1301852,9.09708369 15.9311111,9.0231948 15.7774074,8.94930591 C15.6237037,8.87541702 15.4931482,8.76810221 15.3857408,8.62736146 C15.2783333,8.48662073 15.2246296,8.3018985 15.2246296,8.07319479 C15.2246296,7.87263923 15.2764815,7.69671331 15.3801852,7.54541701 C15.4838889,7.39412072 15.6320371,7.27712998 15.8246297,7.19444479 C16.0172222,7.11175961 16.2394445,7.07041701 16.4912963,7.07041701 Z M11.0138889,7.17588461 L12.2916667,10.1050513 L13.5472222,7.17588461 L14.3138889,7.17588461 L14.3138889,10.8439402 L13.675,10.8439402 L13.675,8.09421795 L12.5583333,10.8439402 L12.0027778,10.8439402 L10.8805555,8.09421795 L10.8805555,10.8439402 L10.2472222,10.8439402 L10.2472222,7.17588461 L11.0138889,7.17588461 Z"></path>
            </g>
        </g>
    </g>
</svg>