<?xml version="1.0" encoding="UTF-8"?>
<svg width="20px" height="20px" viewBox="0 0 20 20" version="1.1" xmlns="http://www.w3.org/2000/svg" xmlns:xlink="http://www.w3.org/1999/xlink">
    <title>time thick</title>
    <defs>
        <path d="M12,2 C17.5138889,2 22,6.48594521 22,11.9997242 C22,17.5140547 17.5138889,22 12,22 C6.48611111,22 2,17.5140547 2,11.9997242 C2,6.48594521 6.48611111,2 12,2 Z M12,4.20683567 C7.71111111,4.20683567 4.22222222,7.70301508 4.22222222,11.9997242 C4.22222222,16.2969849 7.71111111,19.7931643 12,19.7931643 C16.2888889,19.7931643 19.7777778,16.2969849 19.7777778,11.9997242 C19.7777778,7.70301508 16.2888889,4.20683567 12,4.20683567 Z M11.4976667,7.732366 L12.6087778,8.82805991 L12.6087778,11.9766627 L13.1298889,11.458608 L13.6282222,10.9642768 L15.1932222,10.9703456 L15.1987778,12.5250614 L11.9576667,15.7437312 L11.4998889,15.742076 L11.4982222,15.7437312 L11.4965556,15.742076 L10.3926667,15.7376624 L10.3887778,14.6502441 L10.3865556,14.648589 L10.3865556,14.1829466 L10.3871111,10.7954539 L10.3865556,10.7954539 L10.3871111,8.82750819 L11.4976667,7.732366 Z" id="path-1"></path>
    </defs>
    <g id="Icons" stroke="none" stroke-width="1" fill="none" fill-rule="evenodd">
        <g id="Icons-[All-Platforms]" transform="translate(-499.000000, -894.000000)">
            <g id="Group" transform="translate(497.000000, 892.000000)">
                <mask id="mask-2" fill="white">
                    <use xlink:href="#path-1"></use>
                </mask>
                <use id="Combined-Shape"  xlink:href="#path-1"></use>
            </g>
        </g>
    </g>
</svg>