<?xml version="1.0" encoding="UTF-8"?>
<svg width="10px" height="17px" viewBox="0 0 10 17" version="1.1" xmlns="http://www.w3.org/2000/svg" xmlns:xlink="http://www.w3.org/1999/xlink">
    <title>tools thick</title>
    <defs>
        <path d="M13.3003077,11.8165897 L12.8572308,12.0242821 L12.8572308,18.007359 L12.3776154,18.4869744 L11.6341538,18.4869744 L11.1541538,18.007359 L11.1541538,12.0708205 L10.683,11.8727436 C9.48030768,11.3665897 8.7033846,10.197359 8.7033846,8.89312819 C8.7033846,7.93197434 9.13261537,7.04158972 9.83723076,6.44005126 L9.83723076,9.2108205 L11.9041538,10.5162051 L14.073,9.22389742 L14.073,6.47812818 C14.7514616,7.08005126 15.1645385,7.95505126 15.1645385,8.89312819 C15.1645385,10.1388974 14.4326154,11.2862051 13.3003077,11.8165897 M13.5672308,4.41658971 L12.5345385,4.03928201 L12.5345385,8.34928203 L11.9276154,8.71120511 L11.3756923,8.36274357 L11.3756923,4.03697432 L10.3506923,4.39812817 C8.44530767,5.06966663 7.16492305,6.87582049 7.16492305,8.89312819 C7.16492305,10.6419744 8.11146152,12.2265898 9.6156923,13.0615898 L9.6156923,18.6442821 L10.9972308,20.025436 L13.0145385,20.025436 L14.3956923,18.6442821 L14.3956923,12.9731282 C15.8114615,12.1165898 16.703,10.5650513 16.703,8.89312819 C16.703,6.90005126 15.4426154,5.10120509 13.5672308,4.41658971" id="path-1"></path>
    </defs>
    <g id="Icons" stroke="none" stroke-width="1" fill="none" fill-rule="evenodd">
        <g id="Icons-[All-Platforms]" transform="translate(-645.000000, -896.000000)">
            <g id="Group" transform="translate(638.000000, 892.000000)">
                <mask id="mask-2" fill="white">
                    <use xlink:href="#path-1"></use>
                </mask>
                <use id="Combined-Shape"  xlink:href="#path-1"></use>
            </g>
        </g>
    </g>
</svg>