<?xml version="1.0" encoding="UTF-8"?>
<svg width="19px" height="12px" viewBox="0 0 19 12" version="1.1" xmlns="http://www.w3.org/2000/svg" xmlns:xlink="http://www.w3.org/1999/xlink">
    <title>transfer thick</title>
    <defs>
        <path d="M20.3002249,6.36063563 L20.9828217,7.13660463 L20.9828217,16.6375349 L20.3002249,17.4135039 L7.16076742,17.4135039 L6.47817051,16.6375349 L6.47817051,7.13660463 L7.16076742,6.36063563 L20.3002249,6.36063563 Z M5.19065888,14.8955698 L5.19065888,16.5971589 L5.12457361,16.5971589 L5.12457361,16.5980117 L3.7495736,16.5980117 L2.83333329,15.7465775 L3.7495736,14.8951434 L5.19065888,14.8955698 Z M19.2808062,8.05710851 L8.1716589,8.05710851 L8.1716589,15.7293954 L19.2808062,15.7293954 L19.2808062,8.05710851 Z M13.9156202,10.2571085 C14.7730233,10.2571085 15.4679845,10.9520697 15.4679845,11.8090465 C15.4679845,12.6664496 14.7730233,13.3609845 13.9156202,13.3609845 C13.0590698,13.3609845 12.3641085,12.6664496 12.3641085,11.8090465 C12.3641085,10.9520697 13.0590698,10.2571085 13.9156202,10.2571085 Z M5.12457361,11.052562 L5.12457361,11.0538411 L5.19065888,11.0538411 L5.19065888,12.7550039 L5.12457361,12.7550039 L5.12457361,12.7558566 L3.7495736,12.7558566 L2.83333329,11.9044225 L3.7495736,11.052562 L5.12457361,11.052562 Z M5.12457361,7.21074803 L5.12457361,7.21160075 L5.19065888,7.21160075 L5.19065888,8.91276355 L5.12457361,8.91276355 L5.12457361,8.91361626 L3.7495736,8.91361626 L2.83333329,8.06218215 L3.7495736,7.21074803 L5.12457361,7.21074803 Z" id="path-1"></path>
    </defs>
    <g id="Icons" stroke="none" stroke-width="1" fill="none" fill-rule="evenodd">
        <g id="Icons-[All-Platforms]" transform="translate(-780.000000, -898.000000)">
            <g id="Group" transform="translate(778.000000, 892.000000)">
                <mask id="mask-2" fill="white">
                    <use xlink:href="#path-1"></use>
                </mask>
                <use id="Combined-Shape" fill="#62656E" xlink:href="#path-1"></use>
            </g>
        </g>
    </g>
</svg>