<?xml version="1.0" encoding="UTF-8"?>
<svg width="15px" height="18px" viewBox="0 0 15 18" version="1.1" xmlns="http://www.w3.org/2000/svg" xmlns:xlink="http://www.w3.org/1999/xlink">
    <title>trustmark thick</title>
    <defs>
        <path d="M11.3928059,3.63904916 L17.2112545,5.19956071 L18.1389441,6.46004831 L18.1024907,9.38993167 L18.0840259,11.8941836 L18.0840259,11.8941836 L18.0844303,12.1765537 C18.0847857,12.2593145 18.085364,12.3304946 18.0861729,12.3894406 L18.0861729,12.3894406 L18.0983815,12.8114759 C18.1319995,14.9959058 17.2798708,16.8290718 15.5873457,18.1991106 C15.378893,18.3677133 15.1128563,18.5639546 14.7960076,18.7849364 L14.7960076,18.7849364 L14.3918328,19.0618045 L13.7137956,19.5097767 C13.4344636,19.6910801 13.1469919,19.8741412 12.8595958,20.0544257 L12.8595958,20.0544257 L12.6210172,20.2034785 L12.0832235,20.5337692 L10.4016519,20.5337692 L9.78608129,20.1554986 L9.41293034,19.917148 C8.8649044,19.561663 8.32084674,19.1856204 7.80992361,18.800093 C7.29813718,18.4139141 6.84529973,18.0372548 6.46554772,17.6738857 C6.19309486,17.4131867 5.95997133,17.1609176 5.76944911,16.9160804 C4.94055805,15.8522106 4.50746061,14.6844762 4.50151048,13.4628282 C4.50116715,13.4011387 4.50088295,13.3361651 4.50065656,13.2679981 L4.50063118,12.302513 L4.54533309,6.20004963 L5.5108355,5.11688059 L11.3928059,3.63904916 Z M11.3791667,5.35999997 L6.41333331,6.60833331 L6.20499997,6.84166664 L6.19048301,8.50942784 L6.16987852,11.5626942 L6.16815437,13.4541314 C6.17224758,14.2944998 6.47434856,15.1090363 7.08448394,15.8921366 C7.22090823,16.0674532 7.40024606,16.2615193 7.61779756,16.4696855 C7.94543928,16.7831924 8.35012602,17.1198011 8.81381077,17.4696839 C9.29012238,17.8290945 9.80272719,18.1833974 10.3199311,18.5188893 C10.3814115,18.5587694 10.441599,18.5974989 10.5004389,18.6350735 L10.5004389,18.6350735 L10.87,18.8666667 L11.6133333,18.8666667 L12.3929261,18.3776537 C12.6707877,18.200548 12.9442743,18.0232402 13.2047867,17.8505464 L13.2047867,17.8505464 L13.3342659,17.764368 L13.6290852,17.5652187 C14.0130473,17.3028422 14.3235615,17.0776981 14.538977,16.9034638 C15.8839405,15.8147636 16.5091235,14.4004355 16.4253103,12.6268897 L16.4253103,12.6268897 L16.4204622,12.4504369 C16.418879,12.3532828 16.4179216,12.2287693 16.4175519,12.0781455 L16.4175846,11.7424542 C16.4178491,11.6191992 16.4183635,11.4847099 16.4191165,11.3393561 L16.4191165,11.3393561 L16.4641667,6.99666664 L16.215,6.65749997 L11.3791667,5.35999997 Z M15.3194477,8.66666665 L15.3194477,9.66838273 L10.6444707,14.2314537 L9.83486516,14.2314537 L7.83333331,12.2779217 L7.83333331,11.2759985 L8.87542123,11.2759985 L10.2399061,12.6073648 L14.2774062,8.66666665 L15.3194477,8.66666665 Z" id="path-1"></path>
    </defs>
    <g id="Icons" stroke="none" stroke-width="1" fill="none" fill-rule="evenodd">
        <g id="Icons-[All-Platforms]" transform="translate(-922.000000, -895.000000)">
            <g id="Group" transform="translate(918.000000, 892.000000)">
                <mask id="mask-2" fill="white">
                    <use xlink:href="#path-1"></use>
                </mask>
                <use id="Combined-Shape"  xlink:href="#path-1"></use>
            </g>
        </g>
    </g>
</svg>