<svg xmlns="http://www.w3.org/2000/svg" width="24" height="24" viewBox="0 0 24 24">
    <defs>
        <filter id="480a0f3cma" color-interpolation-filters="auto">
            <feColorMatrix in="SourceGraphic" values="0 0 0 0 0.384314 0 0 0 0 0.396078 0 0 0 0 0.431373 0 0 0 1.000000 0"/>
        </filter>
    </defs>
    <g fill="none" fill-rule="evenodd">
        <g filter="url(#480a0f3cma)" transform="translate(-1144 -40)">
            <g>
                <path fill="#000" fill-rule="nonzero" d="M17.967 0H6.014C2.703 0 0 2.705 0 6.019V18c0 3.295 2.703 6 6.014 6h11.972C21.297 24 24 21.295 24 17.981V6.019C23.981 2.705 21.278 0 17.967 0zm-.02 8.99v.4c0 4-3.083 8.61-8.735 8.61-1.732 0-3.35-.495-4.701-1.352.247.019.476.038.723.038 1.446 0 2.76-.476 3.806-1.296-1.35-.019-2.474-.895-2.873-2.095.19.038.38.057.57.057.286 0 .571-.038.819-.114-1.37-.286-2.417-1.505-2.417-2.971v-.038c.38.228.875.361 1.37.38-.818-.533-1.37-1.466-1.37-2.514 0-.552.152-1.066.418-1.524C7.08 8.4 9.326 9.6 11.877 9.733c-.058-.228-.077-.457-.077-.685 0-1.677 1.37-3.029 3.064-3.029.876 0 1.675.362 2.246.952.704-.133 1.352-.38 1.942-.742-.229.704-.724 1.295-1.352 1.676.628-.076 1.218-.229 1.77-.476-.418.61-.932 1.142-1.522 1.561z" transform="translate(1144 40)"/>
            </g>
        </g>
    </g>
</svg>
