<?xml version="1.0" encoding="UTF-8"?>
<svg width="20px" height="20px" viewBox="0 0 20 20" version="1.1" xmlns="http://www.w3.org/2000/svg" xmlns:xlink="http://www.w3.org/1999/xlink">
    <title>twitter</title>
    <defs>
        <path d="M11.9994999,1.99969995 C17.5225,1.99969995 21.9994999,6.47669997 21.9994999,11.9997 C21.9994999,17.5227 17.5225,21.9997 11.9994999,21.9997 C6.47749997,21.9997 1.99949995,17.5227 1.99949995,11.9997 C1.99949995,6.47669997 6.47749997,1.99969995 11.9994999,1.99969995 Z M11.9995,3.52969996 C7.32149998,3.52969996 3.52849996,7.32169998 3.52849996,11.9997 C3.52849996,16.6787 7.32149998,20.4707 11.9995,20.4707 C16.6785,20.4707 20.4705,16.6787 20.4705,11.9997 C20.4705,7.32169998 16.6785,3.52969996 11.9995,3.52969996 Z M14.0742,7.85249998 C14.6772,7.85249998 15.2812,8.07749998 15.6582,8.45549998 C16.0352,8.45549998 16.7132,8.22949998 17.0152,8.00249998 C16.8642,8.45549998 16.4112,8.98249998 16.1102,9.20949999 C16.6382,9.20949999 17.1642,8.98249998 17.3162,8.90749998 C17.0152,9.28449999 16.7132,9.66149999 16.2612,9.96349999 C16.4112,13.3565 13.6972,16.1475 10.1532,16.1475 C8.94619998,16.1475 7.81519998,15.8455 6.68419997,15.2415 C8.19219998,15.4685 9.47419999,14.7135 9.85119999,14.3365 C8.87019998,14.3365 7.96619998,13.5075 7.89019998,12.9035 C8.11719998,12.9035 8.56919998,12.9795 8.79619998,12.8285 C7.51419998,12.5265 7.13719998,11.5465 7.13719998,10.7925 C7.36319998,11.0195 7.89019998,11.0195 8.11719998,11.0195 C7.36319998,10.5665 6.83519997,9.35949999 7.43819998,8.22949998 C8.56919998,9.58649999 10.3042,10.3405 11.9632,10.4155 C11.8872,10.2655 11.8872,10.1135 11.8872,9.96349999 C11.8872,8.83249998 12.8682,7.85249998 14.0742,7.85249998 Z" id="path-1"></path>
    </defs>
    <g id="Icons" stroke="none" stroke-width="1" fill="none" fill-rule="evenodd">
        <g id="Icons-[All-Platforms]" transform="translate(-637.000000, -1640.000000)">
            <g id="Group" transform="translate(635.000000, 1638.000000)">
                <mask id="mask-2" fill="white">
                    <use xlink:href="#path-1"></use>
                </mask>
                <use id="Combined-Shape" fill="#62656E" xlink:href="#path-1"></use>
            </g>
        </g>
    </g>
</svg>