<?xml version="1.0" encoding="UTF-8"?>
<svg width="20px" height="20px" viewBox="0 0 20 20" version="1.1" xmlns="http://www.w3.org/2000/svg" xmlns:xlink="http://www.w3.org/1999/xlink">
    <title>upload thick</title>
    <g id="Icons" stroke="none" stroke-width="1" fill="none" fill-rule="evenodd">
        <g id="Icons-[All-Platforms]" transform="translate(-1061.000000, -894.000000)" >
            <g id="Icons_basic_upload" transform="translate(1059.000000, 892.000000)">
                <path d="M11.9999999,1.99999995 C17.514,1.99999995 21.9999999,6.48599997 21.9999999,11.9999999 C21.9999999,17.514 17.514,21.9999999 11.9999999,21.9999999 C6.48599997,21.9999999 1.99999995,17.514 1.99999995,11.9999999 C1.99999995,6.48599997 6.48599997,1.99999995 11.9999999,1.99999995 Z M12,3.99999996 C7.58899998,3.99999996 3.99999996,7.58899998 3.99999996,12 C3.99999996,16.411 7.58899998,20 12,20 C16.411,20 20,16.411 20,12 C20,7.58899998 16.411,3.99999996 12,3.99999996 Z M12.7068,7.29299998 L15.7288,10.315 L15.7293,10.315 L16.9998,11.586 L16.9998,13 L15.5858,13 L12.9998,10.414 L12.9998,16 L11.9998,17 L10.9998,16 L10.9998,10.414 L8.41379998,13 L6.99979997,13 L6.99979997,11.586 L11.2928,7.29299998 L12.7068,7.29299998 Z"></path>
            </g>
        </g>
    </g>
</svg>