<?xml version="1.0" encoding="UTF-8"?>
<svg width="20px" height="18px" viewBox="0 0 20 18" version="1.1" xmlns="http://www.w3.org/2000/svg" xmlns:xlink="http://www.w3.org/1999/xlink">
    <title>user friend thick</title>
    <g id="Icons" stroke="none" stroke-width="1" fill="none" fill-rule="evenodd">
        <g id="Icons-[All-Platforms]" transform="translate(-1202.000000, -895.000000)" >
            <g id="Icons_basic_user-friend" transform="translate(1200.000000, 892.000000)">
                <path d="M22.0000001,15.0832727 L22.0000001,19.1946364 L20.5581819,20.6364545 L14.7272727,20.6364545 L14.7272727,18.8182728 L19.8054546,18.8182728 L20.1818182,18.4419091 L20.1818182,15.3387273 C19.6527273,13.6341818 18.0577273,12.4546364 16.2622727,12.4546364 C15.0354546,12.4546364 13.8827273,12.9969091 13.0995455,13.9432727 L11.6986364,12.7837273 C12.8281818,11.4187273 14.4918182,10.6364545 16.2622727,10.6364545 C18.91,10.6364545 21.2554546,12.4155455 21.9668182,14.9632727 L22.0000001,15.0832727 Z M12,18.4419091 L11.6236364,18.8182728 L4.19454542,18.8182728 L3.81818178,18.4419091 L3.81818178,18.0405455 C4.3413636,16.3773637 6.04181815,15.1819091 7.90909089,15.1819091 C9.77636363,15.1819091 11.4768182,16.3773637 12,18.0405455 L12,18.4419091 Z M7.90909089,13.3637273 C5.19999997,13.3637273 2.72909086,15.1723637 2.03318177,17.6650909 L1.99999995,17.7846364 L1.99999995,19.1946364 L3.44181814,20.6364546 L12.3763636,20.6364546 L13.8181818,19.1946364 L13.8181818,17.7846364 L13.785,17.6650909 C13.0890909,15.1723637 10.6181818,13.3637273 7.90909089,13.3637273 L7.90909089,13.3637273 Z M7.90909089,7.9091818 C8.66090907,7.9091818 9.27272726,8.52054544 9.27272726,9.27281817 C9.27272726,10.0246364 8.66090907,10.6364545 7.90909089,10.6364545 C7.1572727,10.6364545 6.54545452,10.0246364 6.54545452,9.27281817 C6.54545452,8.52054544 7.1572727,7.9091818 7.90909089,7.9091818 L7.90909089,7.9091818 Z M7.90909089,12.4546364 C9.66318181,12.4546364 11.0909091,11.0269091 11.0909091,9.27281817 C11.0909091,7.5182727 9.66318181,6.09099997 7.90909089,6.09099997 C6.15499997,6.09099997 4.72727269,7.5182727 4.72727269,9.27281817 C4.72727269,11.0269091 6.15499997,12.4546364 7.90909089,12.4546364 L7.90909089,12.4546364 Z M16.0909091,5.18190906 C16.8427273,5.18190906 17.4545455,5.79372724 17.4545455,6.54554543 C17.4545455,7.29736361 16.8427273,7.9091818 16.0909091,7.9091818 C15.3390909,7.9091818 14.7272727,7.29736361 14.7272727,6.54554543 C14.7272727,5.79372724 15.3390909,5.18190906 16.0909091,5.18190906 L16.0909091,5.18190906 Z M16.0909091,9.72736363 C17.845,9.72736363 19.2727273,8.29963635 19.2727273,6.54554543 C19.2727273,4.79099996 17.845,3.36372723 16.0909091,3.36372723 C14.3368182,3.36372723 12.9090909,4.79099996 12.9090909,6.54554543 C12.9090909,8.29963635 14.3368182,9.72736363 16.0909091,9.72736363 L16.0909091,9.72736363 Z"></path>
            </g>
        </g>
    </g>
</svg>