<?xml version="1.0" encoding="UTF-8"?>
<svg width="20px" height="4px" viewBox="0 0 20 4" version="1.1" xmlns="http://www.w3.org/2000/svg" xmlns:xlink="http://www.w3.org/1999/xlink">
    <title>view-more thick</title>
    <g id="Icons" stroke="none" stroke-width="1" fill="none" fill-rule="evenodd">
        <g id="Icons-[All-Platforms]" transform="translate(-497.000000, -1274.000000)" >
            <g id="Icons_navigation_view-more" transform="translate(495.000000, 1264.000000)">
                <path d="M3.99999995,9.99999999 C5.10299997,9.99999999 5.99999995,10.897 5.99999995,12 C5.99999995,13.103 5.10299997,14 3.99999995,14 C2.89699995,14 1.99999995,13.103 1.99999995,12 C1.99999995,10.897 2.89699995,9.99999999 3.99999995,9.99999999 Z M12,9.99999999 C13.103,9.99999999 14,10.897 14,12 C14,13.103 13.103,14 12,14 C10.897,14 9.99999999,13.103 9.99999999,12 C9.99999999,10.897 10.897,9.99999999 12,9.99999999 Z M20,9.99999999 C21.103,9.99999999 22,10.897 22,12 C22,13.103 21.103,14 20,14 C18.897,14 18,13.103 18,12 C18,10.897 18.897,9.99999999 20,9.99999999 Z"></path>
            </g>
        </g>
    </g>
</svg>