<?xml version="1.0" encoding="UTF-8"?>
<svg width="20px" height="11px" viewBox="0 0 20 11" version="1.1" xmlns="http://www.w3.org/2000/svg" xmlns:xlink="http://www.w3.org/1999/xlink">
    <title>view thick</title>
    <defs>
        <path d="M16.1261863,15.2072835 C16.7608086,14.3992041 17.1413084,13.4027882 17.1413084,12.321901 C17.1413084,11.2841115 16.7922889,10.3238976 16.2032899,9.53348809 C18.0341595,10.2665778 19.0041145,11.2884212 19.3284973,11.6823331 L19.337622,12.7886478 C19.0173453,13.210573 17.9853424,14.4082545 16.1261863,15.2072835 L16.1261863,15.2072835 Z M4.65827191,12.7537387 L4.65827191,11.7443936 C5.04470267,11.3414313 6.1113793,10.3424295 7.74013701,9.60287518 C7.18261827,10.3790625 6.85686672,11.3151417 6.85686672,12.321901 C6.85686672,13.3359869 7.18854932,14.2780999 7.75336782,15.057735 C5.94759105,14.2535343 4.96805524,13.1506674 4.65827191,12.7537387 L4.65827191,12.7537387 Z M11.9990875,15.4555256 C10.1695866,15.4555256 8.68180534,14.0496827 8.68180534,12.321901 C8.68180534,10.5936884 10.1695866,9.18827653 11.9990875,9.18827653 C13.8281323,9.18827653 15.3163697,10.5936884 15.3163697,12.321901 C15.3163697,14.0496827 13.8281323,15.4555256 11.9990875,15.4555256 L11.9990875,15.4555256 Z M21.1488735,11.1875729 L21.0434834,11.0009604 C21.0220403,10.9621726 18.5802724,7.14803743 12.0269178,7.00279861 C6.22406925,6.8786776 3.00670246,10.9242468 2.97887214,10.9651895 L2.83333329,11.1780915 L2.83333329,13.1890242 L2.9058746,13.3506401 C2.92503645,13.3928757 5.4466454,17.5582561 12.0050186,17.6918586 C12.0967218,17.6935825 12.1870562,17.6944444 12.2773907,17.6944444 C18.4087282,17.6944444 21.0535205,13.4562292 21.075876,13.4122696 L21.1666667,13.2325528 L21.1488735,11.1875729 Z" id="path-1"></path>
    </defs>
    <g id="Icons" stroke="none" stroke-width="1" fill="none" fill-rule="evenodd">
        <g id="Icons-[All-Platforms]" transform="translate(-1342.000000, -899.000000)">
            <g id="Group" transform="translate(1340.000000, 892.000000)">
                <mask id="mask-2" fill="white">
                    <use xlink:href="#path-1"></use>
                </mask>
                <use id="Combined-Shape" fill="#62656E" xlink:href="#path-1"></use>
            </g>
        </g>
    </g>
</svg>