<?xml version="1.0" encoding="UTF-8"?>
<svg width="20px" height="20px" viewBox="0 0 20 20" version="1.1" xmlns="http://www.w3.org/2000/svg" xmlns:xlink="http://www.w3.org/1999/xlink">
    <title>vk</title>
    <defs>
        <path d="M12,1.99979995 C17.523,1.99979995 22,6.47679997 22,11.9997999 C22,17.5228 17.523,21.9997999 12,21.9997999 C6.47699997,21.9997999 1.99999995,17.5228 1.99999995,11.9997999 C1.99999995,6.47679997 6.47699997,1.99979995 12,1.99979995 Z M12,3.52979996 C7.32199998,3.52979996 3.52899996,7.32179998 3.52899996,11.9998 C3.52899996,16.6788 7.32199998,20.4708 12,20.4708 C16.678,20.4708 20.471,16.6788 20.471,11.9998 C20.471,7.32179998 16.678,3.52979996 12,3.52979996 Z M7.13069998,8.98612498 L7.69019998,8.98699998 C7.73719998,8.98699998 7.78419998,8.98899998 7.83019998,8.99499998 C7.97019998,9.01299999 8.07119998,9.08699999 8.14019998,9.20799999 C8.20519998,9.32099999 8.24319998,9.44599999 8.28719998,9.56799999 C8.57519998,10.363 8.93219998,11.124 9.40419999,11.827 C9.54619999,12.041 9.70119999,12.245 9.89119999,12.419 C9.94619999,12.469 10.0042,12.515 10.0702,12.548 C10.0992,12.563 10.1292,12.574 10.1622,12.577 C10.2812,12.588 10.3432,12.545 10.3742,12.429 C10.3962,12.348 10.4002,12.265 10.4002,12.182 C10.4012,11.595 10.4052,11.009 10.4002,10.422 C10.3972,10.098 10.3012,9.80199999 10.0852,9.55099999 C10.0442,9.50499999 10.0062,9.45699999 9.97519999,9.40199999 C9.87519999,9.22399999 9.97819999,9.01799999 10.1812,8.99199998 C10.2112,8.98799998 10.2402,8.98599998 10.2702,8.98599998 L10.2702,8.98599998 L12.0452,8.98599998 C12.0952,8.98599998 12.1442,8.98899998 12.1932,8.99999998 C12.2852,9.02099999 12.3462,9.07499999 12.3782,9.16199999 C12.4122,9.25199999 12.4162,9.34499999 12.4162,9.43999999 L12.4162,9.43999999 L12.4162,11.727 C12.4162,11.803 12.4202,11.879 12.4502,11.952 C12.4962,12.065 12.5682,12.101 12.6862,12.07 C12.7642,12.049 12.8302,12.004 12.8922,11.955 C13.0792,11.804 13.2372,11.625 13.3832,11.435 C13.7502,10.958 14.0502,10.44 14.3192,9.90199999 C14.4132,9.71299999 14.5042,9.52199999 14.5862,9.32599999 C14.6752,9.11299999 14.8322,8.99699998 15.0642,8.98899998 C15.1342,8.98599998 15.2042,8.98599998 15.2742,8.98599998 L16.2402,8.98599998 C16.3022,8.98599998 16.3642,8.98899998 16.4252,9.00099998 C16.5982,9.03499999 16.6812,9.15399999 16.6502,9.32899999 C16.6182,9.51099999 16.5462,9.67999999 16.4662,9.84599999 C16.2822,10.224 16.0632,10.583 15.8402,10.938 C15.5932,11.329 15.3342,11.713 15.0692,12.092 C15.0322,12.145 14.9992,12.201 14.9712,12.258 C14.9232,12.354 14.9282,12.447 14.9802,12.539 C15.0402,12.644 15.1212,12.732 15.2052,12.817 C15.3952,13.01 15.5962,13.193 15.7762,13.396 C16.0632,13.719 16.3512,14.042 16.5972,14.398 C16.6932,14.537 16.7832,14.681 16.8402,14.841 C16.8592,14.892 16.8702,14.944 16.8742,14.998 C16.8882,15.185 16.7942,15.309 16.6092,15.347 C16.5482,15.359 16.4872,15.364 16.4252,15.364 C16.0562,15.363 15.6872,15.358 15.3182,15.365 C15.0982,15.37 14.9222,15.291 14.7682,15.142 C14.5772,14.957 14.4072,14.752 14.2262,14.558 C13.9552,14.267 13.6752,13.986 13.3572,13.745 C13.2312,13.649 13.0992,13.562 12.9512,13.501 C12.8512,13.459 12.7472,13.445 12.6402,13.455 C12.5102,13.467 12.4462,13.532 12.4272,13.669 C12.4172,13.739 12.4162,13.809 12.4162,13.878 L12.4162,13.878 L12.4162,14.877 C12.4162,14.932 12.4132,14.987 12.4042,15.041 C12.3862,15.151 12.3242,15.226 12.2252,15.273 C12.1132,15.326 11.9922,15.343 11.8692,15.353 C11.3992,15.391 10.9412,15.332 10.4942,15.182 C10.0502,15.034 9.64319999,14.815 9.26719999,14.538 C8.78219998,14.18 8.37319998,13.748 8.02419998,13.258 C7.54019998,12.58 7.10419998,11.873 6.74419997,11.12 C6.53519997,10.68 6.35019997,10.231 6.22119997,9.75999999 C6.18519997,9.62799999 6.15419997,9.49499999 6.14119997,9.35799999 C6.13719997,9.31399999 6.13924312,9.26899999 6.14819997,9.22599999 C6.17219997,9.10199999 6.25519997,9.02599999 6.39019997,9.00099998 C6.45019997,8.98999998 6.51019997,8.98599998 6.57119997,8.98599998 C6.94419997,8.98599998 7.31719998,8.98599998 7.69019998,8.98699998 Z" id="path-1"></path>
    </defs>
    <g id="Icons" stroke="none" stroke-width="1" fill="none" fill-rule="evenodd">
        <g id="Icons-[All-Platforms]" transform="translate(-777.000000, -1640.000000)">
            <g id="Group" transform="translate(775.000000, 1638.000000)">
                <mask id="mask-2" fill="white">
                    <use xlink:href="#path-1"></use>
                </mask>
                <use id="Combined-Shape"  xlink:href="#path-1"></use>
            </g>
        </g>
    </g>
</svg>