<?xml version="1.0" encoding="UTF-8"?>
<svg width="20px" height="16px" viewBox="0 0 20 16" version="1.1" xmlns="http://www.w3.org/2000/svg" xmlns:xlink="http://www.w3.org/1999/xlink">
    <title>wallet thick</title>
    <defs>
        <path d="M21,5 L22,6.0523617 L22,19.9481642 L21,21 L3,21 L2,19.9481642 L2,6.0523617 L3,5 L21,5 Z M20,7.10419749 L4,7.10419749 L4,18.8963285 L20,18.8963285 L20,16.6212077 L13.5005,16.6212077 L12.5,15.568846 L12.5,10.3491109 L13.5005,9.29727509 L20,9.29727509 L20,7.10419749 Z M20,11.4014725 L14.5,11.4014725 L14.5,14.5175361 L20,14.5175361 L20,11.4014725 Z M17.2311,12.1386517 L17.3322823,12.145242 C17.7300083,12.1974394 18.0376771,12.5533582 18.0386021,12.9859054 L18.0386021,12.9859054 L18.0325493,13.0924535 C17.9837065,13.5112756 17.6452923,13.8353034 17.2336,13.8357909 L17.2336,13.8357909 L17.1322944,13.8294157 C16.7340467,13.777975 16.4255615,13.4216081 16.4250995,12.989061 L16.4250995,12.989061 L16.4312666,12.8825126 C16.4805615,12.4636876 16.8193308,12.1396226 17.2301,12.1386517 L17.2307875,12.1386517 L17.2311,12.1386517 Z" id="path-1"></path>
    </defs>
    <g id="Icons" stroke="none" stroke-width="1" fill="none" fill-rule="evenodd">
        <g id="Icons-[All-Platforms]" transform="translate(-216.000000, -1001.000000)">
            <g id="Group" transform="translate(214.000000, 996.000000)">
                <mask id="mask-2" fill="white">
                    <use xlink:href="#path-1"></use>
                </mask>
                <use id="Combined-Shape"  xlink:href="#path-1"></use>
            </g>
        </g>
    </g>
</svg>