<?xml version="1.0" encoding="UTF-8"?>
<svg width="18px" height="18px" viewBox="0 0 18 18" version="1.1" xmlns="http://www.w3.org/2000/svg" xmlns:xlink="http://www.w3.org/1999/xlink">
    <title>weight thick</title>
    <defs>
        <path d="M12,3.66666663 C13.8409492,3.66666663 15.3333333,5.1590508 15.3333333,6.99999998 C15.3333333,7.60752681 15.1708054,8.17709321 14.8868578,8.667591 L15.3333333,8.66666663 L16.1666666,9.49999999 L20.3333334,19.5 L19.5,20.3333334 L4.49999996,20.3333334 L3.66666662,19.5 L7.83333331,9.49999999 L8.66666662,8.66666663 L9.11314221,8.667591 C8.82919457,8.17709321 8.66666662,7.60752681 8.66666662,6.99999998 C8.66666662,5.1590508 10.1590508,3.66666663 12,3.66666663 Z M14.6425,10.3333333 L9.35666665,10.3333333 L9.24499999,10.445 L5.81916664,18.6666667 L18.18,18.6666667 L14.7541667,10.445 L14.6425,10.3333333 Z M12,5.3333333 C11.0795254,5.3333333 10.3333333,6.07952539 10.3333333,6.99999998 C10.3333333,7.92047456 11.0795254,8.66666665 12,8.66666665 C12.9204746,8.66666665 13.6666667,7.92047456 13.6666667,6.99999998 C13.6666667,6.07952539 12.9204746,5.3333333 12,5.3333333 Z" id="path-1"></path>
    </defs>
    <g id="Icons" stroke="none" stroke-width="1" fill="none" fill-rule="evenodd">
        <g id="Icons-[All-Platforms]" transform="translate(-497.000000, -999.000000)">
            <g id="Group" transform="translate(494.000000, 996.000000)">
                <mask id="mask-2" fill="white">
                    <use xlink:href="#path-1"></use>
                </mask>
                <use id="Combined-Shape" fill="#62656E" xlink:href="#path-1"></use>
            </g>
        </g>
    </g>
</svg>