<?xml version="1.0" encoding="UTF-8"?>
<svg width="20px" height="20px" viewBox="0 0 20 20" version="1.1" xmlns="http://www.w3.org/2000/svg" xmlns:xlink="http://www.w3.org/1999/xlink">
    <title>whatsapp</title>
    <defs>
        <path d="M11.9994999,1.99969995 C17.5225,1.99969995 21.9994999,6.47669997 21.9994999,11.9997 C21.9994999,17.5227 17.5225,21.9997 11.9994999,21.9997 C6.47749997,21.9997 1.99949995,17.5227 1.99949995,11.9997 C1.99949995,6.47669997 6.47749997,1.99969995 11.9994999,1.99969995 Z M11.9995,3.52969996 C7.32149998,3.52969996 3.52849996,7.32169998 3.52849996,11.9997 C3.52849996,16.6787 7.32149998,20.4707 11.9995,20.4707 C16.6785,20.4707 20.4705,16.6787 20.4705,11.9997 C20.4705,7.32169998 16.6785,3.52969996 11.9995,3.52969996 Z M12.2847,6.44009997 C15.1287,6.44009997 17.4337,8.74509998 17.4337,11.5891 C17.4337,14.4331 15.1287,16.7381 12.2847,16.7381 C11.2707,16.7381 10.3287,16.4431 9.53069999,15.9371 L9.53069999,15.9371 L7.13669998,16.7381 L7.93269998,14.3441 C7.43069998,13.5441 7.13669998,12.6041 7.13669998,11.5891 C7.13669998,8.74509998 9.44069999,6.44009997 12.2847,6.44009997 Z M12.2847,7.47009998 C10.0117,7.47009998 8.16669998,9.31409999 8.16669998,11.5891 C8.16669998,12.4761 8.44469998,13.2951 8.91869998,13.9631 L8.91869998,13.9631 L8.42369998,15.4511 L9.91169999,14.9561 C10.5817,15.4301 11.3977,15.7081 12.2847,15.7081 C14.5607,15.7081 16.4037,13.8651 16.4047,11.5891 C16.4047,9.31409999 14.5607,7.47009998 12.2847,7.47009998 Z M10.6607935,9.00976017 L10.7079,9.01469999 L10.9509,9.01469999 C11.0289,9.01469999 11.1359,8.98369998 11.2339,9.24669999 L11.2339,9.24669999 L11.5879,10.2087 C11.6199,10.2757 11.6399,10.3537 11.5939,10.4347 L11.5939,10.4347 L11.4559,10.6457 L11.2549,10.8637 C11.1919,10.9237 11.1199,10.9927 11.1919,11.1197 C11.2549,11.2547 11.5119,11.6807 11.8729,12.0367 C12.3419,12.4907 12.7539,12.6377 12.8769,12.7057 C13.0019,12.7797 13.0769,12.7687 13.1539,12.6857 L13.1539,12.6857 L13.5719,12.2017 C13.6689,12.0737 13.7519,12.1037 13.8699,12.1437 L13.8699,12.1437 L14.7319,12.5987 C14.8589,12.6657 14.9429,12.6997 14.9659,12.7517 C14.9969,12.8137 14.9859,13.0677 14.8589,13.3617 C14.7549,13.6487 14.2199,13.9257 13.9829,13.9387 C13.7489,13.9457 13.7409,14.1217 12.4599,13.5617 C11.1779,13.0007 10.4059,11.6307 10.3439,11.5427 C10.2819,11.4567 9.84889999,10.8337 9.86989999,10.2007 C9.89489999,9.57069999 10.2259,9.27369999 10.3579,9.14769999 C10.4829,9.01469999 10.6219,8.99869998 10.7079,9.01469999 Z" id="path-1"></path>
    </defs>
    <g id="Icons" stroke="none" stroke-width="1" fill="none" fill-rule="evenodd">
        <g id="Icons-[All-Platforms]" transform="translate(-918.000000, -1640.000000)">
            <g id="Group" transform="translate(916.000000, 1638.000000)">
                <mask id="mask-2" fill="white">
                    <use xlink:href="#path-1"></use>
                </mask>
                <use id="Combined-Shape" fill="#62656E" xlink:href="#path-1"></use>
            </g>
        </g>
    </g>
</svg>